<?xml version="1.0" encoding="utf-8" standalone="no"?>
<!DOCTYPE svg PUBLIC "-//W3C//DTD SVG 1.1//EN"
  "http://www.w3.org/Graphics/SVG/1.1/DTD/svg11.dtd">
<!-- Created with matplotlib (https://matplotlib.org/) -->
<svg height="504pt" version="1.1" viewBox="0 0 720 504" width="720pt" xmlns="http://www.w3.org/2000/svg" xmlns:xlink="http://www.w3.org/1999/xlink">
 <defs>
  <style type="text/css">
*{stroke-linecap:butt;stroke-linejoin:round;}
  </style>
 </defs>
 <g id="figure_1">
  <g id="patch_1">
   <path d="M 0 504 
L 720 504 
L 720 0 
L 0 0 
z
" style="fill:#ffffff;"/>
  </g>
  <g id="axes_1">
   <g id="patch_2">
    <path d="M 90 441 
L 648 441 
L 648 60.48 
L 90 60.48 
z
" style="fill:#ffffff;"/>
   </g>
   <g id="PolyCollection_1">
    <path clip-path="url(#pb935cc1631)" d="M 115.363636 424.455652 
L 115.363636 424.455652 
L 117.912746 421.983798 
L 120.461855 425.026727 
L 123.010964 422.387609 
L 125.560073 424.051842 
L 128.109182 424.455652 
L 130.658291 425.312264 
L 133.207401 424.076159 
L 135.75651 420.605102 
L 138.305619 424.051842 
L 140.854728 424.051842 
L 143.403837 423.648031 
L 145.952947 424.741189 
L 148.502056 424.076159 
L 151.051165 420.20359 
L 153.600274 419.337821 
L 156.149383 407.531811 
L 158.698492 411.546662 
L 161.247602 405.254853 
L 163.796711 381.44195 
L 166.34582 400.768407 
L 168.894929 397.095096 
L 171.444038 371.407139 
L 173.993148 381.784346 
L 176.542257 388.746082 
L 179.091366 388.315507 
L 181.640475 378.638623 
L 184.189584 378.370288 
L 186.738693 356.989956 
L 189.287803 350.210861 
L 191.836912 326.878117 
L 194.386021 342.590525 
L 196.93513 341.938691 
L 199.484239 352.287489 
L 202.033349 347.894878 
L 204.582458 319.556512 
L 207.131567 330.203622 
L 209.680676 342.0722 
L 212.229785 340.884385 
L 214.778894 305.665217 
L 217.328004 336.132275 
L 219.877113 330.725882 
L 222.426222 322.1749 
L 224.975331 341.055679 
L 227.52444 335.819866 
L 230.07355 320.852383 
L 232.622659 313.246556 
L 235.171768 319.556512 
L 237.720877 317.314345 
L 240.269986 319.117511 
L 242.819095 314.320224 
L 245.368205 315.978629 
L 247.917314 306.164214 
L 250.466423 299.234563 
L 253.015532 319.089988 
L 255.564641 299.18297 
L 258.113751 254.698 
L 260.66286 305.875056 
L 263.211969 306.254419 
L 265.761078 325.910216 
L 268.310187 288.29618 
L 270.859296 299.295255 
L 273.408406 291.312793 
L 275.957515 286.947743 
L 278.506624 306.766093 
L 281.055733 286.101515 
L 283.604842 291.746046 
L 286.153952 281.018198 
L 288.703061 316.544259 
L 291.25217 281.552802 
L 293.801279 288.304795 
L 296.350388 285.906583 
L 298.899497 273.701837 
L 301.448607 277.955962 
L 303.997716 271.430283 
L 306.546825 263.942165 
L 309.095934 295.889981 
L 311.645043 268.216827 
L 314.194153 280.777244 
L 316.743262 260.855033 
L 319.292371 263.486551 
L 321.84148 270.306979 
L 324.390589 276.865579 
L 326.939698 262.54075 
L 329.488808 267.118634 
L 332.037917 283.969773 
L 334.587026 281.172247 
L 337.136135 266.709493 
L 339.685244 278.134213 
L 342.234354 267.296233 
L 344.783463 256.801779 
L 347.332572 253.579225 
L 349.881681 244.310682 
L 352.43079 248.602787 
L 354.979899 252.219636 
L 357.529009 239.690147 
L 360.078118 294.91705 
L 362.627227 265.925922 
L 365.176336 233.963702 
L 367.725445 256.146808 
L 370.274555 280.756327 
L 372.823664 276.604097 
L 375.372773 248.804038 
L 377.921882 253.686011 
L 380.470991 265.429664 
L 383.020101 290.612304 
L 385.56921 236.194416 
L 388.118319 257.085202 
L 390.667428 249.20382 
L 393.216537 256.743039 
L 395.765646 250.771265 
L 398.314756 273.419473 
L 400.863865 263.105094 
L 403.412974 250.624021 
L 405.962083 281.657974 
L 408.511192 277.091088 
L 411.060302 237.980679 
L 413.609411 227.942156 
L 416.15852 249.621988 
L 418.707629 245.440981 
L 421.256738 263.364512 
L 423.805847 256.415003 
L 426.354957 273.322768 
L 428.904066 252.758712 
L 431.453175 256.185137 
L 434.002284 240.330499 
L 436.551393 257.610474 
L 439.100503 257.370843 
L 441.649612 238.399993 
L 444.198721 240.139224 
L 446.74783 245.413835 
L 449.296939 267.89293 
L 451.846048 225.389212 
L 454.395158 271.81063 
L 456.944267 244.099264 
L 459.493376 229.881482 
L 462.042485 266.267309 
L 464.591594 252.487967 
L 467.140704 232.793949 
L 469.689813 222.389887 
L 472.238922 237.552818 
L 474.788031 222.389887 
L 477.33714 247.481877 
L 479.886249 306.231101 
L 482.435359 234.079682 
L 484.984468 237.743329 
L 487.533577 237.257885 
L 490.082686 234.592611 
L 492.631795 258.477909 
L 495.180905 264.671009 
L 497.730014 247.135769 
L 500.279123 237.755731 
L 502.828232 252.129821 
L 505.377341 232.422561 
L 507.92645 243.38385 
L 510.47556 243.239008 
L 513.024669 257.748143 
L 515.573778 224.712051 
L 518.122887 221.609305 
L 520.671996 247.106705 
L 523.221106 234.126361 
L 525.770215 249.626544 
L 528.319324 229.208096 
L 530.868433 231.119227 
L 533.417542 212.603267 
L 535.966651 215.227077 
L 538.515761 255.947541 
L 541.06487 216.892672 
L 543.613979 255.927091 
L 546.163088 254.556014 
L 548.712197 223.354699 
L 551.261307 215.179445 
L 553.810416 242.119773 
L 556.359525 279.914586 
L 558.908634 266.866514 
L 561.457743 261.985823 
L 564.006852 252.576092 
L 566.555962 248.585112 
L 569.105071 222.703415 
L 571.65418 238.671753 
L 574.203289 227.782613 
L 576.752398 305.599342 
L 579.301508 235.796325 
L 581.850617 238.702063 
L 584.399726 234.351513 
L 586.948835 201.963571 
L 589.497944 243.433558 
L 592.047053 259.535815 
L 594.596163 245.9327 
L 597.145272 217.989602 
L 599.694381 230.474775 
L 602.24349 262.078916 
L 604.792599 225.335071 
L 607.341709 223.623484 
L 609.890818 238.670025 
L 612.439927 223.504378 
L 614.989036 207.527331 
L 617.538145 249.961082 
L 620.087254 251.313997 
L 622.636364 209.028067 
L 622.636364 190.428449 
L 622.636364 190.428449 
L 620.087254 222.592093 
L 617.538145 212.915439 
L 614.989036 191.929185 
L 612.439927 204.904752 
L 609.890818 220.070407 
L 607.341709 199.270869 
L 604.792599 201.695372 
L 602.24349 204.933682 
L 599.694381 218.61479 
L 597.145272 199.389974 
L 594.596163 219.701224 
L 592.047053 228.157231 
L 589.497944 213.928186 
L 586.948835 196.114257 
L 584.399726 203.708484 
L 581.850617 206.251413 
L 579.301508 188.476729 
L 576.752398 239.998918 
L 574.203289 207.519995 
L 571.65418 213.175201 
L 569.105071 205.705715 
L 566.555962 237.729247 
L 564.006852 228.223476 
L 561.457743 246.387658 
L 558.908634 226.341302 
L 556.359525 232.594984 
L 553.810416 206.969793 
L 551.261307 213.229686 
L 548.712197 210.569208 
L 546.163088 220.728769 
L 543.613979 206.949424 
L 541.06487 203.244279 
L 538.515761 208.307668 
L 535.966651 204.909874 
L 533.417542 197.882817 
L 530.868433 198.668591 
L 528.319324 208.851902 
L 525.770215 224.279533 
L 523.221106 220.477982 
L 520.671996 211.633741 
L 518.122887 216.450692 
L 515.573778 218.862737 
L 513.024669 199.613601 
L 510.47556 214.122736 
L 507.92645 226.38615 
L 505.377341 191.85048 
L 502.828232 209.368013 
L 500.279123 229.25688 
L 497.730014 217.119441 
L 495.180905 221.643336 
L 492.631795 243.002087 
L 490.082686 218.633043 
L 487.533577 210.452979 
L 484.984468 214.103625 
L 482.435359 221.903374 
L 479.886249 221.444127 
L 477.33714 234.696379 
L 474.788031 211.534034 
L 472.238922 200.507179 
L 469.689813 211.534034 
L 467.140704 212.159527 
L 464.591594 218.660721 
L 462.042485 217.289641 
L 459.493376 224.722873 
L 456.944267 211.88378 
L 454.395158 211.746314 
L 451.846048 209.913396 
L 449.296939 203.255778 
L 446.74783 232.628344 
L 444.198721 207.57164 
L 441.649612 231.370007 
L 439.100503 212.399157 
L 436.551393 236.976044 
L 434.002284 226.682112 
L 431.453175 249.430942 
L 428.904066 223.904753 
L 426.354957 241.944191 
L 423.805847 214.733685 
L 421.256738 247.766357 
L 418.707629 207.784674 
L 416.15852 225.662802 
L 413.609411 208.739141 
L 411.060302 219.381053 
L 408.511192 246.448051 
L 405.962083 230.85159 
L 403.412974 238.447713 
L 400.863865 241.132298 
L 398.314756 211.516184 
L 395.765646 235.54308 
L 393.216537 230.950014 
L 390.667428 219.187492 
L 388.118319 233.365233 
L 385.56921 222.546029 
L 383.020101 230.169433 
L 380.470991 242.943817 
L 377.921882 240.900513 
L 375.372773 212.693783 
L 372.823664 215.225032 
L 370.274555 220.723669 
L 367.725445 212.244498 
L 365.176336 209.611073 
L 362.627227 219.009736 
L 360.078118 238.272955 
L 357.529009 216.29291 
L 354.979899 228.579932 
L 352.43079 228.060691 
L 349.881681 221.323229 
L 347.332572 224.462954 
L 344.783463 210.210833 
L 342.234354 227.290291 
L 339.685244 209.558827 
L 337.136135 233.391809 
L 334.587026 257.532536 
L 332.037917 260.249787 
L 329.488808 235.740056 
L 326.939698 233.424469 
L 324.390589 270.111376 
L 321.84148 244.959967 
L 319.292371 244.886923 
L 316.743262 237.867581 
L 314.194153 245.519276 
L 311.645043 248.428826 
L 309.095934 244.193496 
L 306.546825 232.023047 
L 303.997716 223.156242 
L 301.448607 269.020993 
L 298.899497 251.215995 
L 296.350388 237.632542 
L 293.801279 262.808243 
L 291.25217 240.607622 
L 288.703061 245.598347 
L 286.153952 245.278322 
L 283.604842 280.047427 
L 281.055733 265.011529 
L 278.506624 251.24043 
L 275.957515 237.970076 
L 273.408406 252.906773 
L 270.859296 253.19649 
L 268.310187 279.36121 
L 265.761078 295.516305 
L 263.211969 268.296449 
L 260.66286 268.675812 
L 258.113751 249.539391 
L 255.564641 286.397466 
L 253.015532 287.170882 
L 250.466423 289.103262 
L 247.917314 276.658833 
L 245.368205 297.17572 
L 242.819095 272.638906 
L 240.269986 283.00727 
L 237.720877 301.354788 
L 235.171768 315.656966 
L 232.622659 266.819097 
L 230.07355 295.059349 
L 227.52444 281.470569 
L 224.975331 298.293886 
L 222.426222 279.949881 
L 219.877113 286.564557 
L 217.328004 325.276416 
L 214.778894 290.94478 
L 212.229785 284.678227 
L 209.680676 323.47258 
L 207.131567 317.418118 
L 204.582458 315.656966 
L 202.033349 325.922081 
L 199.484239 329.801639 
L 196.93513 320.848703 
L 194.386021 336.741211 
L 191.836912 323.501012 
L 189.287803 329.120875 
L 186.738693 330.613953 
L 184.189584 354.730583 
L 181.640475 344.811376 
L 179.091366 353.057539 
L 176.542257 374.686089 
L 173.993148 374.754349 
L 171.444038 356.178946 
L 168.894929 374.609251 
L 166.34582 381.965505 
L 163.796711 369.581961 
L 161.247602 381.615147 
L 158.698492 398.761163 
L 156.149383 404.154711 
L 153.600274 403.378265 
L 151.051165 408.02728 
L 148.502056 420.699058 
L 145.952947 422.791419 
L 143.403837 419.748491 
L 140.854728 422.102071 
L 138.305619 422.102071 
L 135.75651 418.655332 
L 133.207401 420.699058 
L 130.658291 419.462953 
L 128.109182 424.455652 
L 125.560073 422.102071 
L 123.010964 422.387609 
L 120.461855 421.127186 
L 117.912746 420.034028 
L 115.363636 424.455652 
z
" style="fill:#1f77b4;fill-opacity:0.3;"/>
   </g>
   <g id="matplotlib.axis_1">
    <g id="xtick_1">
     <g id="line2d_1">
      <path clip-path="url(#pb935cc1631)" d="M 115.363636 441 
L 115.363636 60.48 
" style="fill:none;stroke:#b0b0b0;stroke-linecap:square;stroke-width:0.8;"/>
     </g>
     <g id="line2d_2">
      <defs>
       <path d="M 0 0 
L 0 3.5 
" id="m5e91e2b648" style="stroke:#000000;stroke-width:0.8;"/>
      </defs>
      <g>
       <use style="stroke:#000000;stroke-width:0.8;" x="115.363636" xlink:href="#m5e91e2b648" y="441"/>
      </g>
     </g>
     <g id="text_1">
      <!-- 0 -->
      <defs>
       <path d="M 31.78125 66.40625 
Q 24.171875 66.40625 20.328125 58.90625 
Q 16.5 51.421875 16.5 36.375 
Q 16.5 21.390625 20.328125 13.890625 
Q 24.171875 6.390625 31.78125 6.390625 
Q 39.453125 6.390625 43.28125 13.890625 
Q 47.125 21.390625 47.125 36.375 
Q 47.125 51.421875 43.28125 58.90625 
Q 39.453125 66.40625 31.78125 66.40625 
z
M 31.78125 74.21875 
Q 44.046875 74.21875 50.515625 64.515625 
Q 56.984375 54.828125 56.984375 36.375 
Q 56.984375 17.96875 50.515625 8.265625 
Q 44.046875 -1.421875 31.78125 -1.421875 
Q 19.53125 -1.421875 13.0625 8.265625 
Q 6.59375 17.96875 6.59375 36.375 
Q 6.59375 54.828125 13.0625 64.515625 
Q 19.53125 74.21875 31.78125 74.21875 
z
" id="DejaVuSans-48"/>
      </defs>
      <g transform="translate(112.182386 455.598437)scale(0.1 -0.1)">
       <use xlink:href="#DejaVuSans-48"/>
      </g>
     </g>
    </g>
    <g id="xtick_2">
     <g id="line2d_3">
      <path clip-path="url(#pb935cc1631)" d="M 179.091366 441 
L 179.091366 60.48 
" style="fill:none;stroke:#b0b0b0;stroke-linecap:square;stroke-width:0.8;"/>
     </g>
     <g id="line2d_4">
      <g>
       <use style="stroke:#000000;stroke-width:0.8;" x="179.091366" xlink:href="#m5e91e2b648" y="441"/>
      </g>
     </g>
     <g id="text_2">
      <!-- 25 -->
      <defs>
       <path d="M 19.1875 8.296875 
L 53.609375 8.296875 
L 53.609375 0 
L 7.328125 0 
L 7.328125 8.296875 
Q 12.9375 14.109375 22.625 23.890625 
Q 32.328125 33.6875 34.8125 36.53125 
Q 39.546875 41.84375 41.421875 45.53125 
Q 43.3125 49.21875 43.3125 52.78125 
Q 43.3125 58.59375 39.234375 62.25 
Q 35.15625 65.921875 28.609375 65.921875 
Q 23.96875 65.921875 18.8125 64.3125 
Q 13.671875 62.703125 7.8125 59.421875 
L 7.8125 69.390625 
Q 13.765625 71.78125 18.9375 73 
Q 24.125 74.21875 28.421875 74.21875 
Q 39.75 74.21875 46.484375 68.546875 
Q 53.21875 62.890625 53.21875 53.421875 
Q 53.21875 48.921875 51.53125 44.890625 
Q 49.859375 40.875 45.40625 35.40625 
Q 44.1875 33.984375 37.640625 27.21875 
Q 31.109375 20.453125 19.1875 8.296875 
z
" id="DejaVuSans-50"/>
       <path d="M 10.796875 72.90625 
L 49.515625 72.90625 
L 49.515625 64.59375 
L 19.828125 64.59375 
L 19.828125 46.734375 
Q 21.96875 47.46875 24.109375 47.828125 
Q 26.265625 48.1875 28.421875 48.1875 
Q 40.625 48.1875 47.75 41.5 
Q 54.890625 34.8125 54.890625 23.390625 
Q 54.890625 11.625 47.5625 5.09375 
Q 40.234375 -1.421875 26.90625 -1.421875 
Q 22.3125 -1.421875 17.546875 -0.640625 
Q 12.796875 0.140625 7.71875 1.703125 
L 7.71875 11.625 
Q 12.109375 9.234375 16.796875 8.0625 
Q 21.484375 6.890625 26.703125 6.890625 
Q 35.15625 6.890625 40.078125 11.328125 
Q 45.015625 15.765625 45.015625 23.390625 
Q 45.015625 31 40.078125 35.4375 
Q 35.15625 39.890625 26.703125 39.890625 
Q 22.75 39.890625 18.8125 39.015625 
Q 14.890625 38.140625 10.796875 36.28125 
z
" id="DejaVuSans-53"/>
      </defs>
      <g transform="translate(172.728866 455.598437)scale(0.1 -0.1)">
       <use xlink:href="#DejaVuSans-50"/>
       <use x="63.623047" xlink:href="#DejaVuSans-53"/>
      </g>
     </g>
    </g>
    <g id="xtick_3">
     <g id="line2d_5">
      <path clip-path="url(#pb935cc1631)" d="M 242.819095 441 
L 242.819095 60.48 
" style="fill:none;stroke:#b0b0b0;stroke-linecap:square;stroke-width:0.8;"/>
     </g>
     <g id="line2d_6">
      <g>
       <use style="stroke:#000000;stroke-width:0.8;" x="242.819095" xlink:href="#m5e91e2b648" y="441"/>
      </g>
     </g>
     <g id="text_3">
      <!-- 50 -->
      <g transform="translate(236.456595 455.598437)scale(0.1 -0.1)">
       <use xlink:href="#DejaVuSans-53"/>
       <use x="63.623047" xlink:href="#DejaVuSans-48"/>
      </g>
     </g>
    </g>
    <g id="xtick_4">
     <g id="line2d_7">
      <path clip-path="url(#pb935cc1631)" d="M 306.546825 441 
L 306.546825 60.48 
" style="fill:none;stroke:#b0b0b0;stroke-linecap:square;stroke-width:0.8;"/>
     </g>
     <g id="line2d_8">
      <g>
       <use style="stroke:#000000;stroke-width:0.8;" x="306.546825" xlink:href="#m5e91e2b648" y="441"/>
      </g>
     </g>
     <g id="text_4">
      <!-- 75 -->
      <defs>
       <path d="M 8.203125 72.90625 
L 55.078125 72.90625 
L 55.078125 68.703125 
L 28.609375 0 
L 18.3125 0 
L 43.21875 64.59375 
L 8.203125 64.59375 
z
" id="DejaVuSans-55"/>
      </defs>
      <g transform="translate(300.184325 455.598437)scale(0.1 -0.1)">
       <use xlink:href="#DejaVuSans-55"/>
       <use x="63.623047" xlink:href="#DejaVuSans-53"/>
      </g>
     </g>
    </g>
    <g id="xtick_5">
     <g id="line2d_9">
      <path clip-path="url(#pb935cc1631)" d="M 370.274555 441 
L 370.274555 60.48 
" style="fill:none;stroke:#b0b0b0;stroke-linecap:square;stroke-width:0.8;"/>
     </g>
     <g id="line2d_10">
      <g>
       <use style="stroke:#000000;stroke-width:0.8;" x="370.274555" xlink:href="#m5e91e2b648" y="441"/>
      </g>
     </g>
     <g id="text_5">
      <!-- 100 -->
      <defs>
       <path d="M 12.40625 8.296875 
L 28.515625 8.296875 
L 28.515625 63.921875 
L 10.984375 60.40625 
L 10.984375 69.390625 
L 28.421875 72.90625 
L 38.28125 72.90625 
L 38.28125 8.296875 
L 54.390625 8.296875 
L 54.390625 0 
L 12.40625 0 
z
" id="DejaVuSans-49"/>
      </defs>
      <g transform="translate(360.730805 455.598437)scale(0.1 -0.1)">
       <use xlink:href="#DejaVuSans-49"/>
       <use x="63.623047" xlink:href="#DejaVuSans-48"/>
       <use x="127.246094" xlink:href="#DejaVuSans-48"/>
      </g>
     </g>
    </g>
    <g id="xtick_6">
     <g id="line2d_11">
      <path clip-path="url(#pb935cc1631)" d="M 434.002284 441 
L 434.002284 60.48 
" style="fill:none;stroke:#b0b0b0;stroke-linecap:square;stroke-width:0.8;"/>
     </g>
     <g id="line2d_12">
      <g>
       <use style="stroke:#000000;stroke-width:0.8;" x="434.002284" xlink:href="#m5e91e2b648" y="441"/>
      </g>
     </g>
     <g id="text_6">
      <!-- 125 -->
      <g transform="translate(424.458534 455.598437)scale(0.1 -0.1)">
       <use xlink:href="#DejaVuSans-49"/>
       <use x="63.623047" xlink:href="#DejaVuSans-50"/>
       <use x="127.246094" xlink:href="#DejaVuSans-53"/>
      </g>
     </g>
    </g>
    <g id="xtick_7">
     <g id="line2d_13">
      <path clip-path="url(#pb935cc1631)" d="M 497.730014 441 
L 497.730014 60.48 
" style="fill:none;stroke:#b0b0b0;stroke-linecap:square;stroke-width:0.8;"/>
     </g>
     <g id="line2d_14">
      <g>
       <use style="stroke:#000000;stroke-width:0.8;" x="497.730014" xlink:href="#m5e91e2b648" y="441"/>
      </g>
     </g>
     <g id="text_7">
      <!-- 150 -->
      <g transform="translate(488.186264 455.598437)scale(0.1 -0.1)">
       <use xlink:href="#DejaVuSans-49"/>
       <use x="63.623047" xlink:href="#DejaVuSans-53"/>
       <use x="127.246094" xlink:href="#DejaVuSans-48"/>
      </g>
     </g>
    </g>
    <g id="xtick_8">
     <g id="line2d_15">
      <path clip-path="url(#pb935cc1631)" d="M 561.457743 441 
L 561.457743 60.48 
" style="fill:none;stroke:#b0b0b0;stroke-linecap:square;stroke-width:0.8;"/>
     </g>
     <g id="line2d_16">
      <g>
       <use style="stroke:#000000;stroke-width:0.8;" x="561.457743" xlink:href="#m5e91e2b648" y="441"/>
      </g>
     </g>
     <g id="text_8">
      <!-- 175 -->
      <g transform="translate(551.913993 455.598437)scale(0.1 -0.1)">
       <use xlink:href="#DejaVuSans-49"/>
       <use x="63.623047" xlink:href="#DejaVuSans-55"/>
       <use x="127.246094" xlink:href="#DejaVuSans-53"/>
      </g>
     </g>
    </g>
    <g id="xtick_9">
     <g id="line2d_17">
      <path clip-path="url(#pb935cc1631)" d="M 625.185473 441 
L 625.185473 60.48 
" style="fill:none;stroke:#b0b0b0;stroke-linecap:square;stroke-width:0.8;"/>
     </g>
     <g id="line2d_18">
      <g>
       <use style="stroke:#000000;stroke-width:0.8;" x="625.185473" xlink:href="#m5e91e2b648" y="441"/>
      </g>
     </g>
     <g id="text_9">
      <!-- 200 -->
      <g transform="translate(615.641723 455.598437)scale(0.1 -0.1)">
       <use xlink:href="#DejaVuSans-50"/>
       <use x="63.623047" xlink:href="#DejaVuSans-48"/>
       <use x="127.246094" xlink:href="#DejaVuSans-48"/>
      </g>
     </g>
    </g>
    <g id="text_10">
     <!-- epochs -->
     <defs>
      <path d="M 56.203125 29.59375 
L 56.203125 25.203125 
L 14.890625 25.203125 
Q 15.484375 15.921875 20.484375 11.0625 
Q 25.484375 6.203125 34.421875 6.203125 
Q 39.59375 6.203125 44.453125 7.46875 
Q 49.3125 8.734375 54.109375 11.28125 
L 54.109375 2.78125 
Q 49.265625 0.734375 44.1875 -0.34375 
Q 39.109375 -1.421875 33.890625 -1.421875 
Q 20.796875 -1.421875 13.15625 6.1875 
Q 5.515625 13.8125 5.515625 26.8125 
Q 5.515625 40.234375 12.765625 48.109375 
Q 20.015625 56 32.328125 56 
Q 43.359375 56 49.78125 48.890625 
Q 56.203125 41.796875 56.203125 29.59375 
z
M 47.21875 32.234375 
Q 47.125 39.59375 43.09375 43.984375 
Q 39.0625 48.390625 32.421875 48.390625 
Q 24.90625 48.390625 20.390625 44.140625 
Q 15.875 39.890625 15.1875 32.171875 
z
" id="DejaVuSans-101"/>
      <path d="M 18.109375 8.203125 
L 18.109375 -20.796875 
L 9.078125 -20.796875 
L 9.078125 54.6875 
L 18.109375 54.6875 
L 18.109375 46.390625 
Q 20.953125 51.265625 25.265625 53.625 
Q 29.59375 56 35.59375 56 
Q 45.5625 56 51.78125 48.09375 
Q 58.015625 40.1875 58.015625 27.296875 
Q 58.015625 14.40625 51.78125 6.484375 
Q 45.5625 -1.421875 35.59375 -1.421875 
Q 29.59375 -1.421875 25.265625 0.953125 
Q 20.953125 3.328125 18.109375 8.203125 
z
M 48.6875 27.296875 
Q 48.6875 37.203125 44.609375 42.84375 
Q 40.53125 48.484375 33.40625 48.484375 
Q 26.265625 48.484375 22.1875 42.84375 
Q 18.109375 37.203125 18.109375 27.296875 
Q 18.109375 17.390625 22.1875 11.75 
Q 26.265625 6.109375 33.40625 6.109375 
Q 40.53125 6.109375 44.609375 11.75 
Q 48.6875 17.390625 48.6875 27.296875 
z
" id="DejaVuSans-112"/>
      <path d="M 30.609375 48.390625 
Q 23.390625 48.390625 19.1875 42.75 
Q 14.984375 37.109375 14.984375 27.296875 
Q 14.984375 17.484375 19.15625 11.84375 
Q 23.34375 6.203125 30.609375 6.203125 
Q 37.796875 6.203125 41.984375 11.859375 
Q 46.1875 17.53125 46.1875 27.296875 
Q 46.1875 37.015625 41.984375 42.703125 
Q 37.796875 48.390625 30.609375 48.390625 
z
M 30.609375 56 
Q 42.328125 56 49.015625 48.375 
Q 55.71875 40.765625 55.71875 27.296875 
Q 55.71875 13.875 49.015625 6.21875 
Q 42.328125 -1.421875 30.609375 -1.421875 
Q 18.84375 -1.421875 12.171875 6.21875 
Q 5.515625 13.875 5.515625 27.296875 
Q 5.515625 40.765625 12.171875 48.375 
Q 18.84375 56 30.609375 56 
z
" id="DejaVuSans-111"/>
      <path d="M 48.78125 52.59375 
L 48.78125 44.1875 
Q 44.96875 46.296875 41.140625 47.34375 
Q 37.3125 48.390625 33.40625 48.390625 
Q 24.65625 48.390625 19.8125 42.84375 
Q 14.984375 37.3125 14.984375 27.296875 
Q 14.984375 17.28125 19.8125 11.734375 
Q 24.65625 6.203125 33.40625 6.203125 
Q 37.3125 6.203125 41.140625 7.25 
Q 44.96875 8.296875 48.78125 10.40625 
L 48.78125 2.09375 
Q 45.015625 0.34375 40.984375 -0.53125 
Q 36.96875 -1.421875 32.421875 -1.421875 
Q 20.0625 -1.421875 12.78125 6.34375 
Q 5.515625 14.109375 5.515625 27.296875 
Q 5.515625 40.671875 12.859375 48.328125 
Q 20.21875 56 33.015625 56 
Q 37.15625 56 41.109375 55.140625 
Q 45.0625 54.296875 48.78125 52.59375 
z
" id="DejaVuSans-99"/>
      <path d="M 54.890625 33.015625 
L 54.890625 0 
L 45.90625 0 
L 45.90625 32.71875 
Q 45.90625 40.484375 42.875 44.328125 
Q 39.84375 48.1875 33.796875 48.1875 
Q 26.515625 48.1875 22.3125 43.546875 
Q 18.109375 38.921875 18.109375 30.90625 
L 18.109375 0 
L 9.078125 0 
L 9.078125 75.984375 
L 18.109375 75.984375 
L 18.109375 46.1875 
Q 21.34375 51.125 25.703125 53.5625 
Q 30.078125 56 35.796875 56 
Q 45.21875 56 50.046875 50.171875 
Q 54.890625 44.34375 54.890625 33.015625 
z
" id="DejaVuSans-104"/>
      <path d="M 44.28125 53.078125 
L 44.28125 44.578125 
Q 40.484375 46.53125 36.375 47.5 
Q 32.28125 48.484375 27.875 48.484375 
Q 21.1875 48.484375 17.84375 46.4375 
Q 14.5 44.390625 14.5 40.28125 
Q 14.5 37.15625 16.890625 35.375 
Q 19.28125 33.59375 26.515625 31.984375 
L 29.59375 31.296875 
Q 39.15625 29.25 43.1875 25.515625 
Q 47.21875 21.78125 47.21875 15.09375 
Q 47.21875 7.46875 41.1875 3.015625 
Q 35.15625 -1.421875 24.609375 -1.421875 
Q 20.21875 -1.421875 15.453125 -0.5625 
Q 10.6875 0.296875 5.421875 2 
L 5.421875 11.28125 
Q 10.40625 8.6875 15.234375 7.390625 
Q 20.0625 6.109375 24.8125 6.109375 
Q 31.15625 6.109375 34.5625 8.28125 
Q 37.984375 10.453125 37.984375 14.40625 
Q 37.984375 18.0625 35.515625 20.015625 
Q 33.0625 21.96875 24.703125 23.78125 
L 21.578125 24.515625 
Q 13.234375 26.265625 9.515625 29.90625 
Q 5.8125 33.546875 5.8125 39.890625 
Q 5.8125 47.609375 11.28125 51.796875 
Q 16.75 56 26.8125 56 
Q 31.78125 56 36.171875 55.265625 
Q 40.578125 54.546875 44.28125 53.078125 
z
" id="DejaVuSans-115"/>
     </defs>
     <g transform="translate(351.167188 469.276563)scale(0.1 -0.1)">
      <use xlink:href="#DejaVuSans-101"/>
      <use x="61.523438" xlink:href="#DejaVuSans-112"/>
      <use x="125" xlink:href="#DejaVuSans-111"/>
      <use x="186.181641" xlink:href="#DejaVuSans-99"/>
      <use x="241.162109" xlink:href="#DejaVuSans-104"/>
      <use x="304.541016" xlink:href="#DejaVuSans-115"/>
     </g>
    </g>
   </g>
   <g id="matplotlib.axis_2">
    <g id="ytick_1">
     <g id="line2d_19">
      <path clip-path="url(#pb935cc1631)" d="M 90 424.455652 
L 648 424.455652 
" style="fill:none;stroke:#b0b0b0;stroke-linecap:square;stroke-width:0.8;"/>
     </g>
     <g id="line2d_20">
      <defs>
       <path d="M 0 0 
L -3.5 0 
" id="m0c4c21b3d2" style="stroke:#000000;stroke-width:0.8;"/>
      </defs>
      <g>
       <use style="stroke:#000000;stroke-width:0.8;" x="90" xlink:href="#m0c4c21b3d2" y="424.455652"/>
      </g>
     </g>
     <g id="text_11">
      <!-- 0.0 -->
      <defs>
       <path d="M 10.6875 12.40625 
L 21 12.40625 
L 21 0 
L 10.6875 0 
z
" id="DejaVuSans-46"/>
      </defs>
      <g transform="translate(67.096875 428.254871)scale(0.1 -0.1)">
       <use xlink:href="#DejaVuSans-48"/>
       <use x="63.623047" xlink:href="#DejaVuSans-46"/>
       <use x="95.410156" xlink:href="#DejaVuSans-48"/>
      </g>
     </g>
    </g>
    <g id="ytick_2">
     <g id="line2d_21">
      <path clip-path="url(#pb935cc1631)" d="M 90 358.278261 
L 648 358.278261 
" style="fill:none;stroke:#b0b0b0;stroke-linecap:square;stroke-width:0.8;"/>
     </g>
     <g id="line2d_22">
      <g>
       <use style="stroke:#000000;stroke-width:0.8;" x="90" xlink:href="#m0c4c21b3d2" y="358.278261"/>
      </g>
     </g>
     <g id="text_12">
      <!-- 0.2 -->
      <g transform="translate(67.096875 362.07748)scale(0.1 -0.1)">
       <use xlink:href="#DejaVuSans-48"/>
       <use x="63.623047" xlink:href="#DejaVuSans-46"/>
       <use x="95.410156" xlink:href="#DejaVuSans-50"/>
      </g>
     </g>
    </g>
    <g id="ytick_3">
     <g id="line2d_23">
      <path clip-path="url(#pb935cc1631)" d="M 90 292.10087 
L 648 292.10087 
" style="fill:none;stroke:#b0b0b0;stroke-linecap:square;stroke-width:0.8;"/>
     </g>
     <g id="line2d_24">
      <g>
       <use style="stroke:#000000;stroke-width:0.8;" x="90" xlink:href="#m0c4c21b3d2" y="292.10087"/>
      </g>
     </g>
     <g id="text_13">
      <!-- 0.4 -->
      <defs>
       <path d="M 37.796875 64.3125 
L 12.890625 25.390625 
L 37.796875 25.390625 
z
M 35.203125 72.90625 
L 47.609375 72.90625 
L 47.609375 25.390625 
L 58.015625 25.390625 
L 58.015625 17.1875 
L 47.609375 17.1875 
L 47.609375 0 
L 37.796875 0 
L 37.796875 17.1875 
L 4.890625 17.1875 
L 4.890625 26.703125 
z
" id="DejaVuSans-52"/>
      </defs>
      <g transform="translate(67.096875 295.900088)scale(0.1 -0.1)">
       <use xlink:href="#DejaVuSans-48"/>
       <use x="63.623047" xlink:href="#DejaVuSans-46"/>
       <use x="95.410156" xlink:href="#DejaVuSans-52"/>
      </g>
     </g>
    </g>
    <g id="ytick_4">
     <g id="line2d_25">
      <path clip-path="url(#pb935cc1631)" d="M 90 225.923478 
L 648 225.923478 
" style="fill:none;stroke:#b0b0b0;stroke-linecap:square;stroke-width:0.8;"/>
     </g>
     <g id="line2d_26">
      <g>
       <use style="stroke:#000000;stroke-width:0.8;" x="90" xlink:href="#m0c4c21b3d2" y="225.923478"/>
      </g>
     </g>
     <g id="text_14">
      <!-- 0.6 -->
      <defs>
       <path d="M 33.015625 40.375 
Q 26.375 40.375 22.484375 35.828125 
Q 18.609375 31.296875 18.609375 23.390625 
Q 18.609375 15.53125 22.484375 10.953125 
Q 26.375 6.390625 33.015625 6.390625 
Q 39.65625 6.390625 43.53125 10.953125 
Q 47.40625 15.53125 47.40625 23.390625 
Q 47.40625 31.296875 43.53125 35.828125 
Q 39.65625 40.375 33.015625 40.375 
z
M 52.59375 71.296875 
L 52.59375 62.3125 
Q 48.875 64.0625 45.09375 64.984375 
Q 41.3125 65.921875 37.59375 65.921875 
Q 27.828125 65.921875 22.671875 59.328125 
Q 17.53125 52.734375 16.796875 39.40625 
Q 19.671875 43.65625 24.015625 45.921875 
Q 28.375 48.1875 33.59375 48.1875 
Q 44.578125 48.1875 50.953125 41.515625 
Q 57.328125 34.859375 57.328125 23.390625 
Q 57.328125 12.15625 50.6875 5.359375 
Q 44.046875 -1.421875 33.015625 -1.421875 
Q 20.359375 -1.421875 13.671875 8.265625 
Q 6.984375 17.96875 6.984375 36.375 
Q 6.984375 53.65625 15.1875 63.9375 
Q 23.390625 74.21875 37.203125 74.21875 
Q 40.921875 74.21875 44.703125 73.484375 
Q 48.484375 72.75 52.59375 71.296875 
z
" id="DejaVuSans-54"/>
      </defs>
      <g transform="translate(67.096875 229.722697)scale(0.1 -0.1)">
       <use xlink:href="#DejaVuSans-48"/>
       <use x="63.623047" xlink:href="#DejaVuSans-46"/>
       <use x="95.410156" xlink:href="#DejaVuSans-54"/>
      </g>
     </g>
    </g>
    <g id="ytick_5">
     <g id="line2d_27">
      <path clip-path="url(#pb935cc1631)" d="M 90 159.746087 
L 648 159.746087 
" style="fill:none;stroke:#b0b0b0;stroke-linecap:square;stroke-width:0.8;"/>
     </g>
     <g id="line2d_28">
      <g>
       <use style="stroke:#000000;stroke-width:0.8;" x="90" xlink:href="#m0c4c21b3d2" y="159.746087"/>
      </g>
     </g>
     <g id="text_15">
      <!-- 0.8 -->
      <defs>
       <path d="M 31.78125 34.625 
Q 24.75 34.625 20.71875 30.859375 
Q 16.703125 27.09375 16.703125 20.515625 
Q 16.703125 13.921875 20.71875 10.15625 
Q 24.75 6.390625 31.78125 6.390625 
Q 38.8125 6.390625 42.859375 10.171875 
Q 46.921875 13.96875 46.921875 20.515625 
Q 46.921875 27.09375 42.890625 30.859375 
Q 38.875 34.625 31.78125 34.625 
z
M 21.921875 38.8125 
Q 15.578125 40.375 12.03125 44.71875 
Q 8.5 49.078125 8.5 55.328125 
Q 8.5 64.0625 14.71875 69.140625 
Q 20.953125 74.21875 31.78125 74.21875 
Q 42.671875 74.21875 48.875 69.140625 
Q 55.078125 64.0625 55.078125 55.328125 
Q 55.078125 49.078125 51.53125 44.71875 
Q 48 40.375 41.703125 38.8125 
Q 48.828125 37.15625 52.796875 32.3125 
Q 56.78125 27.484375 56.78125 20.515625 
Q 56.78125 9.90625 50.3125 4.234375 
Q 43.84375 -1.421875 31.78125 -1.421875 
Q 19.734375 -1.421875 13.25 4.234375 
Q 6.78125 9.90625 6.78125 20.515625 
Q 6.78125 27.484375 10.78125 32.3125 
Q 14.796875 37.15625 21.921875 38.8125 
z
M 18.3125 54.390625 
Q 18.3125 48.734375 21.84375 45.5625 
Q 25.390625 42.390625 31.78125 42.390625 
Q 38.140625 42.390625 41.71875 45.5625 
Q 45.3125 48.734375 45.3125 54.390625 
Q 45.3125 60.0625 41.71875 63.234375 
Q 38.140625 66.40625 31.78125 66.40625 
Q 25.390625 66.40625 21.84375 63.234375 
Q 18.3125 60.0625 18.3125 54.390625 
z
" id="DejaVuSans-56"/>
      </defs>
      <g transform="translate(67.096875 163.545306)scale(0.1 -0.1)">
       <use xlink:href="#DejaVuSans-48"/>
       <use x="63.623047" xlink:href="#DejaVuSans-46"/>
       <use x="95.410156" xlink:href="#DejaVuSans-56"/>
      </g>
     </g>
    </g>
    <g id="ytick_6">
     <g id="line2d_29">
      <path clip-path="url(#pb935cc1631)" d="M 90 93.568696 
L 648 93.568696 
" style="fill:none;stroke:#b0b0b0;stroke-linecap:square;stroke-width:0.8;"/>
     </g>
     <g id="line2d_30">
      <g>
       <use style="stroke:#000000;stroke-width:0.8;" x="90" xlink:href="#m0c4c21b3d2" y="93.568696"/>
      </g>
     </g>
     <g id="text_16">
      <!-- 1.0 -->
      <g transform="translate(67.096875 97.367914)scale(0.1 -0.1)">
       <use xlink:href="#DejaVuSans-49"/>
       <use x="63.623047" xlink:href="#DejaVuSans-46"/>
       <use x="95.410156" xlink:href="#DejaVuSans-48"/>
      </g>
     </g>
    </g>
    <g id="text_17">
     <!-- success-rate -->
     <defs>
      <path d="M 8.5 21.578125 
L 8.5 54.6875 
L 17.484375 54.6875 
L 17.484375 21.921875 
Q 17.484375 14.15625 20.5 10.265625 
Q 23.53125 6.390625 29.59375 6.390625 
Q 36.859375 6.390625 41.078125 11.03125 
Q 45.3125 15.671875 45.3125 23.6875 
L 45.3125 54.6875 
L 54.296875 54.6875 
L 54.296875 0 
L 45.3125 0 
L 45.3125 8.40625 
Q 42.046875 3.421875 37.71875 1 
Q 33.40625 -1.421875 27.6875 -1.421875 
Q 18.265625 -1.421875 13.375 4.4375 
Q 8.5 10.296875 8.5 21.578125 
z
M 31.109375 56 
z
" id="DejaVuSans-117"/>
      <path d="M 4.890625 31.390625 
L 31.203125 31.390625 
L 31.203125 23.390625 
L 4.890625 23.390625 
z
" id="DejaVuSans-45"/>
      <path d="M 41.109375 46.296875 
Q 39.59375 47.171875 37.8125 47.578125 
Q 36.03125 48 33.890625 48 
Q 26.265625 48 22.1875 43.046875 
Q 18.109375 38.09375 18.109375 28.8125 
L 18.109375 0 
L 9.078125 0 
L 9.078125 54.6875 
L 18.109375 54.6875 
L 18.109375 46.1875 
Q 20.953125 51.171875 25.484375 53.578125 
Q 30.03125 56 36.53125 56 
Q 37.453125 56 38.578125 55.875 
Q 39.703125 55.765625 41.0625 55.515625 
z
" id="DejaVuSans-114"/>
      <path d="M 34.28125 27.484375 
Q 23.390625 27.484375 19.1875 25 
Q 14.984375 22.515625 14.984375 16.5 
Q 14.984375 11.71875 18.140625 8.90625 
Q 21.296875 6.109375 26.703125 6.109375 
Q 34.1875 6.109375 38.703125 11.40625 
Q 43.21875 16.703125 43.21875 25.484375 
L 43.21875 27.484375 
z
M 52.203125 31.203125 
L 52.203125 0 
L 43.21875 0 
L 43.21875 8.296875 
Q 40.140625 3.328125 35.546875 0.953125 
Q 30.953125 -1.421875 24.3125 -1.421875 
Q 15.921875 -1.421875 10.953125 3.296875 
Q 6 8.015625 6 15.921875 
Q 6 25.140625 12.171875 29.828125 
Q 18.359375 34.515625 30.609375 34.515625 
L 43.21875 34.515625 
L 43.21875 35.40625 
Q 43.21875 41.609375 39.140625 45 
Q 35.0625 48.390625 27.6875 48.390625 
Q 23 48.390625 18.546875 47.265625 
Q 14.109375 46.140625 10.015625 43.890625 
L 10.015625 52.203125 
Q 14.9375 54.109375 19.578125 55.046875 
Q 24.21875 56 28.609375 56 
Q 40.484375 56 46.34375 49.84375 
Q 52.203125 43.703125 52.203125 31.203125 
z
" id="DejaVuSans-97"/>
      <path d="M 18.3125 70.21875 
L 18.3125 54.6875 
L 36.8125 54.6875 
L 36.8125 47.703125 
L 18.3125 47.703125 
L 18.3125 18.015625 
Q 18.3125 11.328125 20.140625 9.421875 
Q 21.96875 7.515625 27.59375 7.515625 
L 36.8125 7.515625 
L 36.8125 0 
L 27.59375 0 
Q 17.1875 0 13.234375 3.875 
Q 9.28125 7.765625 9.28125 18.015625 
L 9.28125 47.703125 
L 2.6875 47.703125 
L 2.6875 54.6875 
L 9.28125 54.6875 
L 9.28125 70.21875 
z
" id="DejaVuSans-116"/>
     </defs>
     <g transform="translate(61.017187 282.257969)rotate(-90)scale(0.1 -0.1)">
      <use xlink:href="#DejaVuSans-115"/>
      <use x="52.099609" xlink:href="#DejaVuSans-117"/>
      <use x="115.478516" xlink:href="#DejaVuSans-99"/>
      <use x="170.458984" xlink:href="#DejaVuSans-99"/>
      <use x="225.439453" xlink:href="#DejaVuSans-101"/>
      <use x="286.962891" xlink:href="#DejaVuSans-115"/>
      <use x="339.0625" xlink:href="#DejaVuSans-115"/>
      <use x="391.162109" xlink:href="#DejaVuSans-45"/>
      <use x="427.246094" xlink:href="#DejaVuSans-114"/>
      <use x="468.359375" xlink:href="#DejaVuSans-97"/>
      <use x="529.638672" xlink:href="#DejaVuSans-116"/>
      <use x="568.847656" xlink:href="#DejaVuSans-101"/>
     </g>
    </g>
   </g>
   <g id="line2d_31">
    <path clip-path="url(#pb935cc1631)" d="M 115.363636 424.455652 
L 117.912746 421.008913 
L 120.461855 423.076957 
L 123.010964 422.387609 
L 125.560073 423.076957 
L 128.109182 424.455652 
L 130.658291 422.387609 
L 133.207401 422.387609 
L 135.75651 419.630217 
L 138.305619 423.076957 
L 140.854728 423.076957 
L 143.403837 421.698261 
L 145.952947 423.766304 
L 148.502056 422.387609 
L 151.051165 414.115435 
L 153.600274 411.358043 
L 156.149383 405.843261 
L 158.698492 405.153913 
L 161.247602 393.435 
L 163.796711 375.511956 
L 166.34582 391.366956 
L 168.894929 385.852174 
L 171.444038 363.793042 
L 173.993148 378.269347 
L 176.542257 381.716086 
L 179.091366 370.686523 
L 181.640475 361.725 
L 184.189584 366.550436 
L 186.738693 343.801955 
L 189.287803 339.665868 
L 191.836912 325.189565 
L 194.386021 339.665868 
L 196.93513 331.393697 
L 199.484239 341.044564 
L 202.033349 336.90848 
L 204.582458 317.606739 
L 207.131567 323.81087 
L 209.680676 332.77239 
L 212.229785 312.781306 
L 214.778894 298.304999 
L 217.328004 330.704345 
L 219.877113 308.645219 
L 222.426222 301.062391 
L 224.975331 319.674782 
L 227.52444 308.645218 
L 230.07355 307.955866 
L 232.622659 290.032826 
L 235.171768 317.606739 
L 240.269986 301.062391 
L 242.819095 293.479565 
L 245.368205 306.577175 
L 247.917314 291.411524 
L 250.466423 294.168912 
L 253.015532 303.130435 
L 255.564641 292.790218 
L 258.113751 252.118696 
L 260.66286 287.275434 
L 263.211969 287.275434 
L 265.761078 310.713261 
L 268.310187 283.828695 
L 270.859296 276.245873 
L 273.408406 272.109783 
L 275.957515 262.45891 
L 278.506624 279.003262 
L 281.055733 275.556522 
L 283.604842 285.896737 
L 286.153952 263.14826 
L 288.703061 281.071303 
L 291.25217 261.080212 
L 293.801279 275.556519 
L 296.350388 261.769563 
L 298.899497 262.458916 
L 301.448607 273.488478 
L 303.997716 247.293262 
L 306.546825 247.982606 
L 309.095934 270.041738 
L 311.645043 258.322827 
L 314.194153 263.14826 
L 316.743262 249.361307 
L 319.292371 254.186737 
L 321.84148 257.633473 
L 324.390589 273.488478 
L 326.939698 247.982609 
L 329.488808 251.429345 
L 332.037917 272.10978 
L 334.587026 269.352391 
L 337.136135 250.050651 
L 339.685244 243.84652 
L 342.234354 247.293262 
L 344.783463 233.506306 
L 347.332572 239.02109 
L 349.881681 232.816955 
L 352.43079 238.331739 
L 354.979899 240.399784 
L 357.529009 227.991528 
L 360.078118 266.595003 
L 362.627227 242.467829 
L 365.176336 221.787387 
L 367.725445 234.195653 
L 370.274555 250.739998 
L 372.823664 245.914565 
L 375.372773 230.74891 
L 377.921882 247.293262 
L 380.470991 254.18674 
L 383.020101 260.390868 
L 385.56921 229.370223 
L 388.118319 245.225217 
L 390.667428 234.195656 
L 393.216537 243.846526 
L 398.314756 242.467829 
L 400.863865 252.118696 
L 403.412974 244.535867 
L 405.962083 256.254782 
L 408.511192 261.769569 
L 411.060302 228.680866 
L 413.609411 218.340648 
L 416.15852 237.642395 
L 418.707629 226.612827 
L 421.256738 255.565435 
L 423.805847 235.574344 
L 426.354957 257.63348 
L 428.904066 238.331733 
L 431.453175 252.80804 
L 434.002284 233.506306 
L 436.551393 247.293259 
L 439.100503 234.885 
L 441.649612 234.885 
L 444.198721 223.855432 
L 446.74783 239.02109 
L 449.296939 235.574354 
L 451.846048 217.651304 
L 454.395158 241.778472 
L 456.944267 227.991522 
L 459.493376 227.302178 
L 462.042485 241.778475 
L 464.591594 235.574344 
L 467.140704 222.476738 
L 469.689813 216.96196 
L 472.238922 219.029999 
L 474.788031 216.96196 
L 477.33714 241.089128 
L 479.886249 263.837614 
L 482.435359 227.991528 
L 487.533577 223.855432 
L 490.082686 226.612827 
L 492.631795 250.739998 
L 495.180905 243.157173 
L 497.730014 232.127605 
L 500.279123 233.506306 
L 502.828232 230.748917 
L 505.377341 212.13652 
L 507.92645 234.885 
L 510.47556 228.680872 
L 513.024669 228.680872 
L 515.573778 221.787394 
L 518.122887 219.029999 
L 520.671996 229.370223 
L 523.221106 227.302171 
L 525.770215 236.953038 
L 528.319324 219.029999 
L 530.868433 214.893909 
L 533.417542 205.243042 
L 535.966651 210.068476 
L 538.515761 232.127605 
L 541.06487 210.068476 
L 543.613979 231.438258 
L 546.163088 237.642392 
L 548.712197 216.961954 
L 551.261307 214.204565 
L 553.810416 224.544783 
L 556.359525 256.254785 
L 558.908634 246.603908 
L 561.457743 254.18674 
L 564.006852 240.399784 
L 566.555962 243.157179 
L 569.105071 214.204565 
L 571.65418 225.923477 
L 574.203289 217.651304 
L 576.752398 272.79913 
L 579.301508 212.136527 
L 581.850617 222.476738 
L 584.399726 219.029999 
L 586.948835 199.038914 
L 589.497944 228.680872 
L 592.047053 243.846523 
L 594.596163 232.816962 
L 597.145272 208.689788 
L 599.694381 224.544783 
L 602.24349 233.506299 
L 604.792599 213.515221 
L 607.341709 211.447177 
L 609.890818 229.370216 
L 612.439927 214.204565 
L 614.989036 199.728258 
L 617.538145 231.438261 
L 620.087254 236.953045 
L 622.636364 199.728258 
L 622.636364 199.728258 
" style="fill:none;stroke:#1f77b4;stroke-linecap:square;stroke-width:1.5;"/>
   </g>
   <g id="line2d_32">
    <path clip-path="url(#pb935cc1631)" d="M 115.363636 424.455652 
L 117.912746 420.319565 
L 120.461855 424.455652 
L 123.010964 422.387609 
L 125.560073 422.387609 
L 128.109182 424.455652 
L 130.658291 422.387609 
L 133.207401 424.455652 
L 135.75651 422.387609 
L 138.305619 424.455652 
L 148.502056 424.455652 
L 151.051165 422.387609 
L 153.600274 424.455652 
L 171.444038 424.455652 
L 173.993148 422.387609 
L 176.542257 424.455652 
L 179.091366 422.387609 
L 181.640475 422.387609 
L 184.189584 420.319565 
L 186.738693 424.455652 
L 191.836912 420.319565 
L 194.386021 424.455652 
L 202.033349 424.455652 
L 204.582458 422.387609 
L 207.131567 422.387609 
L 209.680676 424.455652 
L 212.229785 422.387609 
L 214.778894 424.455652 
L 217.328004 424.455652 
L 219.877113 420.319565 
L 222.426222 424.455652 
L 224.975331 420.319565 
L 227.52444 422.387609 
L 230.07355 422.387609 
L 232.622659 424.455652 
L 235.171768 424.455652 
L 237.720877 422.387609 
L 240.269986 422.387609 
L 242.819095 424.455652 
L 245.368205 420.319565 
L 250.466423 424.455652 
L 253.015532 422.387609 
L 260.66286 422.387609 
L 263.211969 424.455652 
L 275.957515 424.455652 
L 278.506624 422.387609 
L 281.055733 422.387609 
L 283.604842 424.455652 
L 306.546825 424.455652 
L 309.095934 422.387609 
L 311.645043 424.455652 
L 314.194153 424.455652 
L 319.292371 420.319565 
L 321.84148 420.319565 
L 326.939698 424.455652 
L 329.488808 422.387609 
L 332.037917 424.455652 
L 334.587026 424.455652 
L 337.136135 422.387609 
L 347.332572 422.387609 
L 349.881681 424.455652 
L 352.43079 418.251521 
L 354.979899 424.455652 
L 360.078118 424.455652 
L 362.627227 422.387609 
L 365.176336 418.251521 
L 367.725445 424.455652 
L 370.274555 424.455652 
L 372.823664 422.387609 
L 375.372773 424.455652 
L 377.921882 424.455652 
L 380.470991 420.319565 
L 383.020101 424.455652 
L 385.56921 422.387609 
L 388.118319 418.251521 
L 390.667428 422.387609 
L 393.216537 424.455652 
L 395.765646 418.251521 
L 398.314756 416.183478 
L 400.863865 422.387609 
L 403.412974 420.319565 
L 405.962083 424.455652 
L 413.609411 418.251521 
L 416.15852 422.387609 
L 418.707629 422.387609 
L 423.805847 418.251521 
L 426.354957 420.319565 
L 428.904066 416.183478 
L 431.453175 418.251521 
L 436.551393 418.251521 
L 439.100503 422.387609 
L 441.649612 414.115435 
L 444.198721 420.319565 
L 446.74783 416.183478 
L 451.846048 424.455652 
L 456.944267 416.183478 
L 459.493376 420.319565 
L 464.591594 424.455652 
L 467.140704 420.319565 
L 472.238922 424.455652 
L 474.788031 422.387609 
L 477.33714 418.251521 
L 479.886249 424.455652 
L 482.435359 418.251521 
L 484.984468 418.251521 
L 487.533577 416.183478 
L 490.082686 416.183478 
L 492.631795 418.251521 
L 495.180905 422.387609 
L 497.730014 414.115435 
L 500.279123 412.047391 
L 502.828232 420.319565 
L 507.92645 412.047391 
L 510.47556 418.251521 
L 515.573778 414.115435 
L 518.122887 418.251521 
L 523.221106 418.251521 
L 525.770215 416.183478 
L 528.319324 420.319565 
L 530.868433 418.251521 
L 533.417542 412.047391 
L 535.966651 416.183478 
L 538.515761 414.115435 
L 541.06487 414.115435 
L 543.613979 416.183478 
L 546.163088 422.387609 
L 548.712197 412.047391 
L 551.261307 416.183478 
L 553.810416 407.911304 
L 556.359525 414.115435 
L 558.908634 416.183478 
L 561.457743 409.979348 
L 564.006852 414.115435 
L 566.555962 405.843261 
L 569.105071 412.047391 
L 571.65418 409.979348 
L 574.203289 405.843261 
L 576.752398 409.979348 
L 579.301508 401.707173 
L 581.850617 412.047391 
L 584.399726 412.047391 
L 586.948835 403.775217 
L 589.497944 416.183478 
L 592.047053 414.115435 
L 594.596163 405.843261 
L 597.145272 412.047391 
L 599.694381 403.775217 
L 602.24349 403.775217 
L 604.792599 407.911304 
L 607.341709 414.115435 
L 609.890818 397.571088 
L 612.439927 389.298912 
L 614.989036 397.571088 
L 617.538145 403.775217 
L 620.087254 399.639129 
L 622.636364 409.979348 
L 622.636364 409.979348 
" style="fill:none;stroke:#ff7f0e;stroke-linecap:square;stroke-width:1.5;"/>
   </g>
   <g id="patch_3">
    <path d="M 90 441 
L 90 60.48 
" style="fill:none;stroke:#000000;stroke-linecap:square;stroke-linejoin:miter;stroke-width:0.8;"/>
   </g>
   <g id="patch_4">
    <path d="M 648 441 
L 648 60.48 
" style="fill:none;stroke:#000000;stroke-linecap:square;stroke-linejoin:miter;stroke-width:0.8;"/>
   </g>
   <g id="patch_5">
    <path d="M 90 441 
L 648 441 
" style="fill:none;stroke:#000000;stroke-linecap:square;stroke-linejoin:miter;stroke-width:0.8;"/>
   </g>
   <g id="patch_6">
    <path d="M 90 60.48 
L 648 60.48 
" style="fill:none;stroke:#000000;stroke-linecap:square;stroke-linejoin:miter;stroke-width:0.8;"/>
   </g>
   <g id="text_18">
    <!-- FetchSlide -->
    <defs>
     <path d="M 9.8125 72.90625 
L 51.703125 72.90625 
L 51.703125 64.59375 
L 19.671875 64.59375 
L 19.671875 43.109375 
L 48.578125 43.109375 
L 48.578125 34.8125 
L 19.671875 34.8125 
L 19.671875 0 
L 9.8125 0 
z
" id="DejaVuSans-70"/>
     <path d="M 53.515625 70.515625 
L 53.515625 60.890625 
Q 47.90625 63.578125 42.921875 64.890625 
Q 37.9375 66.21875 33.296875 66.21875 
Q 25.25 66.21875 20.875 63.09375 
Q 16.5 59.96875 16.5 54.203125 
Q 16.5 49.359375 19.40625 46.890625 
Q 22.3125 44.4375 30.421875 42.921875 
L 36.375 41.703125 
Q 47.40625 39.59375 52.65625 34.296875 
Q 57.90625 29 57.90625 20.125 
Q 57.90625 9.515625 50.796875 4.046875 
Q 43.703125 -1.421875 29.984375 -1.421875 
Q 24.8125 -1.421875 18.96875 -0.25 
Q 13.140625 0.921875 6.890625 3.21875 
L 6.890625 13.375 
Q 12.890625 10.015625 18.65625 8.296875 
Q 24.421875 6.59375 29.984375 6.59375 
Q 38.421875 6.59375 43.015625 9.90625 
Q 47.609375 13.234375 47.609375 19.390625 
Q 47.609375 24.75 44.3125 27.78125 
Q 41.015625 30.8125 33.5 32.328125 
L 27.484375 33.5 
Q 16.453125 35.6875 11.515625 40.375 
Q 6.59375 45.0625 6.59375 53.421875 
Q 6.59375 63.09375 13.40625 68.65625 
Q 20.21875 74.21875 32.171875 74.21875 
Q 37.3125 74.21875 42.625 73.28125 
Q 47.953125 72.359375 53.515625 70.515625 
z
" id="DejaVuSans-83"/>
     <path d="M 9.421875 75.984375 
L 18.40625 75.984375 
L 18.40625 0 
L 9.421875 0 
z
" id="DejaVuSans-108"/>
     <path d="M 9.421875 54.6875 
L 18.40625 54.6875 
L 18.40625 0 
L 9.421875 0 
z
M 9.421875 75.984375 
L 18.40625 75.984375 
L 18.40625 64.59375 
L 9.421875 64.59375 
z
" id="DejaVuSans-105"/>
     <path d="M 45.40625 46.390625 
L 45.40625 75.984375 
L 54.390625 75.984375 
L 54.390625 0 
L 45.40625 0 
L 45.40625 8.203125 
Q 42.578125 3.328125 38.25 0.953125 
Q 33.9375 -1.421875 27.875 -1.421875 
Q 17.96875 -1.421875 11.734375 6.484375 
Q 5.515625 14.40625 5.515625 27.296875 
Q 5.515625 40.1875 11.734375 48.09375 
Q 17.96875 56 27.875 56 
Q 33.9375 56 38.25 53.625 
Q 42.578125 51.265625 45.40625 46.390625 
z
M 14.796875 27.296875 
Q 14.796875 17.390625 18.875 11.75 
Q 22.953125 6.109375 30.078125 6.109375 
Q 37.203125 6.109375 41.296875 11.75 
Q 45.40625 17.390625 45.40625 27.296875 
Q 45.40625 37.203125 41.296875 42.84375 
Q 37.203125 48.484375 30.078125 48.484375 
Q 22.953125 48.484375 18.875 42.84375 
Q 14.796875 37.203125 14.796875 27.296875 
z
" id="DejaVuSans-100"/>
    </defs>
    <g transform="translate(338.089688 54.48)scale(0.12 -0.12)">
     <use xlink:href="#DejaVuSans-70"/>
     <use x="52.019531" xlink:href="#DejaVuSans-101"/>
     <use x="113.542969" xlink:href="#DejaVuSans-116"/>
     <use x="152.751953" xlink:href="#DejaVuSans-99"/>
     <use x="207.732422" xlink:href="#DejaVuSans-104"/>
     <use x="271.111328" xlink:href="#DejaVuSans-83"/>
     <use x="334.587891" xlink:href="#DejaVuSans-108"/>
     <use x="362.371094" xlink:href="#DejaVuSans-105"/>
     <use x="390.154297" xlink:href="#DejaVuSans-100"/>
     <use x="453.630859" xlink:href="#DejaVuSans-101"/>
    </g>
   </g>
   <g id="legend_1">
    <g id="patch_7">
     <path d="M 538.4 136.584 
L 628.745313 136.584 
Q 630.745313 136.584 630.745313 134.584 
L 630.745313 106.22775 
Q 630.745313 104.22775 628.745313 104.22775 
L 538.4 104.22775 
Q 536.4 104.22775 536.4 106.22775 
L 536.4 134.584 
Q 536.4 136.584 538.4 136.584 
z
" style="fill:#ffffff;opacity:0.8;stroke:#cccccc;stroke-linejoin:miter;"/>
    </g>
    <g id="line2d_33">
     <path d="M 540.4 112.326188 
L 560.4 112.326188 
" style="fill:none;stroke:#1f77b4;stroke-linecap:square;stroke-width:1.5;"/>
    </g>
    <g id="line2d_34"/>
    <g id="text_19">
     <!-- DDPG+HER -->
     <defs>
      <path d="M 19.671875 64.796875 
L 19.671875 8.109375 
L 31.59375 8.109375 
Q 46.6875 8.109375 53.6875 14.9375 
Q 60.6875 21.78125 60.6875 36.53125 
Q 60.6875 51.171875 53.6875 57.984375 
Q 46.6875 64.796875 31.59375 64.796875 
z
M 9.8125 72.90625 
L 30.078125 72.90625 
Q 51.265625 72.90625 61.171875 64.09375 
Q 71.09375 55.28125 71.09375 36.53125 
Q 71.09375 17.671875 61.125 8.828125 
Q 51.171875 0 30.078125 0 
L 9.8125 0 
z
" id="DejaVuSans-68"/>
      <path d="M 19.671875 64.796875 
L 19.671875 37.40625 
L 32.078125 37.40625 
Q 38.96875 37.40625 42.71875 40.96875 
Q 46.484375 44.53125 46.484375 51.125 
Q 46.484375 57.671875 42.71875 61.234375 
Q 38.96875 64.796875 32.078125 64.796875 
z
M 9.8125 72.90625 
L 32.078125 72.90625 
Q 44.34375 72.90625 50.609375 67.359375 
Q 56.890625 61.8125 56.890625 51.125 
Q 56.890625 40.328125 50.609375 34.8125 
Q 44.34375 29.296875 32.078125 29.296875 
L 19.671875 29.296875 
L 19.671875 0 
L 9.8125 0 
z
" id="DejaVuSans-80"/>
      <path d="M 59.515625 10.40625 
L 59.515625 29.984375 
L 43.40625 29.984375 
L 43.40625 38.09375 
L 69.28125 38.09375 
L 69.28125 6.78125 
Q 63.578125 2.734375 56.6875 0.65625 
Q 49.8125 -1.421875 42 -1.421875 
Q 24.90625 -1.421875 15.25 8.5625 
Q 5.609375 18.5625 5.609375 36.375 
Q 5.609375 54.25 15.25 64.234375 
Q 24.90625 74.21875 42 74.21875 
Q 49.125 74.21875 55.546875 72.453125 
Q 61.96875 70.703125 67.390625 67.28125 
L 67.390625 56.78125 
Q 61.921875 61.421875 55.765625 63.765625 
Q 49.609375 66.109375 42.828125 66.109375 
Q 29.4375 66.109375 22.71875 58.640625 
Q 16.015625 51.171875 16.015625 36.375 
Q 16.015625 21.625 22.71875 14.15625 
Q 29.4375 6.6875 42.828125 6.6875 
Q 48.046875 6.6875 52.140625 7.59375 
Q 56.25 8.5 59.515625 10.40625 
z
" id="DejaVuSans-71"/>
      <path d="M 46 62.703125 
L 46 35.5 
L 73.1875 35.5 
L 73.1875 27.203125 
L 46 27.203125 
L 46 0 
L 37.796875 0 
L 37.796875 27.203125 
L 10.59375 27.203125 
L 10.59375 35.5 
L 37.796875 35.5 
L 37.796875 62.703125 
z
" id="DejaVuSans-43"/>
      <path d="M 9.8125 72.90625 
L 19.671875 72.90625 
L 19.671875 43.015625 
L 55.515625 43.015625 
L 55.515625 72.90625 
L 65.375 72.90625 
L 65.375 0 
L 55.515625 0 
L 55.515625 34.71875 
L 19.671875 34.71875 
L 19.671875 0 
L 9.8125 0 
z
" id="DejaVuSans-72"/>
      <path d="M 9.8125 72.90625 
L 55.90625 72.90625 
L 55.90625 64.59375 
L 19.671875 64.59375 
L 19.671875 43.015625 
L 54.390625 43.015625 
L 54.390625 34.71875 
L 19.671875 34.71875 
L 19.671875 8.296875 
L 56.78125 8.296875 
L 56.78125 0 
L 9.8125 0 
z
" id="DejaVuSans-69"/>
      <path d="M 44.390625 34.1875 
Q 47.5625 33.109375 50.5625 29.59375 
Q 53.5625 26.078125 56.59375 19.921875 
L 66.609375 0 
L 56 0 
L 46.6875 18.703125 
Q 43.0625 26.03125 39.671875 28.421875 
Q 36.28125 30.8125 30.421875 30.8125 
L 19.671875 30.8125 
L 19.671875 0 
L 9.8125 0 
L 9.8125 72.90625 
L 32.078125 72.90625 
Q 44.578125 72.90625 50.734375 67.671875 
Q 56.890625 62.453125 56.890625 51.90625 
Q 56.890625 45.015625 53.6875 40.46875 
Q 50.484375 35.9375 44.390625 34.1875 
z
M 19.671875 64.796875 
L 19.671875 38.921875 
L 32.078125 38.921875 
Q 39.203125 38.921875 42.84375 42.21875 
Q 46.484375 45.515625 46.484375 51.90625 
Q 46.484375 58.296875 42.84375 61.546875 
Q 39.203125 64.796875 32.078125 64.796875 
z
" id="DejaVuSans-82"/>
     </defs>
     <g transform="translate(568.4 115.826188)scale(0.1 -0.1)">
      <use xlink:href="#DejaVuSans-68"/>
      <use x="77.001953" xlink:href="#DejaVuSans-68"/>
      <use x="154.003906" xlink:href="#DejaVuSans-80"/>
      <use x="214.306641" xlink:href="#DejaVuSans-71"/>
      <use x="291.796875" xlink:href="#DejaVuSans-43"/>
      <use x="375.585938" xlink:href="#DejaVuSans-72"/>
      <use x="450.78125" xlink:href="#DejaVuSans-69"/>
      <use x="513.964844" xlink:href="#DejaVuSans-82"/>
     </g>
    </g>
    <g id="line2d_35">
     <path d="M 540.4 127.004313 
L 560.4 127.004313 
" style="fill:none;stroke:#ff7f0e;stroke-linecap:square;stroke-width:1.5;"/>
    </g>
    <g id="line2d_36"/>
    <g id="text_20">
     <!-- DDPG -->
     <g transform="translate(568.4 130.504313)scale(0.1 -0.1)">
      <use xlink:href="#DejaVuSans-68"/>
      <use x="77.001953" xlink:href="#DejaVuSans-68"/>
      <use x="154.003906" xlink:href="#DejaVuSans-80"/>
      <use x="214.306641" xlink:href="#DejaVuSans-71"/>
     </g>
    </g>
   </g>
  </g>
 </g>
 <defs>
  <clipPath id="pb935cc1631">
   <rect height="380.52" width="558" x="90" y="60.48"/>
  </clipPath>
 </defs>
</svg>
