<?xml version="1.0" encoding="utf-8" standalone="no"?>
<!DOCTYPE svg PUBLIC "-//W3C//DTD SVG 1.1//EN"
  "http://www.w3.org/Graphics/SVG/1.1/DTD/svg11.dtd">
<!-- Created with matplotlib (https://matplotlib.org/) -->
<svg height="504pt" version="1.1" viewBox="0 0 720 504" width="720pt" xmlns="http://www.w3.org/2000/svg" xmlns:xlink="http://www.w3.org/1999/xlink">
 <defs>
  <style type="text/css">
*{stroke-linecap:butt;stroke-linejoin:round;}
  </style>
 </defs>
 <g id="figure_1">
  <g id="patch_1">
   <path d="M 0 504 
L 720 504 
L 720 0 
L 0 0 
z
" style="fill:#ffffff;"/>
  </g>
  <g id="axes_1">
   <g id="patch_2">
    <path d="M 90 441 
L 648 441 
L 648 60.48 
L 90 60.48 
z
" style="fill:#ffffff;"/>
   </g>
   <g id="PolyCollection_1">
    <path clip-path="url(#p3906a33f6c)" d="M 115.363636 403.48968 
L 115.363636 405.439451 
L 117.912746 414.400972 
L 120.461855 417.872028 
L 123.010964 412.332928 
L 125.560073 411.667898 
L 128.109182 412.047391 
L 130.658291 414.115435 
L 133.207401 414.115435 
L 135.75651 418.251521 
L 138.305619 410.047607 
L 140.854728 415.779668 
L 143.403837 411.64358 
L 145.952947 410.264885 
L 148.502056 414.115435 
L 151.051165 416.514876 
L 153.600274 413.735942 
L 156.149383 411.288405 
L 158.698492 409.599855 
L 161.247602 408.668911 
L 163.796711 414.918121 
L 166.34582 402.907781 
L 168.894929 392.676014 
L 171.444038 406.699873 
L 173.993148 419.39367 
L 176.542257 407.103683 
L 179.091366 402.038571 
L 181.640475 390.503904 
L 184.189584 405.267252 
L 186.738693 400.568695 
L 189.287803 401.65785 
L 191.836912 395.29413 
L 194.386021 389.844018 
L 196.93513 384.22406 
L 199.484239 384.365503 
L 202.033349 375.284383 
L 204.582458 349.472606 
L 207.131567 365.924807 
L 209.680676 374.951609 
L 212.229785 361.806834 
L 214.778894 339.955184 
L 217.328004 325.606169 
L 219.877113 317.916906 
L 222.426222 314.617396 
L 224.975331 297.912245 
L 227.52444 311.087331 
L 230.07355 316.974774 
L 232.622659 338.84346 
L 235.171768 309.501832 
L 237.720877 277.885238 
L 240.269986 295.81655 
L 242.819095 286.191696 
L 245.368205 255.608434 
L 247.917314 272.480104 
L 250.466423 285.91487 
L 253.015532 258.657352 
L 255.564641 260.367864 
L 258.113751 281.028133 
L 260.66286 269.595522 
L 263.211969 270.615735 
L 265.761078 246.942208 
L 268.310187 281.97401 
L 270.859296 247.553935 
L 273.408406 276.914922 
L 275.957515 271.177011 
L 278.506624 254.166447 
L 281.055733 277.472233 
L 283.604842 236.55301 
L 286.153952 254.323252 
L 288.703061 267.787132 
L 291.25217 262.343563 
L 293.801279 251.080016 
L 296.350388 271.645093 
L 298.899497 261.813717 
L 301.448607 261.057222 
L 303.997716 270.313488 
L 306.546825 234.866861 
L 309.095934 247.623953 
L 311.645043 247.54425 
L 314.194153 239.15992 
L 316.743262 240.171456 
L 319.292371 247.97585 
L 321.84148 241.195521 
L 324.390589 199.930766 
L 326.939698 212.205374 
L 329.488808 212.704965 
L 332.037917 230.485967 
L 334.587026 199.837341 
L 337.136135 213.522251 
L 339.685244 213.836449 
L 342.234354 186.819572 
L 344.783463 201.896676 
L 347.332572 194.388274 
L 349.881681 171.517162 
L 352.43079 175.0754 
L 354.979899 191.575452 
L 357.529009 191.151421 
L 360.078118 198.102472 
L 362.627227 189.41826 
L 365.176336 180.816725 
L 367.725445 160.563116 
L 370.274555 162.322361 
L 372.823664 189.760505 
L 375.372773 158.285206 
L 377.921882 147.491744 
L 380.470991 157.032854 
L 383.020101 139.639648 
L 385.56921 137.663956 
L 388.118319 155.352718 
L 390.667428 156.600254 
L 393.216537 130.762119 
L 395.765646 127.651577 
L 398.314756 139.597512 
L 400.863865 108.376399 
L 403.412974 127.312223 
L 405.962083 125.671487 
L 408.511192 118.079382 
L 411.060302 120.384094 
L 413.609411 124.357393 
L 416.15852 106.308352 
L 418.707629 110.181304 
L 421.256738 104.479987 
L 423.805847 101.840862 
L 426.354957 113.285645 
L 428.904066 114.133163 
L 431.453175 116.521952 
L 434.002284 101.461372 
L 436.551393 108.595072 
L 439.100503 99.393334 
L 441.649612 108.376399 
L 444.198721 97.990314 
L 446.74783 104.36172 
L 449.296939 105.16934 
L 451.846048 101.437053 
L 454.395158 97.990314 
L 456.944267 119.80215 
L 459.493376 96.897158 
L 462.042485 105.476225 
L 464.591594 108.950597 
L 467.140704 97.325289 
L 469.689813 106.906515 
L 472.238922 110.71554 
L 474.788031 100.973427 
L 477.33714 107.929029 
L 479.886249 100.973427 
L 482.435359 101.662777 
L 484.984468 119.040054 
L 487.533577 112.111804 
L 490.082686 100.343904 
L 492.631795 105.620783 
L 495.180905 97.325289 
L 497.730014 97.325289 
L 500.279123 100.225621 
L 502.828232 107.975721 
L 505.377341 97.30097 
L 507.92645 99.393334 
L 510.47556 101.081876 
L 513.024669 113.786465 
L 515.573778 99.393334 
L 518.122887 106.045221 
L 520.671996 99.594739 
L 523.221106 97.325289 
L 525.770215 97.325289 
L 528.319324 97.30097 
L 530.868433 121.119604 
L 533.417542 98.905395 
L 535.966651 101.437053 
L 538.515761 100.058368 
L 541.06487 95.232935 
L 543.613979 100.973427 
L 546.163088 102.293672 
L 548.712197 100.973427 
L 551.261307 101.662777 
L 553.810416 97.990314 
L 556.359525 97.990314 
L 558.908634 98.275853 
L 561.457743 98.275853 
L 564.006852 97.325289 
L 566.555962 95.922285 
L 569.105071 95.232935 
L 571.65418 104.240307 
L 574.203289 99.369018 
L 576.752398 98.905395 
L 579.301508 99.594739 
L 581.850617 98.96521 
L 584.399726 98.905395 
L 586.948835 95.922285 
L 589.497944 99.594739 
L 592.047053 103.822068 
L 594.596163 103.822068 
L 597.145272 95.232935 
L 599.694381 98.905395 
L 602.24349 100.973427 
L 604.792599 102.598476 
L 607.341709 100.530428 
L 609.890818 101.033241 
L 612.439927 98.96521 
L 614.989036 101.033241 
L 617.538145 102.643555 
L 620.087254 102.293672 
L 622.636364 95.922285 
L 622.636364 93.972508 
L 622.636364 93.972508 
L 620.087254 94.494599 
L 617.538145 94.144704 
L 614.989036 97.133705 
L 612.439927 95.065673 
L 609.890818 97.133705 
L 607.341709 93.500441 
L 604.792599 95.568484 
L 602.24349 95.814832 
L 599.694381 93.746786 
L 597.145272 93.283157 
L 594.596163 92.966203 
L 592.047053 92.966203 
L 589.497944 94.43613 
L 586.948835 93.972508 
L 584.399726 93.746786 
L 581.850617 95.065673 
L 579.301508 94.43613 
L 576.752398 93.746786 
L 574.203289 97.41924 
L 571.65418 95.30534 
L 569.105071 93.283157 
L 566.555962 93.972508 
L 564.006852 93.948192 
L 561.457743 94.376316 
L 558.908634 94.376316 
L 556.359525 96.040555 
L 553.810416 96.040555 
L 551.261307 96.504182 
L 548.712197 95.814832 
L 546.163088 94.494599 
L 543.613979 95.814832 
L 541.06487 93.283157 
L 538.515761 98.108591 
L 535.966651 99.487294 
L 533.417542 93.746786 
L 530.868433 100.485179 
L 528.319324 95.351211 
L 525.770215 93.948192 
L 523.221106 93.948192 
L 520.671996 94.43613 
L 518.122887 99.015216 
L 515.573778 96.016236 
L 513.024669 96.788763 
L 510.47556 94.327681 
L 507.92645 96.016236 
L 505.377341 95.351211 
L 502.828232 94.327328 
L 500.279123 92.426548 
L 497.730014 93.948192 
L 495.180905 93.948192 
L 492.631795 95.303565 
L 490.082686 96.444367 
L 487.533577 98.463411 
L 484.984468 91.535161 
L 482.435359 96.504182 
L 479.886249 95.814832 
L 477.33714 95.752721 
L 474.788031 95.814832 
L 472.238922 99.859675 
L 469.689813 96.775222 
L 467.140704 93.948192 
L 464.591594 93.352451 
L 462.042485 92.690734 
L 459.493376 92.997622 
L 456.944267 94.909154 
L 454.395158 96.040555 
L 451.846048 99.487294 
L 449.296939 101.269785 
L 446.74783 96.562628 
L 444.198721 96.040555 
L 441.649612 99.441427 
L 439.100503 96.016236 
L 436.551393 95.086665 
L 434.002284 98.084275 
L 431.453175 95.431964 
L 428.904066 101.956842 
L 426.354957 101.42566 
L 423.805847 101.840862 
L 421.256738 100.58045 
L 418.707629 103.151299 
L 416.15852 97.373385 
L 413.609411 100.004778 
L 411.060302 99.841987 
L 408.511192 96.631922 
L 405.962083 108.341552 
L 403.412974 99.807337 
L 400.863865 99.441427 
L 398.314756 109.581184 
L 395.765646 100.846671 
L 393.216537 100.493544 
L 390.667428 110.501488 
L 388.118319 113.127711 
L 385.56921 117.029531 
L 383.020101 110.917735 
L 380.470991 103.175409 
L 377.921882 107.201742 
L 375.372773 100.544357 
L 372.823664 125.595585 
L 370.274555 104.779367 
L 367.725445 112.053404 
L 365.176336 120.752408 
L 362.627227 110.772172 
L 360.078118 131.040574 
L 357.529009 122.825967 
L 354.979899 123.780625 
L 352.43079 116.842853 
L 349.881681 125.915882 
L 347.332572 109.938248 
L 344.783463 135.518536 
L 342.234354 131.293906 
L 339.685244 127.714853 
L 337.136135 145.952097 
L 334.587026 143.092661 
L 332.037917 162.077084 
L 329.488808 157.798951 
L 326.939698 156.919854 
L 324.390589 145.756625 
L 321.84148 165.154487 
L 319.292371 177.675899 
L 316.743262 167.55724 
L 314.194153 160.296609 
L 311.645043 175.35009 
L 309.095934 171.134297 
L 306.546825 182.512714 
L 303.997716 203.592601 
L 301.448607 199.061898 
L 298.899497 207.956283 
L 296.350388 199.503594 
L 293.801279 225.583462 
L 291.25217 233.621656 
L 288.703061 232.314176 
L 286.153952 240.263273 
L 283.604842 200.1283 
L 281.055733 243.309497 
L 278.506624 230.76921 
L 275.957515 244.089949 
L 273.408406 253.517675 
L 270.859296 223.594766 
L 268.310187 259.488168 
L 265.761078 228.342582 
L 263.211969 241.893822 
L 260.66286 249.807527 
L 258.113751 259.055337 
L 255.564641 239.733432 
L 253.015532 246.958733 
L 250.466423 259.683397 
L 247.917314 240.02946 
L 245.368205 233.4633 
L 242.819095 245.619615 
L 240.269986 256.675189 
L 237.720877 253.92606 
L 235.171768 303.652518 
L 232.622659 303.263497 
L 230.07355 267.226968 
L 227.52444 282.765284 
L 224.975331 255.958188 
L 222.426222 290.264781 
L 219.877113 286.96527 
L 217.328004 287.548174 
L 214.778894 303.530474 
L 212.229785 332.690556 
L 209.680676 308.516212 
L 207.131567 328.572584 
L 204.582458 318.829569 
L 202.033349 327.485179 
L 199.484239 340.463192 
L 196.93513 365.421158 
L 194.386021 357.043808 
L 191.836912 375.031524 
L 189.287803 372.803887 
L 186.738693 390.437392 
L 184.189584 396.768401 
L 181.640475 368.792182 
L 179.091366 393.103602 
L 176.542257 403.204143 
L 173.993148 411.59459 
L 171.444038 400.850562 
L 168.894929 385.921812 
L 166.34582 397.749175 
L 163.796711 406.419271 
L 161.247602 401.638915 
L 158.698492 406.222754 
L 156.149383 404.534203 
L 153.600274 410.358841 
L 151.051165 407.579907 
L 148.502056 414.115435 
L 145.952947 408.315115 
L 143.403837 409.693811 
L 140.854728 413.829898 
L 138.305619 403.01761 
L 135.75651 418.251521 
L 133.207401 414.115435 
L 130.658291 414.115435 
L 128.109182 412.047391 
L 125.560073 408.290797 
L 123.010964 410.383159 
L 120.461855 414.494928 
L 117.912746 412.451202 
L 115.363636 403.48968 
z
" style="fill:#1f77b4;fill-opacity:0.3;"/>
   </g>
   <g id="matplotlib.axis_1">
    <g id="xtick_1">
     <g id="line2d_1">
      <path clip-path="url(#p3906a33f6c)" d="M 115.363636 441 
L 115.363636 60.48 
" style="fill:none;stroke:#b0b0b0;stroke-linecap:square;stroke-width:0.8;"/>
     </g>
     <g id="line2d_2">
      <defs>
       <path d="M 0 0 
L 0 3.5 
" id="m7f20e4b258" style="stroke:#000000;stroke-width:0.8;"/>
      </defs>
      <g>
       <use style="stroke:#000000;stroke-width:0.8;" x="115.363636" xlink:href="#m7f20e4b258" y="441"/>
      </g>
     </g>
     <g id="text_1">
      <!-- 0 -->
      <defs>
       <path d="M 31.78125 66.40625 
Q 24.171875 66.40625 20.328125 58.90625 
Q 16.5 51.421875 16.5 36.375 
Q 16.5 21.390625 20.328125 13.890625 
Q 24.171875 6.390625 31.78125 6.390625 
Q 39.453125 6.390625 43.28125 13.890625 
Q 47.125 21.390625 47.125 36.375 
Q 47.125 51.421875 43.28125 58.90625 
Q 39.453125 66.40625 31.78125 66.40625 
z
M 31.78125 74.21875 
Q 44.046875 74.21875 50.515625 64.515625 
Q 56.984375 54.828125 56.984375 36.375 
Q 56.984375 17.96875 50.515625 8.265625 
Q 44.046875 -1.421875 31.78125 -1.421875 
Q 19.53125 -1.421875 13.0625 8.265625 
Q 6.59375 17.96875 6.59375 36.375 
Q 6.59375 54.828125 13.0625 64.515625 
Q 19.53125 74.21875 31.78125 74.21875 
z
" id="DejaVuSans-48"/>
      </defs>
      <g transform="translate(112.182386 455.598437)scale(0.1 -0.1)">
       <use xlink:href="#DejaVuSans-48"/>
      </g>
     </g>
    </g>
    <g id="xtick_2">
     <g id="line2d_3">
      <path clip-path="url(#p3906a33f6c)" d="M 179.091366 441 
L 179.091366 60.48 
" style="fill:none;stroke:#b0b0b0;stroke-linecap:square;stroke-width:0.8;"/>
     </g>
     <g id="line2d_4">
      <g>
       <use style="stroke:#000000;stroke-width:0.8;" x="179.091366" xlink:href="#m7f20e4b258" y="441"/>
      </g>
     </g>
     <g id="text_2">
      <!-- 25 -->
      <defs>
       <path d="M 19.1875 8.296875 
L 53.609375 8.296875 
L 53.609375 0 
L 7.328125 0 
L 7.328125 8.296875 
Q 12.9375 14.109375 22.625 23.890625 
Q 32.328125 33.6875 34.8125 36.53125 
Q 39.546875 41.84375 41.421875 45.53125 
Q 43.3125 49.21875 43.3125 52.78125 
Q 43.3125 58.59375 39.234375 62.25 
Q 35.15625 65.921875 28.609375 65.921875 
Q 23.96875 65.921875 18.8125 64.3125 
Q 13.671875 62.703125 7.8125 59.421875 
L 7.8125 69.390625 
Q 13.765625 71.78125 18.9375 73 
Q 24.125 74.21875 28.421875 74.21875 
Q 39.75 74.21875 46.484375 68.546875 
Q 53.21875 62.890625 53.21875 53.421875 
Q 53.21875 48.921875 51.53125 44.890625 
Q 49.859375 40.875 45.40625 35.40625 
Q 44.1875 33.984375 37.640625 27.21875 
Q 31.109375 20.453125 19.1875 8.296875 
z
" id="DejaVuSans-50"/>
       <path d="M 10.796875 72.90625 
L 49.515625 72.90625 
L 49.515625 64.59375 
L 19.828125 64.59375 
L 19.828125 46.734375 
Q 21.96875 47.46875 24.109375 47.828125 
Q 26.265625 48.1875 28.421875 48.1875 
Q 40.625 48.1875 47.75 41.5 
Q 54.890625 34.8125 54.890625 23.390625 
Q 54.890625 11.625 47.5625 5.09375 
Q 40.234375 -1.421875 26.90625 -1.421875 
Q 22.3125 -1.421875 17.546875 -0.640625 
Q 12.796875 0.140625 7.71875 1.703125 
L 7.71875 11.625 
Q 12.109375 9.234375 16.796875 8.0625 
Q 21.484375 6.890625 26.703125 6.890625 
Q 35.15625 6.890625 40.078125 11.328125 
Q 45.015625 15.765625 45.015625 23.390625 
Q 45.015625 31 40.078125 35.4375 
Q 35.15625 39.890625 26.703125 39.890625 
Q 22.75 39.890625 18.8125 39.015625 
Q 14.890625 38.140625 10.796875 36.28125 
z
" id="DejaVuSans-53"/>
      </defs>
      <g transform="translate(172.728866 455.598437)scale(0.1 -0.1)">
       <use xlink:href="#DejaVuSans-50"/>
       <use x="63.623047" xlink:href="#DejaVuSans-53"/>
      </g>
     </g>
    </g>
    <g id="xtick_3">
     <g id="line2d_5">
      <path clip-path="url(#p3906a33f6c)" d="M 242.819095 441 
L 242.819095 60.48 
" style="fill:none;stroke:#b0b0b0;stroke-linecap:square;stroke-width:0.8;"/>
     </g>
     <g id="line2d_6">
      <g>
       <use style="stroke:#000000;stroke-width:0.8;" x="242.819095" xlink:href="#m7f20e4b258" y="441"/>
      </g>
     </g>
     <g id="text_3">
      <!-- 50 -->
      <g transform="translate(236.456595 455.598437)scale(0.1 -0.1)">
       <use xlink:href="#DejaVuSans-53"/>
       <use x="63.623047" xlink:href="#DejaVuSans-48"/>
      </g>
     </g>
    </g>
    <g id="xtick_4">
     <g id="line2d_7">
      <path clip-path="url(#p3906a33f6c)" d="M 306.546825 441 
L 306.546825 60.48 
" style="fill:none;stroke:#b0b0b0;stroke-linecap:square;stroke-width:0.8;"/>
     </g>
     <g id="line2d_8">
      <g>
       <use style="stroke:#000000;stroke-width:0.8;" x="306.546825" xlink:href="#m7f20e4b258" y="441"/>
      </g>
     </g>
     <g id="text_4">
      <!-- 75 -->
      <defs>
       <path d="M 8.203125 72.90625 
L 55.078125 72.90625 
L 55.078125 68.703125 
L 28.609375 0 
L 18.3125 0 
L 43.21875 64.59375 
L 8.203125 64.59375 
z
" id="DejaVuSans-55"/>
      </defs>
      <g transform="translate(300.184325 455.598437)scale(0.1 -0.1)">
       <use xlink:href="#DejaVuSans-55"/>
       <use x="63.623047" xlink:href="#DejaVuSans-53"/>
      </g>
     </g>
    </g>
    <g id="xtick_5">
     <g id="line2d_9">
      <path clip-path="url(#p3906a33f6c)" d="M 370.274555 441 
L 370.274555 60.48 
" style="fill:none;stroke:#b0b0b0;stroke-linecap:square;stroke-width:0.8;"/>
     </g>
     <g id="line2d_10">
      <g>
       <use style="stroke:#000000;stroke-width:0.8;" x="370.274555" xlink:href="#m7f20e4b258" y="441"/>
      </g>
     </g>
     <g id="text_5">
      <!-- 100 -->
      <defs>
       <path d="M 12.40625 8.296875 
L 28.515625 8.296875 
L 28.515625 63.921875 
L 10.984375 60.40625 
L 10.984375 69.390625 
L 28.421875 72.90625 
L 38.28125 72.90625 
L 38.28125 8.296875 
L 54.390625 8.296875 
L 54.390625 0 
L 12.40625 0 
z
" id="DejaVuSans-49"/>
      </defs>
      <g transform="translate(360.730805 455.598437)scale(0.1 -0.1)">
       <use xlink:href="#DejaVuSans-49"/>
       <use x="63.623047" xlink:href="#DejaVuSans-48"/>
       <use x="127.246094" xlink:href="#DejaVuSans-48"/>
      </g>
     </g>
    </g>
    <g id="xtick_6">
     <g id="line2d_11">
      <path clip-path="url(#p3906a33f6c)" d="M 434.002284 441 
L 434.002284 60.48 
" style="fill:none;stroke:#b0b0b0;stroke-linecap:square;stroke-width:0.8;"/>
     </g>
     <g id="line2d_12">
      <g>
       <use style="stroke:#000000;stroke-width:0.8;" x="434.002284" xlink:href="#m7f20e4b258" y="441"/>
      </g>
     </g>
     <g id="text_6">
      <!-- 125 -->
      <g transform="translate(424.458534 455.598437)scale(0.1 -0.1)">
       <use xlink:href="#DejaVuSans-49"/>
       <use x="63.623047" xlink:href="#DejaVuSans-50"/>
       <use x="127.246094" xlink:href="#DejaVuSans-53"/>
      </g>
     </g>
    </g>
    <g id="xtick_7">
     <g id="line2d_13">
      <path clip-path="url(#p3906a33f6c)" d="M 497.730014 441 
L 497.730014 60.48 
" style="fill:none;stroke:#b0b0b0;stroke-linecap:square;stroke-width:0.8;"/>
     </g>
     <g id="line2d_14">
      <g>
       <use style="stroke:#000000;stroke-width:0.8;" x="497.730014" xlink:href="#m7f20e4b258" y="441"/>
      </g>
     </g>
     <g id="text_7">
      <!-- 150 -->
      <g transform="translate(488.186264 455.598437)scale(0.1 -0.1)">
       <use xlink:href="#DejaVuSans-49"/>
       <use x="63.623047" xlink:href="#DejaVuSans-53"/>
       <use x="127.246094" xlink:href="#DejaVuSans-48"/>
      </g>
     </g>
    </g>
    <g id="xtick_8">
     <g id="line2d_15">
      <path clip-path="url(#p3906a33f6c)" d="M 561.457743 441 
L 561.457743 60.48 
" style="fill:none;stroke:#b0b0b0;stroke-linecap:square;stroke-width:0.8;"/>
     </g>
     <g id="line2d_16">
      <g>
       <use style="stroke:#000000;stroke-width:0.8;" x="561.457743" xlink:href="#m7f20e4b258" y="441"/>
      </g>
     </g>
     <g id="text_8">
      <!-- 175 -->
      <g transform="translate(551.913993 455.598437)scale(0.1 -0.1)">
       <use xlink:href="#DejaVuSans-49"/>
       <use x="63.623047" xlink:href="#DejaVuSans-55"/>
       <use x="127.246094" xlink:href="#DejaVuSans-53"/>
      </g>
     </g>
    </g>
    <g id="xtick_9">
     <g id="line2d_17">
      <path clip-path="url(#p3906a33f6c)" d="M 625.185473 441 
L 625.185473 60.48 
" style="fill:none;stroke:#b0b0b0;stroke-linecap:square;stroke-width:0.8;"/>
     </g>
     <g id="line2d_18">
      <g>
       <use style="stroke:#000000;stroke-width:0.8;" x="625.185473" xlink:href="#m7f20e4b258" y="441"/>
      </g>
     </g>
     <g id="text_9">
      <!-- 200 -->
      <g transform="translate(615.641723 455.598437)scale(0.1 -0.1)">
       <use xlink:href="#DejaVuSans-50"/>
       <use x="63.623047" xlink:href="#DejaVuSans-48"/>
       <use x="127.246094" xlink:href="#DejaVuSans-48"/>
      </g>
     </g>
    </g>
    <g id="text_10">
     <!-- epochs -->
     <defs>
      <path d="M 56.203125 29.59375 
L 56.203125 25.203125 
L 14.890625 25.203125 
Q 15.484375 15.921875 20.484375 11.0625 
Q 25.484375 6.203125 34.421875 6.203125 
Q 39.59375 6.203125 44.453125 7.46875 
Q 49.3125 8.734375 54.109375 11.28125 
L 54.109375 2.78125 
Q 49.265625 0.734375 44.1875 -0.34375 
Q 39.109375 -1.421875 33.890625 -1.421875 
Q 20.796875 -1.421875 13.15625 6.1875 
Q 5.515625 13.8125 5.515625 26.8125 
Q 5.515625 40.234375 12.765625 48.109375 
Q 20.015625 56 32.328125 56 
Q 43.359375 56 49.78125 48.890625 
Q 56.203125 41.796875 56.203125 29.59375 
z
M 47.21875 32.234375 
Q 47.125 39.59375 43.09375 43.984375 
Q 39.0625 48.390625 32.421875 48.390625 
Q 24.90625 48.390625 20.390625 44.140625 
Q 15.875 39.890625 15.1875 32.171875 
z
" id="DejaVuSans-101"/>
      <path d="M 18.109375 8.203125 
L 18.109375 -20.796875 
L 9.078125 -20.796875 
L 9.078125 54.6875 
L 18.109375 54.6875 
L 18.109375 46.390625 
Q 20.953125 51.265625 25.265625 53.625 
Q 29.59375 56 35.59375 56 
Q 45.5625 56 51.78125 48.09375 
Q 58.015625 40.1875 58.015625 27.296875 
Q 58.015625 14.40625 51.78125 6.484375 
Q 45.5625 -1.421875 35.59375 -1.421875 
Q 29.59375 -1.421875 25.265625 0.953125 
Q 20.953125 3.328125 18.109375 8.203125 
z
M 48.6875 27.296875 
Q 48.6875 37.203125 44.609375 42.84375 
Q 40.53125 48.484375 33.40625 48.484375 
Q 26.265625 48.484375 22.1875 42.84375 
Q 18.109375 37.203125 18.109375 27.296875 
Q 18.109375 17.390625 22.1875 11.75 
Q 26.265625 6.109375 33.40625 6.109375 
Q 40.53125 6.109375 44.609375 11.75 
Q 48.6875 17.390625 48.6875 27.296875 
z
" id="DejaVuSans-112"/>
      <path d="M 30.609375 48.390625 
Q 23.390625 48.390625 19.1875 42.75 
Q 14.984375 37.109375 14.984375 27.296875 
Q 14.984375 17.484375 19.15625 11.84375 
Q 23.34375 6.203125 30.609375 6.203125 
Q 37.796875 6.203125 41.984375 11.859375 
Q 46.1875 17.53125 46.1875 27.296875 
Q 46.1875 37.015625 41.984375 42.703125 
Q 37.796875 48.390625 30.609375 48.390625 
z
M 30.609375 56 
Q 42.328125 56 49.015625 48.375 
Q 55.71875 40.765625 55.71875 27.296875 
Q 55.71875 13.875 49.015625 6.21875 
Q 42.328125 -1.421875 30.609375 -1.421875 
Q 18.84375 -1.421875 12.171875 6.21875 
Q 5.515625 13.875 5.515625 27.296875 
Q 5.515625 40.765625 12.171875 48.375 
Q 18.84375 56 30.609375 56 
z
" id="DejaVuSans-111"/>
      <path d="M 48.78125 52.59375 
L 48.78125 44.1875 
Q 44.96875 46.296875 41.140625 47.34375 
Q 37.3125 48.390625 33.40625 48.390625 
Q 24.65625 48.390625 19.8125 42.84375 
Q 14.984375 37.3125 14.984375 27.296875 
Q 14.984375 17.28125 19.8125 11.734375 
Q 24.65625 6.203125 33.40625 6.203125 
Q 37.3125 6.203125 41.140625 7.25 
Q 44.96875 8.296875 48.78125 10.40625 
L 48.78125 2.09375 
Q 45.015625 0.34375 40.984375 -0.53125 
Q 36.96875 -1.421875 32.421875 -1.421875 
Q 20.0625 -1.421875 12.78125 6.34375 
Q 5.515625 14.109375 5.515625 27.296875 
Q 5.515625 40.671875 12.859375 48.328125 
Q 20.21875 56 33.015625 56 
Q 37.15625 56 41.109375 55.140625 
Q 45.0625 54.296875 48.78125 52.59375 
z
" id="DejaVuSans-99"/>
      <path d="M 54.890625 33.015625 
L 54.890625 0 
L 45.90625 0 
L 45.90625 32.71875 
Q 45.90625 40.484375 42.875 44.328125 
Q 39.84375 48.1875 33.796875 48.1875 
Q 26.515625 48.1875 22.3125 43.546875 
Q 18.109375 38.921875 18.109375 30.90625 
L 18.109375 0 
L 9.078125 0 
L 9.078125 75.984375 
L 18.109375 75.984375 
L 18.109375 46.1875 
Q 21.34375 51.125 25.703125 53.5625 
Q 30.078125 56 35.796875 56 
Q 45.21875 56 50.046875 50.171875 
Q 54.890625 44.34375 54.890625 33.015625 
z
" id="DejaVuSans-104"/>
      <path d="M 44.28125 53.078125 
L 44.28125 44.578125 
Q 40.484375 46.53125 36.375 47.5 
Q 32.28125 48.484375 27.875 48.484375 
Q 21.1875 48.484375 17.84375 46.4375 
Q 14.5 44.390625 14.5 40.28125 
Q 14.5 37.15625 16.890625 35.375 
Q 19.28125 33.59375 26.515625 31.984375 
L 29.59375 31.296875 
Q 39.15625 29.25 43.1875 25.515625 
Q 47.21875 21.78125 47.21875 15.09375 
Q 47.21875 7.46875 41.1875 3.015625 
Q 35.15625 -1.421875 24.609375 -1.421875 
Q 20.21875 -1.421875 15.453125 -0.5625 
Q 10.6875 0.296875 5.421875 2 
L 5.421875 11.28125 
Q 10.40625 8.6875 15.234375 7.390625 
Q 20.0625 6.109375 24.8125 6.109375 
Q 31.15625 6.109375 34.5625 8.28125 
Q 37.984375 10.453125 37.984375 14.40625 
Q 37.984375 18.0625 35.515625 20.015625 
Q 33.0625 21.96875 24.703125 23.78125 
L 21.578125 24.515625 
Q 13.234375 26.265625 9.515625 29.90625 
Q 5.8125 33.546875 5.8125 39.890625 
Q 5.8125 47.609375 11.28125 51.796875 
Q 16.75 56 26.8125 56 
Q 31.78125 56 36.171875 55.265625 
Q 40.578125 54.546875 44.28125 53.078125 
z
" id="DejaVuSans-115"/>
     </defs>
     <g transform="translate(351.167188 469.276563)scale(0.1 -0.1)">
      <use xlink:href="#DejaVuSans-101"/>
      <use x="61.523438" xlink:href="#DejaVuSans-112"/>
      <use x="125" xlink:href="#DejaVuSans-111"/>
      <use x="186.181641" xlink:href="#DejaVuSans-99"/>
      <use x="241.162109" xlink:href="#DejaVuSans-104"/>
      <use x="304.541016" xlink:href="#DejaVuSans-115"/>
     </g>
    </g>
   </g>
   <g id="matplotlib.axis_2">
    <g id="ytick_1">
     <g id="line2d_19">
      <path clip-path="url(#p3906a33f6c)" d="M 90 424.455652 
L 648 424.455652 
" style="fill:none;stroke:#b0b0b0;stroke-linecap:square;stroke-width:0.8;"/>
     </g>
     <g id="line2d_20">
      <defs>
       <path d="M 0 0 
L -3.5 0 
" id="m3c69f2f5ea" style="stroke:#000000;stroke-width:0.8;"/>
      </defs>
      <g>
       <use style="stroke:#000000;stroke-width:0.8;" x="90" xlink:href="#m3c69f2f5ea" y="424.455652"/>
      </g>
     </g>
     <g id="text_11">
      <!-- 0.0 -->
      <defs>
       <path d="M 10.6875 12.40625 
L 21 12.40625 
L 21 0 
L 10.6875 0 
z
" id="DejaVuSans-46"/>
      </defs>
      <g transform="translate(67.096875 428.254871)scale(0.1 -0.1)">
       <use xlink:href="#DejaVuSans-48"/>
       <use x="63.623047" xlink:href="#DejaVuSans-46"/>
       <use x="95.410156" xlink:href="#DejaVuSans-48"/>
      </g>
     </g>
    </g>
    <g id="ytick_2">
     <g id="line2d_21">
      <path clip-path="url(#p3906a33f6c)" d="M 90 358.278261 
L 648 358.278261 
" style="fill:none;stroke:#b0b0b0;stroke-linecap:square;stroke-width:0.8;"/>
     </g>
     <g id="line2d_22">
      <g>
       <use style="stroke:#000000;stroke-width:0.8;" x="90" xlink:href="#m3c69f2f5ea" y="358.278261"/>
      </g>
     </g>
     <g id="text_12">
      <!-- 0.2 -->
      <g transform="translate(67.096875 362.07748)scale(0.1 -0.1)">
       <use xlink:href="#DejaVuSans-48"/>
       <use x="63.623047" xlink:href="#DejaVuSans-46"/>
       <use x="95.410156" xlink:href="#DejaVuSans-50"/>
      </g>
     </g>
    </g>
    <g id="ytick_3">
     <g id="line2d_23">
      <path clip-path="url(#p3906a33f6c)" d="M 90 292.10087 
L 648 292.10087 
" style="fill:none;stroke:#b0b0b0;stroke-linecap:square;stroke-width:0.8;"/>
     </g>
     <g id="line2d_24">
      <g>
       <use style="stroke:#000000;stroke-width:0.8;" x="90" xlink:href="#m3c69f2f5ea" y="292.10087"/>
      </g>
     </g>
     <g id="text_13">
      <!-- 0.4 -->
      <defs>
       <path d="M 37.796875 64.3125 
L 12.890625 25.390625 
L 37.796875 25.390625 
z
M 35.203125 72.90625 
L 47.609375 72.90625 
L 47.609375 25.390625 
L 58.015625 25.390625 
L 58.015625 17.1875 
L 47.609375 17.1875 
L 47.609375 0 
L 37.796875 0 
L 37.796875 17.1875 
L 4.890625 17.1875 
L 4.890625 26.703125 
z
" id="DejaVuSans-52"/>
      </defs>
      <g transform="translate(67.096875 295.900088)scale(0.1 -0.1)">
       <use xlink:href="#DejaVuSans-48"/>
       <use x="63.623047" xlink:href="#DejaVuSans-46"/>
       <use x="95.410156" xlink:href="#DejaVuSans-52"/>
      </g>
     </g>
    </g>
    <g id="ytick_4">
     <g id="line2d_25">
      <path clip-path="url(#p3906a33f6c)" d="M 90 225.923478 
L 648 225.923478 
" style="fill:none;stroke:#b0b0b0;stroke-linecap:square;stroke-width:0.8;"/>
     </g>
     <g id="line2d_26">
      <g>
       <use style="stroke:#000000;stroke-width:0.8;" x="90" xlink:href="#m3c69f2f5ea" y="225.923478"/>
      </g>
     </g>
     <g id="text_14">
      <!-- 0.6 -->
      <defs>
       <path d="M 33.015625 40.375 
Q 26.375 40.375 22.484375 35.828125 
Q 18.609375 31.296875 18.609375 23.390625 
Q 18.609375 15.53125 22.484375 10.953125 
Q 26.375 6.390625 33.015625 6.390625 
Q 39.65625 6.390625 43.53125 10.953125 
Q 47.40625 15.53125 47.40625 23.390625 
Q 47.40625 31.296875 43.53125 35.828125 
Q 39.65625 40.375 33.015625 40.375 
z
M 52.59375 71.296875 
L 52.59375 62.3125 
Q 48.875 64.0625 45.09375 64.984375 
Q 41.3125 65.921875 37.59375 65.921875 
Q 27.828125 65.921875 22.671875 59.328125 
Q 17.53125 52.734375 16.796875 39.40625 
Q 19.671875 43.65625 24.015625 45.921875 
Q 28.375 48.1875 33.59375 48.1875 
Q 44.578125 48.1875 50.953125 41.515625 
Q 57.328125 34.859375 57.328125 23.390625 
Q 57.328125 12.15625 50.6875 5.359375 
Q 44.046875 -1.421875 33.015625 -1.421875 
Q 20.359375 -1.421875 13.671875 8.265625 
Q 6.984375 17.96875 6.984375 36.375 
Q 6.984375 53.65625 15.1875 63.9375 
Q 23.390625 74.21875 37.203125 74.21875 
Q 40.921875 74.21875 44.703125 73.484375 
Q 48.484375 72.75 52.59375 71.296875 
z
" id="DejaVuSans-54"/>
      </defs>
      <g transform="translate(67.096875 229.722697)scale(0.1 -0.1)">
       <use xlink:href="#DejaVuSans-48"/>
       <use x="63.623047" xlink:href="#DejaVuSans-46"/>
       <use x="95.410156" xlink:href="#DejaVuSans-54"/>
      </g>
     </g>
    </g>
    <g id="ytick_5">
     <g id="line2d_27">
      <path clip-path="url(#p3906a33f6c)" d="M 90 159.746087 
L 648 159.746087 
" style="fill:none;stroke:#b0b0b0;stroke-linecap:square;stroke-width:0.8;"/>
     </g>
     <g id="line2d_28">
      <g>
       <use style="stroke:#000000;stroke-width:0.8;" x="90" xlink:href="#m3c69f2f5ea" y="159.746087"/>
      </g>
     </g>
     <g id="text_15">
      <!-- 0.8 -->
      <defs>
       <path d="M 31.78125 34.625 
Q 24.75 34.625 20.71875 30.859375 
Q 16.703125 27.09375 16.703125 20.515625 
Q 16.703125 13.921875 20.71875 10.15625 
Q 24.75 6.390625 31.78125 6.390625 
Q 38.8125 6.390625 42.859375 10.171875 
Q 46.921875 13.96875 46.921875 20.515625 
Q 46.921875 27.09375 42.890625 30.859375 
Q 38.875 34.625 31.78125 34.625 
z
M 21.921875 38.8125 
Q 15.578125 40.375 12.03125 44.71875 
Q 8.5 49.078125 8.5 55.328125 
Q 8.5 64.0625 14.71875 69.140625 
Q 20.953125 74.21875 31.78125 74.21875 
Q 42.671875 74.21875 48.875 69.140625 
Q 55.078125 64.0625 55.078125 55.328125 
Q 55.078125 49.078125 51.53125 44.71875 
Q 48 40.375 41.703125 38.8125 
Q 48.828125 37.15625 52.796875 32.3125 
Q 56.78125 27.484375 56.78125 20.515625 
Q 56.78125 9.90625 50.3125 4.234375 
Q 43.84375 -1.421875 31.78125 -1.421875 
Q 19.734375 -1.421875 13.25 4.234375 
Q 6.78125 9.90625 6.78125 20.515625 
Q 6.78125 27.484375 10.78125 32.3125 
Q 14.796875 37.15625 21.921875 38.8125 
z
M 18.3125 54.390625 
Q 18.3125 48.734375 21.84375 45.5625 
Q 25.390625 42.390625 31.78125 42.390625 
Q 38.140625 42.390625 41.71875 45.5625 
Q 45.3125 48.734375 45.3125 54.390625 
Q 45.3125 60.0625 41.71875 63.234375 
Q 38.140625 66.40625 31.78125 66.40625 
Q 25.390625 66.40625 21.84375 63.234375 
Q 18.3125 60.0625 18.3125 54.390625 
z
" id="DejaVuSans-56"/>
      </defs>
      <g transform="translate(67.096875 163.545306)scale(0.1 -0.1)">
       <use xlink:href="#DejaVuSans-48"/>
       <use x="63.623047" xlink:href="#DejaVuSans-46"/>
       <use x="95.410156" xlink:href="#DejaVuSans-56"/>
      </g>
     </g>
    </g>
    <g id="ytick_6">
     <g id="line2d_29">
      <path clip-path="url(#p3906a33f6c)" d="M 90 93.568696 
L 648 93.568696 
" style="fill:none;stroke:#b0b0b0;stroke-linecap:square;stroke-width:0.8;"/>
     </g>
     <g id="line2d_30">
      <g>
       <use style="stroke:#000000;stroke-width:0.8;" x="90" xlink:href="#m3c69f2f5ea" y="93.568696"/>
      </g>
     </g>
     <g id="text_16">
      <!-- 1.0 -->
      <g transform="translate(67.096875 97.367914)scale(0.1 -0.1)">
       <use xlink:href="#DejaVuSans-49"/>
       <use x="63.623047" xlink:href="#DejaVuSans-46"/>
       <use x="95.410156" xlink:href="#DejaVuSans-48"/>
      </g>
     </g>
    </g>
    <g id="text_17">
     <!-- success-rate -->
     <defs>
      <path d="M 8.5 21.578125 
L 8.5 54.6875 
L 17.484375 54.6875 
L 17.484375 21.921875 
Q 17.484375 14.15625 20.5 10.265625 
Q 23.53125 6.390625 29.59375 6.390625 
Q 36.859375 6.390625 41.078125 11.03125 
Q 45.3125 15.671875 45.3125 23.6875 
L 45.3125 54.6875 
L 54.296875 54.6875 
L 54.296875 0 
L 45.3125 0 
L 45.3125 8.40625 
Q 42.046875 3.421875 37.71875 1 
Q 33.40625 -1.421875 27.6875 -1.421875 
Q 18.265625 -1.421875 13.375 4.4375 
Q 8.5 10.296875 8.5 21.578125 
z
M 31.109375 56 
z
" id="DejaVuSans-117"/>
      <path d="M 4.890625 31.390625 
L 31.203125 31.390625 
L 31.203125 23.390625 
L 4.890625 23.390625 
z
" id="DejaVuSans-45"/>
      <path d="M 41.109375 46.296875 
Q 39.59375 47.171875 37.8125 47.578125 
Q 36.03125 48 33.890625 48 
Q 26.265625 48 22.1875 43.046875 
Q 18.109375 38.09375 18.109375 28.8125 
L 18.109375 0 
L 9.078125 0 
L 9.078125 54.6875 
L 18.109375 54.6875 
L 18.109375 46.1875 
Q 20.953125 51.171875 25.484375 53.578125 
Q 30.03125 56 36.53125 56 
Q 37.453125 56 38.578125 55.875 
Q 39.703125 55.765625 41.0625 55.515625 
z
" id="DejaVuSans-114"/>
      <path d="M 34.28125 27.484375 
Q 23.390625 27.484375 19.1875 25 
Q 14.984375 22.515625 14.984375 16.5 
Q 14.984375 11.71875 18.140625 8.90625 
Q 21.296875 6.109375 26.703125 6.109375 
Q 34.1875 6.109375 38.703125 11.40625 
Q 43.21875 16.703125 43.21875 25.484375 
L 43.21875 27.484375 
z
M 52.203125 31.203125 
L 52.203125 0 
L 43.21875 0 
L 43.21875 8.296875 
Q 40.140625 3.328125 35.546875 0.953125 
Q 30.953125 -1.421875 24.3125 -1.421875 
Q 15.921875 -1.421875 10.953125 3.296875 
Q 6 8.015625 6 15.921875 
Q 6 25.140625 12.171875 29.828125 
Q 18.359375 34.515625 30.609375 34.515625 
L 43.21875 34.515625 
L 43.21875 35.40625 
Q 43.21875 41.609375 39.140625 45 
Q 35.0625 48.390625 27.6875 48.390625 
Q 23 48.390625 18.546875 47.265625 
Q 14.109375 46.140625 10.015625 43.890625 
L 10.015625 52.203125 
Q 14.9375 54.109375 19.578125 55.046875 
Q 24.21875 56 28.609375 56 
Q 40.484375 56 46.34375 49.84375 
Q 52.203125 43.703125 52.203125 31.203125 
z
" id="DejaVuSans-97"/>
      <path d="M 18.3125 70.21875 
L 18.3125 54.6875 
L 36.8125 54.6875 
L 36.8125 47.703125 
L 18.3125 47.703125 
L 18.3125 18.015625 
Q 18.3125 11.328125 20.140625 9.421875 
Q 21.96875 7.515625 27.59375 7.515625 
L 36.8125 7.515625 
L 36.8125 0 
L 27.59375 0 
Q 17.1875 0 13.234375 3.875 
Q 9.28125 7.765625 9.28125 18.015625 
L 9.28125 47.703125 
L 2.6875 47.703125 
L 2.6875 54.6875 
L 9.28125 54.6875 
L 9.28125 70.21875 
z
" id="DejaVuSans-116"/>
     </defs>
     <g transform="translate(61.017187 282.257969)rotate(-90)scale(0.1 -0.1)">
      <use xlink:href="#DejaVuSans-115"/>
      <use x="52.099609" xlink:href="#DejaVuSans-117"/>
      <use x="115.478516" xlink:href="#DejaVuSans-99"/>
      <use x="170.458984" xlink:href="#DejaVuSans-99"/>
      <use x="225.439453" xlink:href="#DejaVuSans-101"/>
      <use x="286.962891" xlink:href="#DejaVuSans-115"/>
      <use x="339.0625" xlink:href="#DejaVuSans-115"/>
      <use x="391.162109" xlink:href="#DejaVuSans-45"/>
      <use x="427.246094" xlink:href="#DejaVuSans-114"/>
      <use x="468.359375" xlink:href="#DejaVuSans-97"/>
      <use x="529.638672" xlink:href="#DejaVuSans-116"/>
      <use x="568.847656" xlink:href="#DejaVuSans-101"/>
     </g>
    </g>
   </g>
   <g id="line2d_31">
    <path clip-path="url(#p3906a33f6c)" d="M 115.363636 404.464565 
L 117.912746 413.426087 
L 120.461855 416.183478 
L 123.010964 411.358043 
L 125.560073 409.979348 
L 130.658291 414.115435 
L 133.207401 414.115435 
L 135.75651 418.251521 
L 138.305619 406.532609 
L 140.854728 414.804783 
L 143.403837 410.668696 
L 145.952947 409.29 
L 148.502056 414.115435 
L 151.051165 412.047391 
L 153.600274 412.047391 
L 156.149383 407.911304 
L 158.698492 407.911305 
L 161.247602 405.153913 
L 163.796711 410.668696 
L 166.34582 400.328478 
L 168.894929 389.298913 
L 171.444038 403.775217 
L 173.993148 415.49413 
L 176.542257 405.153913 
L 179.091366 397.571086 
L 181.640475 379.648043 
L 184.189584 401.017826 
L 186.738693 395.503043 
L 189.287803 387.230869 
L 191.836912 385.162827 
L 194.386021 373.443913 
L 196.93513 374.822609 
L 199.484239 362.414348 
L 202.033349 351.384781 
L 204.582458 334.151088 
L 207.131567 347.248695 
L 209.680676 341.733911 
L 212.229785 347.248695 
L 214.778894 321.742829 
L 217.328004 306.577171 
L 219.877113 302.441088 
L 222.426222 302.441088 
L 224.975331 276.935217 
L 227.52444 296.926308 
L 230.07355 292.100871 
L 232.622659 321.053478 
L 235.171768 306.577175 
L 237.720877 265.905649 
L 240.269986 276.24587 
L 242.819095 265.905655 
L 245.368205 244.535867 
L 247.917314 256.254782 
L 250.466423 272.799134 
L 253.015532 252.808043 
L 255.564641 250.050648 
L 258.113751 270.041735 
L 260.66286 259.701524 
L 263.211969 256.254779 
L 265.761078 237.642395 
L 268.310187 270.731089 
L 270.859296 235.57435 
L 273.408406 265.216298 
L 275.957515 257.63348 
L 278.506624 242.467829 
L 281.055733 260.390865 
L 283.604842 218.340655 
L 286.153952 247.293262 
L 288.703061 250.050654 
L 291.25217 247.982609 
L 293.801279 238.331739 
L 296.350388 235.574344 
L 298.899497 234.885 
L 301.448607 230.05956 
L 303.997716 236.953045 
L 306.546825 208.689788 
L 309.095934 209.379125 
L 311.645043 211.44717 
L 314.194153 199.728265 
L 316.743262 203.864348 
L 319.292371 212.825874 
L 321.84148 203.175004 
L 324.390589 172.843696 
L 326.939698 184.562614 
L 329.488808 185.251958 
L 332.037917 196.281526 
L 334.587026 171.465001 
L 337.136135 179.737174 
L 339.685244 170.775651 
L 342.234354 159.056739 
L 344.783463 168.707606 
L 347.332572 152.163261 
L 349.881681 148.716522 
L 352.43079 145.959126 
L 354.979899 157.678038 
L 357.529009 156.988694 
L 360.078118 164.571523 
L 362.627227 150.095216 
L 365.176336 150.784567 
L 367.725445 136.30826 
L 370.274555 133.550864 
L 372.823664 157.678045 
L 375.372773 129.414781 
L 377.921882 127.346743 
L 380.470991 130.104132 
L 383.020101 125.278692 
L 385.56921 127.346743 
L 388.118319 134.240215 
L 390.667428 133.550871 
L 393.216537 115.627831 
L 395.765646 114.249124 
L 398.314756 124.589348 
L 400.863865 103.908913 
L 403.412974 113.55978 
L 405.962083 117.006519 
L 408.511192 107.355652 
L 411.060302 110.113041 
L 413.609411 112.181086 
L 416.15852 101.840868 
L 418.707629 106.666302 
L 421.256738 102.530219 
L 423.805847 101.840862 
L 426.354957 107.355652 
L 428.904066 108.045003 
L 431.453175 105.976958 
L 434.002284 99.772823 
L 436.551393 101.840868 
L 439.100503 97.704785 
L 441.649612 103.908913 
L 444.198721 97.015435 
L 446.74783 100.462174 
L 449.296939 103.219563 
L 451.846048 100.462174 
L 454.395158 97.015435 
L 456.944267 107.355652 
L 459.493376 94.94739 
L 462.042485 99.08348 
L 464.591594 101.151524 
L 467.140704 95.63674 
L 469.689813 101.840868 
L 472.238922 105.287607 
L 474.788031 98.394129 
L 477.33714 101.840875 
L 479.886249 98.394129 
L 482.435359 99.08348 
L 484.984468 105.287607 
L 487.533577 105.287607 
L 490.082686 98.394136 
L 492.631795 100.462174 
L 495.180905 95.63674 
L 497.730014 95.63674 
L 500.279123 96.326084 
L 502.828232 101.151524 
L 505.377341 96.326091 
L 507.92645 97.704785 
L 510.47556 97.704779 
L 513.024669 105.287614 
L 515.573778 97.704785 
L 518.122887 102.530219 
L 520.671996 97.015435 
L 523.221106 95.63674 
L 525.770215 95.63674 
L 528.319324 96.326091 
L 530.868433 110.802391 
L 533.417542 96.326091 
L 535.966651 100.462174 
L 538.515761 99.08348 
L 541.06487 94.258046 
L 543.613979 98.394129 
L 548.712197 98.394129 
L 551.261307 99.08348 
L 553.810416 97.015435 
L 556.359525 97.015435 
L 558.908634 96.326084 
L 561.457743 96.326084 
L 569.105071 94.258046 
L 571.65418 99.772823 
L 574.203289 98.394129 
L 576.752398 96.326091 
L 579.301508 97.015435 
L 581.850617 97.015441 
L 584.399726 96.326091 
L 586.948835 94.947397 
L 589.497944 97.015435 
L 592.047053 98.394136 
L 594.596163 98.394136 
L 597.145272 94.258046 
L 602.24349 98.394129 
L 604.792599 99.08348 
L 607.341709 97.015435 
L 609.890818 99.083473 
L 612.439927 97.015441 
L 614.989036 99.083473 
L 617.538145 98.394129 
L 620.087254 98.394136 
L 622.636364 94.947397 
L 622.636364 94.947397 
" style="fill:none;stroke:#1f77b4;stroke-linecap:square;stroke-width:1.5;"/>
   </g>
   <g id="line2d_32">
    <path clip-path="url(#p3906a33f6c)" d="M 115.363636 405.843261 
L 117.912746 414.115435 
L 120.461855 416.183478 
L 123.010964 409.979348 
L 128.109182 409.979348 
L 130.658291 414.115435 
L 133.207401 414.115435 
L 135.75651 418.251521 
L 138.305619 409.979348 
L 140.854728 412.047391 
L 143.403837 412.047391 
L 145.952947 407.911304 
L 148.502056 414.115435 
L 151.051165 416.183478 
L 153.600274 416.183478 
L 156.149383 414.115435 
L 158.698492 409.979348 
L 161.247602 412.047391 
L 163.796711 420.319565 
L 166.34582 409.979348 
L 168.894929 403.775217 
L 171.444038 409.979348 
L 173.993148 422.387609 
L 176.542257 412.047391 
L 179.091366 414.115435 
L 181.640475 407.911304 
L 184.189584 407.911304 
L 186.738693 412.047391 
L 189.287803 412.047391 
L 191.836912 414.115435 
L 194.386021 414.115435 
L 196.93513 409.979348 
L 202.033349 414.115435 
L 204.582458 409.979348 
L 207.131567 412.047391 
L 209.680676 420.319565 
L 212.229785 412.047391 
L 214.778894 414.115435 
L 217.328004 412.047391 
L 219.877113 405.843261 
L 222.426222 414.115435 
L 224.975331 405.843261 
L 227.52444 405.843261 
L 230.07355 407.911304 
L 232.622659 420.319565 
L 235.171768 422.387609 
L 237.720877 414.115435 
L 240.269986 420.319565 
L 242.819095 416.183478 
L 245.368205 416.183478 
L 247.917314 412.047391 
L 255.564641 412.047391 
L 258.113751 409.979348 
L 260.66286 418.251521 
L 263.211969 414.115435 
L 265.761078 412.047391 
L 270.859296 403.775217 
L 273.408406 409.979348 
L 275.957515 409.979348 
L 278.506624 412.047391 
L 281.055733 409.979348 
L 283.604842 414.115435 
L 288.703061 414.115435 
L 291.25217 407.911304 
L 293.801279 416.183478 
L 296.350388 414.115435 
L 298.899497 407.911304 
L 301.448607 414.115435 
L 303.997716 407.911304 
L 306.546825 416.183478 
L 309.095934 420.319565 
L 311.645043 412.047391 
L 314.194153 409.979348 
L 316.743262 420.319565 
L 319.292371 412.047391 
L 321.84148 420.319565 
L 324.390589 416.183478 
L 326.939698 409.979348 
L 329.488808 405.843261 
L 332.037917 414.115435 
L 334.587026 414.115435 
L 337.136135 412.047391 
L 339.685244 407.911304 
L 342.234354 412.047391 
L 349.881681 412.047391 
L 352.43079 414.115435 
L 354.979899 414.115435 
L 357.529009 416.183478 
L 360.078118 416.183478 
L 362.627227 412.047391 
L 365.176336 409.979348 
L 370.274555 414.115435 
L 372.823664 405.843261 
L 375.372773 409.979348 
L 377.921882 412.047391 
L 380.470991 418.251521 
L 383.020101 405.843261 
L 385.56921 407.911304 
L 388.118319 412.047391 
L 390.667428 409.979348 
L 393.216537 418.251521 
L 395.765646 409.979348 
L 398.314756 416.183478 
L 400.863865 409.979348 
L 403.412974 405.843261 
L 405.962083 407.911304 
L 408.511192 412.047391 
L 411.060302 420.319565 
L 413.609411 414.115435 
L 416.15852 401.707173 
L 418.707629 412.047391 
L 421.256738 414.115435 
L 423.805847 407.911304 
L 426.354957 407.911304 
L 428.904066 409.979348 
L 431.453175 414.115435 
L 434.002284 414.115435 
L 436.551393 407.911304 
L 439.100503 409.979348 
L 441.649612 414.115435 
L 444.198721 409.979348 
L 446.74783 409.979348 
L 449.296939 414.115435 
L 451.846048 412.047391 
L 454.395158 407.911304 
L 456.944267 409.979348 
L 459.493376 407.911304 
L 462.042485 416.183478 
L 464.591594 412.047391 
L 467.140704 405.843261 
L 469.689813 416.183478 
L 472.238922 407.911304 
L 474.788031 405.843261 
L 477.33714 416.183478 
L 479.886249 414.115435 
L 482.435359 416.183478 
L 484.984468 405.843261 
L 487.533577 412.047391 
L 490.082686 409.979348 
L 492.631795 414.115435 
L 495.180905 416.183478 
L 497.730014 405.843261 
L 500.279123 401.707173 
L 502.828232 401.707173 
L 505.377341 405.843261 
L 507.92645 418.251521 
L 510.47556 414.115435 
L 513.024669 416.183478 
L 515.573778 412.047391 
L 518.122887 412.047391 
L 520.671996 407.911304 
L 523.221106 405.843261 
L 525.770215 407.911304 
L 530.868433 416.183478 
L 533.417542 418.251521 
L 535.966651 412.047391 
L 538.515761 401.707173 
L 541.06487 420.319565 
L 543.613979 412.047391 
L 546.163088 409.979348 
L 548.712197 414.115435 
L 551.261307 416.183478 
L 553.810416 414.115435 
L 556.359525 414.115435 
L 561.457743 401.707173 
L 564.006852 416.183478 
L 566.555962 416.183478 
L 569.105071 422.387609 
L 571.65418 416.183478 
L 574.203289 412.047391 
L 576.752398 414.115435 
L 581.850617 414.115435 
L 584.399726 412.047391 
L 586.948835 412.047391 
L 589.497944 416.183478 
L 592.047053 409.979348 
L 594.596163 418.251521 
L 597.145272 412.047391 
L 599.694381 416.183478 
L 602.24349 407.911304 
L 604.792599 412.047391 
L 607.341709 418.251521 
L 609.890818 387.230871 
L 612.439927 416.183478 
L 614.989036 414.115435 
L 620.087254 405.843261 
L 622.636364 403.775217 
L 622.636364 403.775217 
" style="fill:none;stroke:#ff7f0e;stroke-linecap:square;stroke-width:1.5;"/>
   </g>
   <g id="patch_3">
    <path d="M 90 441 
L 90 60.48 
" style="fill:none;stroke:#000000;stroke-linecap:square;stroke-linejoin:miter;stroke-width:0.8;"/>
   </g>
   <g id="patch_4">
    <path d="M 648 441 
L 648 60.48 
" style="fill:none;stroke:#000000;stroke-linecap:square;stroke-linejoin:miter;stroke-width:0.8;"/>
   </g>
   <g id="patch_5">
    <path d="M 90 441 
L 648 441 
" style="fill:none;stroke:#000000;stroke-linecap:square;stroke-linejoin:miter;stroke-width:0.8;"/>
   </g>
   <g id="patch_6">
    <path d="M 90 60.48 
L 648 60.48 
" style="fill:none;stroke:#000000;stroke-linecap:square;stroke-linejoin:miter;stroke-width:0.8;"/>
   </g>
   <g id="text_18">
    <!-- FetchPickAndPlace -->
    <defs>
     <path d="M 9.8125 72.90625 
L 51.703125 72.90625 
L 51.703125 64.59375 
L 19.671875 64.59375 
L 19.671875 43.109375 
L 48.578125 43.109375 
L 48.578125 34.8125 
L 19.671875 34.8125 
L 19.671875 0 
L 9.8125 0 
z
" id="DejaVuSans-70"/>
     <path d="M 19.671875 64.796875 
L 19.671875 37.40625 
L 32.078125 37.40625 
Q 38.96875 37.40625 42.71875 40.96875 
Q 46.484375 44.53125 46.484375 51.125 
Q 46.484375 57.671875 42.71875 61.234375 
Q 38.96875 64.796875 32.078125 64.796875 
z
M 9.8125 72.90625 
L 32.078125 72.90625 
Q 44.34375 72.90625 50.609375 67.359375 
Q 56.890625 61.8125 56.890625 51.125 
Q 56.890625 40.328125 50.609375 34.8125 
Q 44.34375 29.296875 32.078125 29.296875 
L 19.671875 29.296875 
L 19.671875 0 
L 9.8125 0 
z
" id="DejaVuSans-80"/>
     <path d="M 9.421875 54.6875 
L 18.40625 54.6875 
L 18.40625 0 
L 9.421875 0 
z
M 9.421875 75.984375 
L 18.40625 75.984375 
L 18.40625 64.59375 
L 9.421875 64.59375 
z
" id="DejaVuSans-105"/>
     <path d="M 9.078125 75.984375 
L 18.109375 75.984375 
L 18.109375 31.109375 
L 44.921875 54.6875 
L 56.390625 54.6875 
L 27.390625 29.109375 
L 57.625 0 
L 45.90625 0 
L 18.109375 26.703125 
L 18.109375 0 
L 9.078125 0 
z
" id="DejaVuSans-107"/>
     <path d="M 34.1875 63.1875 
L 20.796875 26.90625 
L 47.609375 26.90625 
z
M 28.609375 72.90625 
L 39.796875 72.90625 
L 67.578125 0 
L 57.328125 0 
L 50.6875 18.703125 
L 17.828125 18.703125 
L 11.1875 0 
L 0.78125 0 
z
" id="DejaVuSans-65"/>
     <path d="M 54.890625 33.015625 
L 54.890625 0 
L 45.90625 0 
L 45.90625 32.71875 
Q 45.90625 40.484375 42.875 44.328125 
Q 39.84375 48.1875 33.796875 48.1875 
Q 26.515625 48.1875 22.3125 43.546875 
Q 18.109375 38.921875 18.109375 30.90625 
L 18.109375 0 
L 9.078125 0 
L 9.078125 54.6875 
L 18.109375 54.6875 
L 18.109375 46.1875 
Q 21.34375 51.125 25.703125 53.5625 
Q 30.078125 56 35.796875 56 
Q 45.21875 56 50.046875 50.171875 
Q 54.890625 44.34375 54.890625 33.015625 
z
" id="DejaVuSans-110"/>
     <path d="M 45.40625 46.390625 
L 45.40625 75.984375 
L 54.390625 75.984375 
L 54.390625 0 
L 45.40625 0 
L 45.40625 8.203125 
Q 42.578125 3.328125 38.25 0.953125 
Q 33.9375 -1.421875 27.875 -1.421875 
Q 17.96875 -1.421875 11.734375 6.484375 
Q 5.515625 14.40625 5.515625 27.296875 
Q 5.515625 40.1875 11.734375 48.09375 
Q 17.96875 56 27.875 56 
Q 33.9375 56 38.25 53.625 
Q 42.578125 51.265625 45.40625 46.390625 
z
M 14.796875 27.296875 
Q 14.796875 17.390625 18.875 11.75 
Q 22.953125 6.109375 30.078125 6.109375 
Q 37.203125 6.109375 41.296875 11.75 
Q 45.40625 17.390625 45.40625 27.296875 
Q 45.40625 37.203125 41.296875 42.84375 
Q 37.203125 48.484375 30.078125 48.484375 
Q 22.953125 48.484375 18.875 42.84375 
Q 14.796875 37.203125 14.796875 27.296875 
z
" id="DejaVuSans-100"/>
     <path d="M 9.421875 75.984375 
L 18.40625 75.984375 
L 18.40625 0 
L 9.421875 0 
z
" id="DejaVuSans-108"/>
    </defs>
    <g transform="translate(313.141875 54.48)scale(0.12 -0.12)">
     <use xlink:href="#DejaVuSans-70"/>
     <use x="52.019531" xlink:href="#DejaVuSans-101"/>
     <use x="113.542969" xlink:href="#DejaVuSans-116"/>
     <use x="152.751953" xlink:href="#DejaVuSans-99"/>
     <use x="207.732422" xlink:href="#DejaVuSans-104"/>
     <use x="271.111328" xlink:href="#DejaVuSans-80"/>
     <use x="329.164062" xlink:href="#DejaVuSans-105"/>
     <use x="356.947266" xlink:href="#DejaVuSans-99"/>
     <use x="411.927734" xlink:href="#DejaVuSans-107"/>
     <use x="469.837891" xlink:href="#DejaVuSans-65"/>
     <use x="538.246094" xlink:href="#DejaVuSans-110"/>
     <use x="601.625" xlink:href="#DejaVuSans-100"/>
     <use x="665.101562" xlink:href="#DejaVuSans-80"/>
     <use x="725.404297" xlink:href="#DejaVuSans-108"/>
     <use x="753.1875" xlink:href="#DejaVuSans-97"/>
     <use x="814.466797" xlink:href="#DejaVuSans-99"/>
     <use x="869.447266" xlink:href="#DejaVuSans-101"/>
    </g>
   </g>
   <g id="legend_1">
    <g id="patch_7">
     <path d="M 538.4 136.584 
L 628.745313 136.584 
Q 630.745313 136.584 630.745313 134.584 
L 630.745313 106.22775 
Q 630.745313 104.22775 628.745313 104.22775 
L 538.4 104.22775 
Q 536.4 104.22775 536.4 106.22775 
L 536.4 134.584 
Q 536.4 136.584 538.4 136.584 
z
" style="fill:#ffffff;opacity:0.8;stroke:#cccccc;stroke-linejoin:miter;"/>
    </g>
    <g id="line2d_33">
     <path d="M 540.4 112.326188 
L 560.4 112.326188 
" style="fill:none;stroke:#1f77b4;stroke-linecap:square;stroke-width:1.5;"/>
    </g>
    <g id="line2d_34"/>
    <g id="text_19">
     <!-- DDPG+HER -->
     <defs>
      <path d="M 19.671875 64.796875 
L 19.671875 8.109375 
L 31.59375 8.109375 
Q 46.6875 8.109375 53.6875 14.9375 
Q 60.6875 21.78125 60.6875 36.53125 
Q 60.6875 51.171875 53.6875 57.984375 
Q 46.6875 64.796875 31.59375 64.796875 
z
M 9.8125 72.90625 
L 30.078125 72.90625 
Q 51.265625 72.90625 61.171875 64.09375 
Q 71.09375 55.28125 71.09375 36.53125 
Q 71.09375 17.671875 61.125 8.828125 
Q 51.171875 0 30.078125 0 
L 9.8125 0 
z
" id="DejaVuSans-68"/>
      <path d="M 59.515625 10.40625 
L 59.515625 29.984375 
L 43.40625 29.984375 
L 43.40625 38.09375 
L 69.28125 38.09375 
L 69.28125 6.78125 
Q 63.578125 2.734375 56.6875 0.65625 
Q 49.8125 -1.421875 42 -1.421875 
Q 24.90625 -1.421875 15.25 8.5625 
Q 5.609375 18.5625 5.609375 36.375 
Q 5.609375 54.25 15.25 64.234375 
Q 24.90625 74.21875 42 74.21875 
Q 49.125 74.21875 55.546875 72.453125 
Q 61.96875 70.703125 67.390625 67.28125 
L 67.390625 56.78125 
Q 61.921875 61.421875 55.765625 63.765625 
Q 49.609375 66.109375 42.828125 66.109375 
Q 29.4375 66.109375 22.71875 58.640625 
Q 16.015625 51.171875 16.015625 36.375 
Q 16.015625 21.625 22.71875 14.15625 
Q 29.4375 6.6875 42.828125 6.6875 
Q 48.046875 6.6875 52.140625 7.59375 
Q 56.25 8.5 59.515625 10.40625 
z
" id="DejaVuSans-71"/>
      <path d="M 46 62.703125 
L 46 35.5 
L 73.1875 35.5 
L 73.1875 27.203125 
L 46 27.203125 
L 46 0 
L 37.796875 0 
L 37.796875 27.203125 
L 10.59375 27.203125 
L 10.59375 35.5 
L 37.796875 35.5 
L 37.796875 62.703125 
z
" id="DejaVuSans-43"/>
      <path d="M 9.8125 72.90625 
L 19.671875 72.90625 
L 19.671875 43.015625 
L 55.515625 43.015625 
L 55.515625 72.90625 
L 65.375 72.90625 
L 65.375 0 
L 55.515625 0 
L 55.515625 34.71875 
L 19.671875 34.71875 
L 19.671875 0 
L 9.8125 0 
z
" id="DejaVuSans-72"/>
      <path d="M 9.8125 72.90625 
L 55.90625 72.90625 
L 55.90625 64.59375 
L 19.671875 64.59375 
L 19.671875 43.015625 
L 54.390625 43.015625 
L 54.390625 34.71875 
L 19.671875 34.71875 
L 19.671875 8.296875 
L 56.78125 8.296875 
L 56.78125 0 
L 9.8125 0 
z
" id="DejaVuSans-69"/>
      <path d="M 44.390625 34.1875 
Q 47.5625 33.109375 50.5625 29.59375 
Q 53.5625 26.078125 56.59375 19.921875 
L 66.609375 0 
L 56 0 
L 46.6875 18.703125 
Q 43.0625 26.03125 39.671875 28.421875 
Q 36.28125 30.8125 30.421875 30.8125 
L 19.671875 30.8125 
L 19.671875 0 
L 9.8125 0 
L 9.8125 72.90625 
L 32.078125 72.90625 
Q 44.578125 72.90625 50.734375 67.671875 
Q 56.890625 62.453125 56.890625 51.90625 
Q 56.890625 45.015625 53.6875 40.46875 
Q 50.484375 35.9375 44.390625 34.1875 
z
M 19.671875 64.796875 
L 19.671875 38.921875 
L 32.078125 38.921875 
Q 39.203125 38.921875 42.84375 42.21875 
Q 46.484375 45.515625 46.484375 51.90625 
Q 46.484375 58.296875 42.84375 61.546875 
Q 39.203125 64.796875 32.078125 64.796875 
z
" id="DejaVuSans-82"/>
     </defs>
     <g transform="translate(568.4 115.826188)scale(0.1 -0.1)">
      <use xlink:href="#DejaVuSans-68"/>
      <use x="77.001953" xlink:href="#DejaVuSans-68"/>
      <use x="154.003906" xlink:href="#DejaVuSans-80"/>
      <use x="214.306641" xlink:href="#DejaVuSans-71"/>
      <use x="291.796875" xlink:href="#DejaVuSans-43"/>
      <use x="375.585938" xlink:href="#DejaVuSans-72"/>
      <use x="450.78125" xlink:href="#DejaVuSans-69"/>
      <use x="513.964844" xlink:href="#DejaVuSans-82"/>
     </g>
    </g>
    <g id="line2d_35">
     <path d="M 540.4 127.004313 
L 560.4 127.004313 
" style="fill:none;stroke:#ff7f0e;stroke-linecap:square;stroke-width:1.5;"/>
    </g>
    <g id="line2d_36"/>
    <g id="text_20">
     <!-- DDPG -->
     <g transform="translate(568.4 130.504313)scale(0.1 -0.1)">
      <use xlink:href="#DejaVuSans-68"/>
      <use x="77.001953" xlink:href="#DejaVuSans-68"/>
      <use x="154.003906" xlink:href="#DejaVuSans-80"/>
      <use x="214.306641" xlink:href="#DejaVuSans-71"/>
     </g>
    </g>
   </g>
  </g>
 </g>
 <defs>
  <clipPath id="p3906a33f6c">
   <rect height="380.52" width="558" x="90" y="60.48"/>
  </clipPath>
 </defs>
</svg>
