<?xml version="1.0" encoding="utf-8" standalone="no"?>
<!DOCTYPE svg PUBLIC "-//W3C//DTD SVG 1.1//EN"
  "http://www.w3.org/Graphics/SVG/1.1/DTD/svg11.dtd">
<!-- Created with matplotlib (https://matplotlib.org/) -->
<svg height="504pt" version="1.1" viewBox="0 0 720 504" width="720pt" xmlns="http://www.w3.org/2000/svg" xmlns:xlink="http://www.w3.org/1999/xlink">
 <defs>
  <style type="text/css">
*{stroke-linecap:butt;stroke-linejoin:round;}
  </style>
 </defs>
 <g id="figure_1">
  <g id="patch_1">
   <path d="M 0 504 
L 720 504 
L 720 0 
L 0 0 
z
" style="fill:#ffffff;"/>
  </g>
  <g id="axes_1">
   <g id="patch_2">
    <path d="M 90 441 
L 648 441 
L 648 60.48 
L 90 60.48 
z
" style="fill:#ffffff;"/>
   </g>
   <g id="PolyCollection_1">
    <path clip-path="url(#p52af482409)" d="M 115.363636 406.247072 
L 115.363636 408.196841 
L 117.912746 408.196841 
L 120.461855 393.055507 
L 123.010964 388.91942 
L 125.560073 404.975825 
L 128.109182 399.461042 
L 130.658291 411.667898 
L 133.207401 403.688365 
L 135.75651 395.788581 
L 138.305619 409.575537 
L 140.854728 397.167277 
L 143.403837 408.196841 
L 145.952947 383.85239 
L 148.502056 410.581843 
L 151.051165 412.378789 
L 153.600274 395.918256 
L 156.149383 410.310745 
L 158.698492 399.288071 
L 161.247602 387.569157 
L 163.796711 389.826142 
L 166.34582 398.570603 
L 168.894929 397.911102 
L 171.444038 401.86109 
L 173.993148 400.583566 
L 176.542257 397.544553 
L 179.091366 394.877415 
L 181.640475 388.812071 
L 184.189584 405.677361 
L 186.738693 396.477499 
L 189.287803 402.317988 
L 191.836912 388.172538 
L 194.386021 371.008152 
L 196.93513 359.323474 
L 199.484239 362.698716 
L 202.033349 356.125642 
L 204.582458 340.237107 
L 207.131567 352.76562 
L 209.680676 332.823299 
L 212.229785 347.865783 
L 214.778894 326.916791 
L 217.328004 331.634733 
L 219.877113 299.987908 
L 222.426222 287.664445 
L 224.975331 267.948719 
L 227.52444 281.946428 
L 230.07355 263.460324 
L 232.622659 246.291761 
L 235.171768 202.574662 
L 237.720877 183.211256 
L 240.269986 203.166376 
L 242.819095 180.269587 
L 245.368205 194.634101 
L 247.917314 157.829371 
L 250.466423 180.317806 
L 253.015532 179.075171 
L 255.564641 151.36404 
L 258.113751 139.646426 
L 260.66286 143.949872 
L 263.211969 140.896799 
L 265.761078 116.957159 
L 268.310187 117.096908 
L 270.859296 112.519382 
L 273.408406 107.929022 
L 275.957515 103.149928 
L 278.506624 110.859639 
L 281.055733 101.909125 
L 283.604842 104.24209 
L 286.153952 101.88986 
L 288.703061 97.990314 
L 291.25217 99.77283 
L 293.801279 101.88986 
L 296.350388 98.275853 
L 298.899497 96.897158 
L 301.448607 97.990314 
L 303.997716 100.629433 
L 306.546825 98.96521 
L 309.095934 102.293672 
L 311.645043 95.922285 
L 314.194153 101.033241 
L 316.743262 108.79159 
L 319.292371 104.240316 
L 321.84148 98.96521 
L 324.390589 100.973427 
L 326.939698 104.666527 
L 329.488808 99.393334 
L 332.037917 104.24209 
L 334.587026 96.897158 
L 337.136135 95.922285 
L 339.685244 103.554099 
L 342.234354 101.033241 
L 344.783463 97.30097 
L 347.332572 97.30097 
L 349.881681 98.96521 
L 352.43079 100.530428 
L 354.979899 99.594739 
L 357.529009 98.905395 
L 360.078118 97.325289 
L 362.627227 99.594739 
L 365.176336 97.30097 
L 367.725445 102.69748 
L 370.274555 103.332905 
L 372.823664 100.225621 
L 375.372773 99.594739 
L 377.921882 97.990314 
L 380.470991 100.629433 
L 383.020101 97.325289 
L 385.56921 99.594739 
L 388.118319 99.393334 
L 390.667428 98.96521 
L 393.216537 99.594739 
L 395.765646 97.325289 
L 398.314756 98.905395 
L 400.863865 99.594739 
L 403.412974 99.594739 
L 405.962083 95.232935 
L 408.511192 95.636747 
L 411.060302 95.636747 
L 413.609411 98.96521 
L 416.15852 97.990314 
L 418.707629 95.232935 
L 421.256738 95.232935 
L 423.805847 97.990314 
L 426.354957 97.30097 
L 428.904066 98.275853 
L 431.453175 97.325289 
L 434.002284 97.325289 
L 436.551393 95.922285 
L 439.100503 95.232935 
L 441.649612 98.275853 
L 444.198721 102.598476 
L 446.74783 97.990314 
L 449.296939 97.30097 
L 451.846048 99.369018 
L 454.395158 98.275853 
L 456.944267 98.275853 
L 459.493376 97.325289 
L 462.042485 95.922285 
L 464.591594 98.905395 
L 467.140704 100.530428 
L 469.689813 98.905395 
L 472.238922 98.905395 
L 474.788031 96.897158 
L 477.33714 99.369018 
L 479.886249 97.704779 
L 482.435359 105.109525 
L 484.984468 95.232935 
L 487.533577 100.629433 
L 490.082686 95.922285 
L 492.631795 100.629433 
L 495.180905 101.461372 
L 497.730014 99.594739 
L 500.279123 95.232935 
L 502.828232 98.96521 
L 505.377341 100.530428 
L 507.92645 95.232935 
L 510.47556 95.922285 
L 513.024669 95.922285 
L 515.573778 96.897158 
L 518.122887 95.232935 
L 520.671996 100.629442 
L 523.221106 97.325289 
L 525.770215 100.530428 
L 528.319324 98.905395 
L 530.868433 99.594739 
L 533.417542 101.662777 
L 535.966651 95.636747 
L 538.515761 100.629433 
L 541.06487 100.530428 
L 543.613979 98.561397 
L 546.163088 97.990314 
L 548.712197 95.922285 
L 551.261307 95.232935 
L 553.810416 97.325289 
L 556.359525 97.704779 
L 558.908634 95.636747 
L 561.457743 97.990314 
L 564.006852 99.393334 
L 566.555962 95.232935 
L 569.105071 98.96521 
L 571.65418 95.232935 
L 574.203289 96.897158 
L 576.752398 95.922285 
L 579.301508 100.629442 
L 581.850617 97.990314 
L 584.399726 95.922285 
L 586.948835 98.96521 
L 589.497944 97.704779 
L 592.047053 95.232935 
L 594.596163 95.232935 
L 597.145272 97.990314 
L 599.694381 97.325289 
L 602.24349 95.922285 
L 604.792599 98.96521 
L 607.341709 100.973427 
L 609.890818 98.275853 
L 612.439927 95.232935 
L 614.989036 95.922285 
L 617.538145 104.24209 
L 620.087254 97.325289 
L 622.636364 97.325289 
L 622.636364 93.948192 
L 622.636364 93.948192 
L 620.087254 93.948192 
L 617.538145 93.924869 
L 614.989036 93.972508 
L 612.439927 93.283157 
L 609.890818 94.376316 
L 607.341709 95.814832 
L 604.792599 95.065673 
L 602.24349 93.972508 
L 599.694381 93.948192 
L 597.145272 96.040555 
L 594.596163 93.283157 
L 592.047053 93.283157 
L 589.497944 97.704779 
L 586.948835 95.065673 
L 584.399726 93.972508 
L 581.850617 96.040555 
L 579.301508 94.780128 
L 576.752398 93.972508 
L 574.203289 92.997622 
L 571.65418 93.283157 
L 569.105071 95.065673 
L 566.555962 93.283157 
L 564.006852 96.016236 
L 561.457743 96.040555 
L 558.908634 95.636747 
L 556.359525 97.704779 
L 553.810416 93.948192 
L 551.261307 93.283157 
L 548.712197 93.972508 
L 546.163088 96.040555 
L 543.613979 92.712083 
L 541.06487 93.500441 
L 538.515761 94.780138 
L 535.966651 95.636747 
L 533.417542 96.504182 
L 530.868433 94.43613 
L 528.319324 93.746786 
L 525.770215 93.500441 
L 523.221106 93.948192 
L 520.671996 94.780128 
L 518.122887 93.283157 
L 515.573778 92.997622 
L 513.024669 93.972508 
L 510.47556 93.972508 
L 507.92645 93.283157 
L 505.377341 93.500441 
L 502.828232 95.065673 
L 500.279123 93.283157 
L 497.730014 94.43613 
L 495.180905 98.084275 
L 492.631795 94.780138 
L 490.082686 93.972508 
L 487.533577 94.780138 
L 484.984468 93.283157 
L 482.435359 99.950913 
L 479.886249 97.704779 
L 477.33714 97.41924 
L 474.788031 92.997622 
L 472.238922 93.746786 
L 469.689813 93.746786 
L 467.140704 93.500441 
L 464.591594 93.746786 
L 462.042485 93.972508 
L 459.493376 93.948192 
L 456.944267 94.376316 
L 454.395158 94.376316 
L 451.846048 97.41924 
L 449.296939 95.351211 
L 446.74783 96.040555 
L 444.198721 95.568484 
L 441.649612 94.376316 
L 439.100503 93.283157 
L 436.551393 93.972508 
L 434.002284 93.948192 
L 431.453175 93.948192 
L 428.904066 94.376316 
L 426.354957 95.351211 
L 423.805847 96.040555 
L 421.256738 93.283157 
L 418.707629 93.283157 
L 416.15852 96.040555 
L 413.609411 95.065673 
L 411.060302 95.636747 
L 408.511192 95.636747 
L 405.962083 93.283157 
L 403.412974 94.43613 
L 400.863865 94.43613 
L 398.314756 93.746786 
L 395.765646 93.948192 
L 393.216537 94.43613 
L 390.667428 95.065673 
L 388.118319 96.016236 
L 385.56921 94.43613 
L 383.020101 93.948192 
L 380.470991 94.780138 
L 377.921882 96.040555 
L 375.372773 94.43613 
L 372.823664 92.426548 
L 370.274555 94.834054 
L 367.725445 96.848166 
L 365.176336 95.351211 
L 362.627227 94.43613 
L 360.078118 93.948192 
L 357.529009 93.746786 
L 354.979899 94.43613 
L 352.43079 93.500441 
L 349.881681 95.065673 
L 347.332572 95.351211 
L 344.783463 95.351211 
L 342.234354 97.133705 
L 339.685244 91.855471 
L 337.136135 93.972508 
L 334.587026 92.997622 
L 332.037917 93.924869 
L 329.488808 96.016236 
L 326.939698 97.636522 
L 324.390589 95.814832 
L 321.84148 95.065673 
L 319.292371 95.305344 
L 316.743262 92.132758 
L 314.194153 97.133705 
L 311.645043 93.972508 
L 309.095934 94.494599 
L 306.546825 95.065673 
L 303.997716 94.780138 
L 301.448607 96.040555 
L 298.899497 92.997622 
L 296.350388 94.376316 
L 293.801279 92.14101 
L 291.25217 99.77283 
L 288.703061 96.040555 
L 286.153952 92.14101 
L 283.604842 93.924869 
L 281.055733 94.879133 
L 278.506624 94.200799 
L 275.957515 96.395732 
L 273.408406 95.752714 
L 270.859296 93.919756 
L 268.310187 90.720918 
L 265.761078 97.754145 
L 263.211969 88.980163 
L 260.66286 87.305777 
L 258.113751 91.609224 
L 255.564641 90.921178 
L 253.015532 92.162647 
L 250.466423 79.890457 
L 247.917314 88.591936 
L 245.368205 83.497209 
L 242.819095 89.589544 
L 240.269986 92.887967 
L 237.720877 96.298741 
L 235.171768 79.692737 
L 232.622659 74.579112 
L 230.07355 84.984456 
L 227.52444 72.013143 
L 224.975331 77.738673 
L 222.426222 75.945979 
L 219.877113 85.681658 
L 217.328004 82.987441 
L 214.778894 111.143213 
L 212.229785 117.768123 
L 209.680676 90.071054 
L 207.131567 130.79134 
L 204.582458 139.183757 
L 202.033349 137.082185 
L 199.484239 140.159983 
L 196.93513 200.061746 
L 194.386021 242.146194 
L 191.836912 242.904852 
L 189.287803 263.226795 
L 186.738693 282.854238 
L 184.189584 262.624817 
L 181.640475 334.637931 
L 179.091366 357.525193 
L 176.542257 361.751534 
L 173.993148 346.304259 
L 171.444038 361.571082 
L 168.894929 372.414549 
L 166.34582 367.618963 
L 163.796711 369.469946 
L 161.247602 368.969538 
L 158.698492 380.688449 
L 156.149383 401.375776 
L 153.600274 384.058266 
L 151.051165 403.443819 
L 148.502056 399.725984 
L 145.952947 376.822393 
L 143.403837 406.247072 
L 140.854728 395.217507 
L 138.305619 407.625767 
L 135.75651 393.838811 
L 133.207401 392.832505 
L 130.658291 408.290797 
L 128.109182 394.302436 
L 125.560073 399.817217 
L 123.010964 385.54232 
L 120.461855 389.678405 
L 117.912746 406.247072 
L 115.363636 406.247072 
z
" style="fill:#1f77b4;fill-opacity:0.3;"/>
   </g>
   <g id="matplotlib.axis_1">
    <g id="xtick_1">
     <g id="line2d_1">
      <path clip-path="url(#p52af482409)" d="M 115.363636 441 
L 115.363636 60.48 
" style="fill:none;stroke:#b0b0b0;stroke-linecap:square;stroke-width:0.8;"/>
     </g>
     <g id="line2d_2">
      <defs>
       <path d="M 0 0 
L 0 3.5 
" id="meac795a735" style="stroke:#000000;stroke-width:0.8;"/>
      </defs>
      <g>
       <use style="stroke:#000000;stroke-width:0.8;" x="115.363636" xlink:href="#meac795a735" y="441"/>
      </g>
     </g>
     <g id="text_1">
      <!-- 0 -->
      <defs>
       <path d="M 31.78125 66.40625 
Q 24.171875 66.40625 20.328125 58.90625 
Q 16.5 51.421875 16.5 36.375 
Q 16.5 21.390625 20.328125 13.890625 
Q 24.171875 6.390625 31.78125 6.390625 
Q 39.453125 6.390625 43.28125 13.890625 
Q 47.125 21.390625 47.125 36.375 
Q 47.125 51.421875 43.28125 58.90625 
Q 39.453125 66.40625 31.78125 66.40625 
z
M 31.78125 74.21875 
Q 44.046875 74.21875 50.515625 64.515625 
Q 56.984375 54.828125 56.984375 36.375 
Q 56.984375 17.96875 50.515625 8.265625 
Q 44.046875 -1.421875 31.78125 -1.421875 
Q 19.53125 -1.421875 13.0625 8.265625 
Q 6.59375 17.96875 6.59375 36.375 
Q 6.59375 54.828125 13.0625 64.515625 
Q 19.53125 74.21875 31.78125 74.21875 
z
" id="DejaVuSans-48"/>
      </defs>
      <g transform="translate(112.182386 455.598437)scale(0.1 -0.1)">
       <use xlink:href="#DejaVuSans-48"/>
      </g>
     </g>
    </g>
    <g id="xtick_2">
     <g id="line2d_3">
      <path clip-path="url(#p52af482409)" d="M 179.091366 441 
L 179.091366 60.48 
" style="fill:none;stroke:#b0b0b0;stroke-linecap:square;stroke-width:0.8;"/>
     </g>
     <g id="line2d_4">
      <g>
       <use style="stroke:#000000;stroke-width:0.8;" x="179.091366" xlink:href="#meac795a735" y="441"/>
      </g>
     </g>
     <g id="text_2">
      <!-- 25 -->
      <defs>
       <path d="M 19.1875 8.296875 
L 53.609375 8.296875 
L 53.609375 0 
L 7.328125 0 
L 7.328125 8.296875 
Q 12.9375 14.109375 22.625 23.890625 
Q 32.328125 33.6875 34.8125 36.53125 
Q 39.546875 41.84375 41.421875 45.53125 
Q 43.3125 49.21875 43.3125 52.78125 
Q 43.3125 58.59375 39.234375 62.25 
Q 35.15625 65.921875 28.609375 65.921875 
Q 23.96875 65.921875 18.8125 64.3125 
Q 13.671875 62.703125 7.8125 59.421875 
L 7.8125 69.390625 
Q 13.765625 71.78125 18.9375 73 
Q 24.125 74.21875 28.421875 74.21875 
Q 39.75 74.21875 46.484375 68.546875 
Q 53.21875 62.890625 53.21875 53.421875 
Q 53.21875 48.921875 51.53125 44.890625 
Q 49.859375 40.875 45.40625 35.40625 
Q 44.1875 33.984375 37.640625 27.21875 
Q 31.109375 20.453125 19.1875 8.296875 
z
" id="DejaVuSans-50"/>
       <path d="M 10.796875 72.90625 
L 49.515625 72.90625 
L 49.515625 64.59375 
L 19.828125 64.59375 
L 19.828125 46.734375 
Q 21.96875 47.46875 24.109375 47.828125 
Q 26.265625 48.1875 28.421875 48.1875 
Q 40.625 48.1875 47.75 41.5 
Q 54.890625 34.8125 54.890625 23.390625 
Q 54.890625 11.625 47.5625 5.09375 
Q 40.234375 -1.421875 26.90625 -1.421875 
Q 22.3125 -1.421875 17.546875 -0.640625 
Q 12.796875 0.140625 7.71875 1.703125 
L 7.71875 11.625 
Q 12.109375 9.234375 16.796875 8.0625 
Q 21.484375 6.890625 26.703125 6.890625 
Q 35.15625 6.890625 40.078125 11.328125 
Q 45.015625 15.765625 45.015625 23.390625 
Q 45.015625 31 40.078125 35.4375 
Q 35.15625 39.890625 26.703125 39.890625 
Q 22.75 39.890625 18.8125 39.015625 
Q 14.890625 38.140625 10.796875 36.28125 
z
" id="DejaVuSans-53"/>
      </defs>
      <g transform="translate(172.728866 455.598437)scale(0.1 -0.1)">
       <use xlink:href="#DejaVuSans-50"/>
       <use x="63.623047" xlink:href="#DejaVuSans-53"/>
      </g>
     </g>
    </g>
    <g id="xtick_3">
     <g id="line2d_5">
      <path clip-path="url(#p52af482409)" d="M 242.819095 441 
L 242.819095 60.48 
" style="fill:none;stroke:#b0b0b0;stroke-linecap:square;stroke-width:0.8;"/>
     </g>
     <g id="line2d_6">
      <g>
       <use style="stroke:#000000;stroke-width:0.8;" x="242.819095" xlink:href="#meac795a735" y="441"/>
      </g>
     </g>
     <g id="text_3">
      <!-- 50 -->
      <g transform="translate(236.456595 455.598437)scale(0.1 -0.1)">
       <use xlink:href="#DejaVuSans-53"/>
       <use x="63.623047" xlink:href="#DejaVuSans-48"/>
      </g>
     </g>
    </g>
    <g id="xtick_4">
     <g id="line2d_7">
      <path clip-path="url(#p52af482409)" d="M 306.546825 441 
L 306.546825 60.48 
" style="fill:none;stroke:#b0b0b0;stroke-linecap:square;stroke-width:0.8;"/>
     </g>
     <g id="line2d_8">
      <g>
       <use style="stroke:#000000;stroke-width:0.8;" x="306.546825" xlink:href="#meac795a735" y="441"/>
      </g>
     </g>
     <g id="text_4">
      <!-- 75 -->
      <defs>
       <path d="M 8.203125 72.90625 
L 55.078125 72.90625 
L 55.078125 68.703125 
L 28.609375 0 
L 18.3125 0 
L 43.21875 64.59375 
L 8.203125 64.59375 
z
" id="DejaVuSans-55"/>
      </defs>
      <g transform="translate(300.184325 455.598437)scale(0.1 -0.1)">
       <use xlink:href="#DejaVuSans-55"/>
       <use x="63.623047" xlink:href="#DejaVuSans-53"/>
      </g>
     </g>
    </g>
    <g id="xtick_5">
     <g id="line2d_9">
      <path clip-path="url(#p52af482409)" d="M 370.274555 441 
L 370.274555 60.48 
" style="fill:none;stroke:#b0b0b0;stroke-linecap:square;stroke-width:0.8;"/>
     </g>
     <g id="line2d_10">
      <g>
       <use style="stroke:#000000;stroke-width:0.8;" x="370.274555" xlink:href="#meac795a735" y="441"/>
      </g>
     </g>
     <g id="text_5">
      <!-- 100 -->
      <defs>
       <path d="M 12.40625 8.296875 
L 28.515625 8.296875 
L 28.515625 63.921875 
L 10.984375 60.40625 
L 10.984375 69.390625 
L 28.421875 72.90625 
L 38.28125 72.90625 
L 38.28125 8.296875 
L 54.390625 8.296875 
L 54.390625 0 
L 12.40625 0 
z
" id="DejaVuSans-49"/>
      </defs>
      <g transform="translate(360.730805 455.598437)scale(0.1 -0.1)">
       <use xlink:href="#DejaVuSans-49"/>
       <use x="63.623047" xlink:href="#DejaVuSans-48"/>
       <use x="127.246094" xlink:href="#DejaVuSans-48"/>
      </g>
     </g>
    </g>
    <g id="xtick_6">
     <g id="line2d_11">
      <path clip-path="url(#p52af482409)" d="M 434.002284 441 
L 434.002284 60.48 
" style="fill:none;stroke:#b0b0b0;stroke-linecap:square;stroke-width:0.8;"/>
     </g>
     <g id="line2d_12">
      <g>
       <use style="stroke:#000000;stroke-width:0.8;" x="434.002284" xlink:href="#meac795a735" y="441"/>
      </g>
     </g>
     <g id="text_6">
      <!-- 125 -->
      <g transform="translate(424.458534 455.598437)scale(0.1 -0.1)">
       <use xlink:href="#DejaVuSans-49"/>
       <use x="63.623047" xlink:href="#DejaVuSans-50"/>
       <use x="127.246094" xlink:href="#DejaVuSans-53"/>
      </g>
     </g>
    </g>
    <g id="xtick_7">
     <g id="line2d_13">
      <path clip-path="url(#p52af482409)" d="M 497.730014 441 
L 497.730014 60.48 
" style="fill:none;stroke:#b0b0b0;stroke-linecap:square;stroke-width:0.8;"/>
     </g>
     <g id="line2d_14">
      <g>
       <use style="stroke:#000000;stroke-width:0.8;" x="497.730014" xlink:href="#meac795a735" y="441"/>
      </g>
     </g>
     <g id="text_7">
      <!-- 150 -->
      <g transform="translate(488.186264 455.598437)scale(0.1 -0.1)">
       <use xlink:href="#DejaVuSans-49"/>
       <use x="63.623047" xlink:href="#DejaVuSans-53"/>
       <use x="127.246094" xlink:href="#DejaVuSans-48"/>
      </g>
     </g>
    </g>
    <g id="xtick_8">
     <g id="line2d_15">
      <path clip-path="url(#p52af482409)" d="M 561.457743 441 
L 561.457743 60.48 
" style="fill:none;stroke:#b0b0b0;stroke-linecap:square;stroke-width:0.8;"/>
     </g>
     <g id="line2d_16">
      <g>
       <use style="stroke:#000000;stroke-width:0.8;" x="561.457743" xlink:href="#meac795a735" y="441"/>
      </g>
     </g>
     <g id="text_8">
      <!-- 175 -->
      <g transform="translate(551.913993 455.598437)scale(0.1 -0.1)">
       <use xlink:href="#DejaVuSans-49"/>
       <use x="63.623047" xlink:href="#DejaVuSans-55"/>
       <use x="127.246094" xlink:href="#DejaVuSans-53"/>
      </g>
     </g>
    </g>
    <g id="xtick_9">
     <g id="line2d_17">
      <path clip-path="url(#p52af482409)" d="M 625.185473 441 
L 625.185473 60.48 
" style="fill:none;stroke:#b0b0b0;stroke-linecap:square;stroke-width:0.8;"/>
     </g>
     <g id="line2d_18">
      <g>
       <use style="stroke:#000000;stroke-width:0.8;" x="625.185473" xlink:href="#meac795a735" y="441"/>
      </g>
     </g>
     <g id="text_9">
      <!-- 200 -->
      <g transform="translate(615.641723 455.598437)scale(0.1 -0.1)">
       <use xlink:href="#DejaVuSans-50"/>
       <use x="63.623047" xlink:href="#DejaVuSans-48"/>
       <use x="127.246094" xlink:href="#DejaVuSans-48"/>
      </g>
     </g>
    </g>
    <g id="text_10">
     <!-- epochs -->
     <defs>
      <path d="M 56.203125 29.59375 
L 56.203125 25.203125 
L 14.890625 25.203125 
Q 15.484375 15.921875 20.484375 11.0625 
Q 25.484375 6.203125 34.421875 6.203125 
Q 39.59375 6.203125 44.453125 7.46875 
Q 49.3125 8.734375 54.109375 11.28125 
L 54.109375 2.78125 
Q 49.265625 0.734375 44.1875 -0.34375 
Q 39.109375 -1.421875 33.890625 -1.421875 
Q 20.796875 -1.421875 13.15625 6.1875 
Q 5.515625 13.8125 5.515625 26.8125 
Q 5.515625 40.234375 12.765625 48.109375 
Q 20.015625 56 32.328125 56 
Q 43.359375 56 49.78125 48.890625 
Q 56.203125 41.796875 56.203125 29.59375 
z
M 47.21875 32.234375 
Q 47.125 39.59375 43.09375 43.984375 
Q 39.0625 48.390625 32.421875 48.390625 
Q 24.90625 48.390625 20.390625 44.140625 
Q 15.875 39.890625 15.1875 32.171875 
z
" id="DejaVuSans-101"/>
      <path d="M 18.109375 8.203125 
L 18.109375 -20.796875 
L 9.078125 -20.796875 
L 9.078125 54.6875 
L 18.109375 54.6875 
L 18.109375 46.390625 
Q 20.953125 51.265625 25.265625 53.625 
Q 29.59375 56 35.59375 56 
Q 45.5625 56 51.78125 48.09375 
Q 58.015625 40.1875 58.015625 27.296875 
Q 58.015625 14.40625 51.78125 6.484375 
Q 45.5625 -1.421875 35.59375 -1.421875 
Q 29.59375 -1.421875 25.265625 0.953125 
Q 20.953125 3.328125 18.109375 8.203125 
z
M 48.6875 27.296875 
Q 48.6875 37.203125 44.609375 42.84375 
Q 40.53125 48.484375 33.40625 48.484375 
Q 26.265625 48.484375 22.1875 42.84375 
Q 18.109375 37.203125 18.109375 27.296875 
Q 18.109375 17.390625 22.1875 11.75 
Q 26.265625 6.109375 33.40625 6.109375 
Q 40.53125 6.109375 44.609375 11.75 
Q 48.6875 17.390625 48.6875 27.296875 
z
" id="DejaVuSans-112"/>
      <path d="M 30.609375 48.390625 
Q 23.390625 48.390625 19.1875 42.75 
Q 14.984375 37.109375 14.984375 27.296875 
Q 14.984375 17.484375 19.15625 11.84375 
Q 23.34375 6.203125 30.609375 6.203125 
Q 37.796875 6.203125 41.984375 11.859375 
Q 46.1875 17.53125 46.1875 27.296875 
Q 46.1875 37.015625 41.984375 42.703125 
Q 37.796875 48.390625 30.609375 48.390625 
z
M 30.609375 56 
Q 42.328125 56 49.015625 48.375 
Q 55.71875 40.765625 55.71875 27.296875 
Q 55.71875 13.875 49.015625 6.21875 
Q 42.328125 -1.421875 30.609375 -1.421875 
Q 18.84375 -1.421875 12.171875 6.21875 
Q 5.515625 13.875 5.515625 27.296875 
Q 5.515625 40.765625 12.171875 48.375 
Q 18.84375 56 30.609375 56 
z
" id="DejaVuSans-111"/>
      <path d="M 48.78125 52.59375 
L 48.78125 44.1875 
Q 44.96875 46.296875 41.140625 47.34375 
Q 37.3125 48.390625 33.40625 48.390625 
Q 24.65625 48.390625 19.8125 42.84375 
Q 14.984375 37.3125 14.984375 27.296875 
Q 14.984375 17.28125 19.8125 11.734375 
Q 24.65625 6.203125 33.40625 6.203125 
Q 37.3125 6.203125 41.140625 7.25 
Q 44.96875 8.296875 48.78125 10.40625 
L 48.78125 2.09375 
Q 45.015625 0.34375 40.984375 -0.53125 
Q 36.96875 -1.421875 32.421875 -1.421875 
Q 20.0625 -1.421875 12.78125 6.34375 
Q 5.515625 14.109375 5.515625 27.296875 
Q 5.515625 40.671875 12.859375 48.328125 
Q 20.21875 56 33.015625 56 
Q 37.15625 56 41.109375 55.140625 
Q 45.0625 54.296875 48.78125 52.59375 
z
" id="DejaVuSans-99"/>
      <path d="M 54.890625 33.015625 
L 54.890625 0 
L 45.90625 0 
L 45.90625 32.71875 
Q 45.90625 40.484375 42.875 44.328125 
Q 39.84375 48.1875 33.796875 48.1875 
Q 26.515625 48.1875 22.3125 43.546875 
Q 18.109375 38.921875 18.109375 30.90625 
L 18.109375 0 
L 9.078125 0 
L 9.078125 75.984375 
L 18.109375 75.984375 
L 18.109375 46.1875 
Q 21.34375 51.125 25.703125 53.5625 
Q 30.078125 56 35.796875 56 
Q 45.21875 56 50.046875 50.171875 
Q 54.890625 44.34375 54.890625 33.015625 
z
" id="DejaVuSans-104"/>
      <path d="M 44.28125 53.078125 
L 44.28125 44.578125 
Q 40.484375 46.53125 36.375 47.5 
Q 32.28125 48.484375 27.875 48.484375 
Q 21.1875 48.484375 17.84375 46.4375 
Q 14.5 44.390625 14.5 40.28125 
Q 14.5 37.15625 16.890625 35.375 
Q 19.28125 33.59375 26.515625 31.984375 
L 29.59375 31.296875 
Q 39.15625 29.25 43.1875 25.515625 
Q 47.21875 21.78125 47.21875 15.09375 
Q 47.21875 7.46875 41.1875 3.015625 
Q 35.15625 -1.421875 24.609375 -1.421875 
Q 20.21875 -1.421875 15.453125 -0.5625 
Q 10.6875 0.296875 5.421875 2 
L 5.421875 11.28125 
Q 10.40625 8.6875 15.234375 7.390625 
Q 20.0625 6.109375 24.8125 6.109375 
Q 31.15625 6.109375 34.5625 8.28125 
Q 37.984375 10.453125 37.984375 14.40625 
Q 37.984375 18.0625 35.515625 20.015625 
Q 33.0625 21.96875 24.703125 23.78125 
L 21.578125 24.515625 
Q 13.234375 26.265625 9.515625 29.90625 
Q 5.8125 33.546875 5.8125 39.890625 
Q 5.8125 47.609375 11.28125 51.796875 
Q 16.75 56 26.8125 56 
Q 31.78125 56 36.171875 55.265625 
Q 40.578125 54.546875 44.28125 53.078125 
z
" id="DejaVuSans-115"/>
     </defs>
     <g transform="translate(351.167188 469.276563)scale(0.1 -0.1)">
      <use xlink:href="#DejaVuSans-101"/>
      <use x="61.523438" xlink:href="#DejaVuSans-112"/>
      <use x="125" xlink:href="#DejaVuSans-111"/>
      <use x="186.181641" xlink:href="#DejaVuSans-99"/>
      <use x="241.162109" xlink:href="#DejaVuSans-104"/>
      <use x="304.541016" xlink:href="#DejaVuSans-115"/>
     </g>
    </g>
   </g>
   <g id="matplotlib.axis_2">
    <g id="ytick_1">
     <g id="line2d_19">
      <path clip-path="url(#p52af482409)" d="M 90 424.455652 
L 648 424.455652 
" style="fill:none;stroke:#b0b0b0;stroke-linecap:square;stroke-width:0.8;"/>
     </g>
     <g id="line2d_20">
      <defs>
       <path d="M 0 0 
L -3.5 0 
" id="maa7c3b5066" style="stroke:#000000;stroke-width:0.8;"/>
      </defs>
      <g>
       <use style="stroke:#000000;stroke-width:0.8;" x="90" xlink:href="#maa7c3b5066" y="424.455652"/>
      </g>
     </g>
     <g id="text_11">
      <!-- 0.0 -->
      <defs>
       <path d="M 10.6875 12.40625 
L 21 12.40625 
L 21 0 
L 10.6875 0 
z
" id="DejaVuSans-46"/>
      </defs>
      <g transform="translate(67.096875 428.254871)scale(0.1 -0.1)">
       <use xlink:href="#DejaVuSans-48"/>
       <use x="63.623047" xlink:href="#DejaVuSans-46"/>
       <use x="95.410156" xlink:href="#DejaVuSans-48"/>
      </g>
     </g>
    </g>
    <g id="ytick_2">
     <g id="line2d_21">
      <path clip-path="url(#p52af482409)" d="M 90 358.278261 
L 648 358.278261 
" style="fill:none;stroke:#b0b0b0;stroke-linecap:square;stroke-width:0.8;"/>
     </g>
     <g id="line2d_22">
      <g>
       <use style="stroke:#000000;stroke-width:0.8;" x="90" xlink:href="#maa7c3b5066" y="358.278261"/>
      </g>
     </g>
     <g id="text_12">
      <!-- 0.2 -->
      <g transform="translate(67.096875 362.07748)scale(0.1 -0.1)">
       <use xlink:href="#DejaVuSans-48"/>
       <use x="63.623047" xlink:href="#DejaVuSans-46"/>
       <use x="95.410156" xlink:href="#DejaVuSans-50"/>
      </g>
     </g>
    </g>
    <g id="ytick_3">
     <g id="line2d_23">
      <path clip-path="url(#p52af482409)" d="M 90 292.10087 
L 648 292.10087 
" style="fill:none;stroke:#b0b0b0;stroke-linecap:square;stroke-width:0.8;"/>
     </g>
     <g id="line2d_24">
      <g>
       <use style="stroke:#000000;stroke-width:0.8;" x="90" xlink:href="#maa7c3b5066" y="292.10087"/>
      </g>
     </g>
     <g id="text_13">
      <!-- 0.4 -->
      <defs>
       <path d="M 37.796875 64.3125 
L 12.890625 25.390625 
L 37.796875 25.390625 
z
M 35.203125 72.90625 
L 47.609375 72.90625 
L 47.609375 25.390625 
L 58.015625 25.390625 
L 58.015625 17.1875 
L 47.609375 17.1875 
L 47.609375 0 
L 37.796875 0 
L 37.796875 17.1875 
L 4.890625 17.1875 
L 4.890625 26.703125 
z
" id="DejaVuSans-52"/>
      </defs>
      <g transform="translate(67.096875 295.900088)scale(0.1 -0.1)">
       <use xlink:href="#DejaVuSans-48"/>
       <use x="63.623047" xlink:href="#DejaVuSans-46"/>
       <use x="95.410156" xlink:href="#DejaVuSans-52"/>
      </g>
     </g>
    </g>
    <g id="ytick_4">
     <g id="line2d_25">
      <path clip-path="url(#p52af482409)" d="M 90 225.923478 
L 648 225.923478 
" style="fill:none;stroke:#b0b0b0;stroke-linecap:square;stroke-width:0.8;"/>
     </g>
     <g id="line2d_26">
      <g>
       <use style="stroke:#000000;stroke-width:0.8;" x="90" xlink:href="#maa7c3b5066" y="225.923478"/>
      </g>
     </g>
     <g id="text_14">
      <!-- 0.6 -->
      <defs>
       <path d="M 33.015625 40.375 
Q 26.375 40.375 22.484375 35.828125 
Q 18.609375 31.296875 18.609375 23.390625 
Q 18.609375 15.53125 22.484375 10.953125 
Q 26.375 6.390625 33.015625 6.390625 
Q 39.65625 6.390625 43.53125 10.953125 
Q 47.40625 15.53125 47.40625 23.390625 
Q 47.40625 31.296875 43.53125 35.828125 
Q 39.65625 40.375 33.015625 40.375 
z
M 52.59375 71.296875 
L 52.59375 62.3125 
Q 48.875 64.0625 45.09375 64.984375 
Q 41.3125 65.921875 37.59375 65.921875 
Q 27.828125 65.921875 22.671875 59.328125 
Q 17.53125 52.734375 16.796875 39.40625 
Q 19.671875 43.65625 24.015625 45.921875 
Q 28.375 48.1875 33.59375 48.1875 
Q 44.578125 48.1875 50.953125 41.515625 
Q 57.328125 34.859375 57.328125 23.390625 
Q 57.328125 12.15625 50.6875 5.359375 
Q 44.046875 -1.421875 33.015625 -1.421875 
Q 20.359375 -1.421875 13.671875 8.265625 
Q 6.984375 17.96875 6.984375 36.375 
Q 6.984375 53.65625 15.1875 63.9375 
Q 23.390625 74.21875 37.203125 74.21875 
Q 40.921875 74.21875 44.703125 73.484375 
Q 48.484375 72.75 52.59375 71.296875 
z
" id="DejaVuSans-54"/>
      </defs>
      <g transform="translate(67.096875 229.722697)scale(0.1 -0.1)">
       <use xlink:href="#DejaVuSans-48"/>
       <use x="63.623047" xlink:href="#DejaVuSans-46"/>
       <use x="95.410156" xlink:href="#DejaVuSans-54"/>
      </g>
     </g>
    </g>
    <g id="ytick_5">
     <g id="line2d_27">
      <path clip-path="url(#p52af482409)" d="M 90 159.746087 
L 648 159.746087 
" style="fill:none;stroke:#b0b0b0;stroke-linecap:square;stroke-width:0.8;"/>
     </g>
     <g id="line2d_28">
      <g>
       <use style="stroke:#000000;stroke-width:0.8;" x="90" xlink:href="#maa7c3b5066" y="159.746087"/>
      </g>
     </g>
     <g id="text_15">
      <!-- 0.8 -->
      <defs>
       <path d="M 31.78125 34.625 
Q 24.75 34.625 20.71875 30.859375 
Q 16.703125 27.09375 16.703125 20.515625 
Q 16.703125 13.921875 20.71875 10.15625 
Q 24.75 6.390625 31.78125 6.390625 
Q 38.8125 6.390625 42.859375 10.171875 
Q 46.921875 13.96875 46.921875 20.515625 
Q 46.921875 27.09375 42.890625 30.859375 
Q 38.875 34.625 31.78125 34.625 
z
M 21.921875 38.8125 
Q 15.578125 40.375 12.03125 44.71875 
Q 8.5 49.078125 8.5 55.328125 
Q 8.5 64.0625 14.71875 69.140625 
Q 20.953125 74.21875 31.78125 74.21875 
Q 42.671875 74.21875 48.875 69.140625 
Q 55.078125 64.0625 55.078125 55.328125 
Q 55.078125 49.078125 51.53125 44.71875 
Q 48 40.375 41.703125 38.8125 
Q 48.828125 37.15625 52.796875 32.3125 
Q 56.78125 27.484375 56.78125 20.515625 
Q 56.78125 9.90625 50.3125 4.234375 
Q 43.84375 -1.421875 31.78125 -1.421875 
Q 19.734375 -1.421875 13.25 4.234375 
Q 6.78125 9.90625 6.78125 20.515625 
Q 6.78125 27.484375 10.78125 32.3125 
Q 14.796875 37.15625 21.921875 38.8125 
z
M 18.3125 54.390625 
Q 18.3125 48.734375 21.84375 45.5625 
Q 25.390625 42.390625 31.78125 42.390625 
Q 38.140625 42.390625 41.71875 45.5625 
Q 45.3125 48.734375 45.3125 54.390625 
Q 45.3125 60.0625 41.71875 63.234375 
Q 38.140625 66.40625 31.78125 66.40625 
Q 25.390625 66.40625 21.84375 63.234375 
Q 18.3125 60.0625 18.3125 54.390625 
z
" id="DejaVuSans-56"/>
      </defs>
      <g transform="translate(67.096875 163.545306)scale(0.1 -0.1)">
       <use xlink:href="#DejaVuSans-48"/>
       <use x="63.623047" xlink:href="#DejaVuSans-46"/>
       <use x="95.410156" xlink:href="#DejaVuSans-56"/>
      </g>
     </g>
    </g>
    <g id="ytick_6">
     <g id="line2d_29">
      <path clip-path="url(#p52af482409)" d="M 90 93.568696 
L 648 93.568696 
" style="fill:none;stroke:#b0b0b0;stroke-linecap:square;stroke-width:0.8;"/>
     </g>
     <g id="line2d_30">
      <g>
       <use style="stroke:#000000;stroke-width:0.8;" x="90" xlink:href="#maa7c3b5066" y="93.568696"/>
      </g>
     </g>
     <g id="text_16">
      <!-- 1.0 -->
      <g transform="translate(67.096875 97.367914)scale(0.1 -0.1)">
       <use xlink:href="#DejaVuSans-49"/>
       <use x="63.623047" xlink:href="#DejaVuSans-46"/>
       <use x="95.410156" xlink:href="#DejaVuSans-48"/>
      </g>
     </g>
    </g>
    <g id="text_17">
     <!-- success-rate -->
     <defs>
      <path d="M 8.5 21.578125 
L 8.5 54.6875 
L 17.484375 54.6875 
L 17.484375 21.921875 
Q 17.484375 14.15625 20.5 10.265625 
Q 23.53125 6.390625 29.59375 6.390625 
Q 36.859375 6.390625 41.078125 11.03125 
Q 45.3125 15.671875 45.3125 23.6875 
L 45.3125 54.6875 
L 54.296875 54.6875 
L 54.296875 0 
L 45.3125 0 
L 45.3125 8.40625 
Q 42.046875 3.421875 37.71875 1 
Q 33.40625 -1.421875 27.6875 -1.421875 
Q 18.265625 -1.421875 13.375 4.4375 
Q 8.5 10.296875 8.5 21.578125 
z
M 31.109375 56 
z
" id="DejaVuSans-117"/>
      <path d="M 4.890625 31.390625 
L 31.203125 31.390625 
L 31.203125 23.390625 
L 4.890625 23.390625 
z
" id="DejaVuSans-45"/>
      <path d="M 41.109375 46.296875 
Q 39.59375 47.171875 37.8125 47.578125 
Q 36.03125 48 33.890625 48 
Q 26.265625 48 22.1875 43.046875 
Q 18.109375 38.09375 18.109375 28.8125 
L 18.109375 0 
L 9.078125 0 
L 9.078125 54.6875 
L 18.109375 54.6875 
L 18.109375 46.1875 
Q 20.953125 51.171875 25.484375 53.578125 
Q 30.03125 56 36.53125 56 
Q 37.453125 56 38.578125 55.875 
Q 39.703125 55.765625 41.0625 55.515625 
z
" id="DejaVuSans-114"/>
      <path d="M 34.28125 27.484375 
Q 23.390625 27.484375 19.1875 25 
Q 14.984375 22.515625 14.984375 16.5 
Q 14.984375 11.71875 18.140625 8.90625 
Q 21.296875 6.109375 26.703125 6.109375 
Q 34.1875 6.109375 38.703125 11.40625 
Q 43.21875 16.703125 43.21875 25.484375 
L 43.21875 27.484375 
z
M 52.203125 31.203125 
L 52.203125 0 
L 43.21875 0 
L 43.21875 8.296875 
Q 40.140625 3.328125 35.546875 0.953125 
Q 30.953125 -1.421875 24.3125 -1.421875 
Q 15.921875 -1.421875 10.953125 3.296875 
Q 6 8.015625 6 15.921875 
Q 6 25.140625 12.171875 29.828125 
Q 18.359375 34.515625 30.609375 34.515625 
L 43.21875 34.515625 
L 43.21875 35.40625 
Q 43.21875 41.609375 39.140625 45 
Q 35.0625 48.390625 27.6875 48.390625 
Q 23 48.390625 18.546875 47.265625 
Q 14.109375 46.140625 10.015625 43.890625 
L 10.015625 52.203125 
Q 14.9375 54.109375 19.578125 55.046875 
Q 24.21875 56 28.609375 56 
Q 40.484375 56 46.34375 49.84375 
Q 52.203125 43.703125 52.203125 31.203125 
z
" id="DejaVuSans-97"/>
      <path d="M 18.3125 70.21875 
L 18.3125 54.6875 
L 36.8125 54.6875 
L 36.8125 47.703125 
L 18.3125 47.703125 
L 18.3125 18.015625 
Q 18.3125 11.328125 20.140625 9.421875 
Q 21.96875 7.515625 27.59375 7.515625 
L 36.8125 7.515625 
L 36.8125 0 
L 27.59375 0 
Q 17.1875 0 13.234375 3.875 
Q 9.28125 7.765625 9.28125 18.015625 
L 9.28125 47.703125 
L 2.6875 47.703125 
L 2.6875 54.6875 
L 9.28125 54.6875 
L 9.28125 70.21875 
z
" id="DejaVuSans-116"/>
     </defs>
     <g transform="translate(61.017187 282.257969)rotate(-90)scale(0.1 -0.1)">
      <use xlink:href="#DejaVuSans-115"/>
      <use x="52.099609" xlink:href="#DejaVuSans-117"/>
      <use x="115.478516" xlink:href="#DejaVuSans-99"/>
      <use x="170.458984" xlink:href="#DejaVuSans-99"/>
      <use x="225.439453" xlink:href="#DejaVuSans-101"/>
      <use x="286.962891" xlink:href="#DejaVuSans-115"/>
      <use x="339.0625" xlink:href="#DejaVuSans-115"/>
      <use x="391.162109" xlink:href="#DejaVuSans-45"/>
      <use x="427.246094" xlink:href="#DejaVuSans-114"/>
      <use x="468.359375" xlink:href="#DejaVuSans-97"/>
      <use x="529.638672" xlink:href="#DejaVuSans-116"/>
      <use x="568.847656" xlink:href="#DejaVuSans-101"/>
     </g>
    </g>
   </g>
   <g id="line2d_31">
    <path clip-path="url(#p52af482409)" d="M 115.363636 407.221957 
L 117.912746 407.221957 
L 120.461855 391.366956 
L 123.010964 387.23087 
L 125.560073 402.396521 
L 128.109182 396.881739 
L 130.658291 409.979348 
L 133.207401 398.260435 
L 135.75651 394.813696 
L 138.305619 408.600652 
L 140.854728 396.192392 
L 143.403837 407.221957 
L 145.952947 380.337391 
L 148.502056 405.153913 
L 151.051165 407.911304 
L 153.600274 389.988261 
L 156.149383 405.843261 
L 158.698492 389.98826 
L 161.247602 378.269347 
L 163.796711 379.648044 
L 166.34582 383.094783 
L 168.894929 385.162826 
L 171.444038 381.716086 
L 173.993148 373.443912 
L 176.542257 379.648043 
L 179.091366 376.201304 
L 181.640475 361.725001 
L 184.189584 334.151089 
L 186.738693 339.665868 
L 189.287803 332.772392 
L 191.836912 315.538695 
L 194.386021 306.577173 
L 196.93513 279.69261 
L 199.484239 251.429349 
L 202.033349 246.603913 
L 204.582458 239.710432 
L 207.131567 241.77848 
L 209.680676 211.447177 
L 212.229785 232.816953 
L 214.778894 219.030002 
L 217.328004 207.311087 
L 219.877113 192.834783 
L 222.426222 181.805212 
L 224.975331 172.843696 
L 227.52444 176.979785 
L 230.07355 174.22239 
L 232.622659 160.435437 
L 235.171768 141.1337 
L 237.720877 139.754999 
L 240.269986 148.027171 
L 242.819095 134.929565 
L 245.368205 139.065655 
L 247.917314 123.210653 
L 250.466423 130.104132 
L 253.015532 135.618909 
L 255.564641 121.142609 
L 258.113751 115.627825 
L 260.66286 115.627825 
L 263.211969 114.938481 
L 265.761078 107.355652 
L 268.310187 103.908913 
L 270.859296 103.219569 
L 273.408406 101.840868 
L 275.957515 99.77283 
L 278.506624 102.530219 
L 281.055733 98.394129 
L 283.604842 99.08348 
L 286.153952 97.015435 
L 288.703061 97.015435 
L 291.25217 99.77283 
L 293.801279 97.015435 
L 296.350388 96.326084 
L 298.899497 94.94739 
L 301.448607 97.015435 
L 303.997716 97.704785 
L 306.546825 97.015441 
L 309.095934 98.394136 
L 311.645043 94.947397 
L 314.194153 99.083473 
L 316.743262 100.462174 
L 319.292371 99.77283 
L 321.84148 97.015441 
L 324.390589 98.394129 
L 326.939698 101.151524 
L 329.488808 97.704785 
L 332.037917 99.08348 
L 334.587026 94.94739 
L 337.136135 94.947397 
L 339.685244 97.704785 
L 342.234354 99.083473 
L 344.783463 96.326091 
L 347.332572 96.326091 
L 349.881681 97.015441 
L 354.979899 97.015435 
L 360.078118 95.63674 
L 362.627227 97.015435 
L 365.176336 96.326091 
L 367.725445 99.772823 
L 370.274555 99.08348 
L 372.823664 96.326084 
L 375.372773 97.015435 
L 377.921882 97.015435 
L 380.470991 97.704785 
L 383.020101 95.63674 
L 385.56921 97.015435 
L 388.118319 97.704785 
L 390.667428 97.015441 
L 393.216537 97.015435 
L 395.765646 95.63674 
L 400.863865 97.015435 
L 403.412974 97.015435 
L 405.962083 94.258046 
L 408.511192 95.636747 
L 411.060302 95.636747 
L 413.609411 97.015441 
L 416.15852 97.015435 
L 418.707629 94.258046 
L 421.256738 94.258046 
L 423.805847 97.015435 
L 426.354957 96.326091 
L 428.904066 96.326084 
L 431.453175 95.63674 
L 434.002284 95.63674 
L 439.100503 94.258046 
L 441.649612 96.326084 
L 444.198721 99.08348 
L 446.74783 97.015435 
L 449.296939 96.326091 
L 451.846048 98.394129 
L 454.395158 96.326084 
L 456.944267 96.326084 
L 462.042485 94.947397 
L 464.591594 96.326091 
L 467.140704 97.015435 
L 469.689813 96.326091 
L 472.238922 96.326091 
L 474.788031 94.94739 
L 477.33714 98.394129 
L 479.886249 97.704779 
L 482.435359 102.530219 
L 484.984468 94.258046 
L 487.533577 97.704785 
L 490.082686 94.947397 
L 492.631795 97.704785 
L 495.180905 99.772823 
L 500.279123 94.258046 
L 502.828232 97.015441 
L 505.377341 97.015435 
L 507.92645 94.258046 
L 510.47556 94.947397 
L 515.573778 94.94739 
L 518.122887 94.258046 
L 520.671996 97.704785 
L 523.221106 95.63674 
L 525.770215 97.015435 
L 528.319324 96.326091 
L 530.868433 97.015435 
L 533.417542 99.08348 
L 535.966651 95.636747 
L 538.515761 97.704785 
L 541.06487 97.015435 
L 543.613979 95.63674 
L 546.163088 97.015435 
L 548.712197 94.947397 
L 551.261307 94.258046 
L 553.810416 95.63674 
L 556.359525 97.704779 
L 558.908634 95.636747 
L 561.457743 97.015435 
L 564.006852 97.704785 
L 566.555962 94.258046 
L 569.105071 97.015441 
L 571.65418 94.258046 
L 574.203289 94.94739 
L 576.752398 94.947397 
L 579.301508 97.704785 
L 581.850617 97.015435 
L 584.399726 94.947397 
L 586.948835 97.015441 
L 589.497944 97.704779 
L 592.047053 94.258046 
L 594.596163 94.258046 
L 597.145272 97.015435 
L 599.694381 95.63674 
L 602.24349 94.947397 
L 604.792599 97.015441 
L 607.341709 98.394129 
L 612.439927 94.258046 
L 614.989036 94.947397 
L 617.538145 99.08348 
L 620.087254 95.63674 
L 622.636364 95.63674 
L 622.636364 95.63674 
" style="fill:none;stroke:#1f77b4;stroke-linecap:square;stroke-width:1.5;"/>
   </g>
   <g id="line2d_32">
    <path clip-path="url(#p52af482409)" d="M 115.363636 407.911304 
L 117.912746 412.047391 
L 120.461855 389.298912 
L 123.010964 387.230871 
L 125.560073 407.911304 
L 128.109182 397.571088 
L 130.658291 407.911304 
L 133.207401 393.435 
L 135.75651 393.435 
L 138.305619 409.979348 
L 140.854728 395.503044 
L 143.403837 409.979348 
L 145.952947 376.890653 
L 148.502056 412.047391 
L 151.051165 412.047391 
L 153.600274 399.639129 
L 156.149383 412.047391 
L 158.698492 403.775217 
L 161.247602 397.571088 
L 163.796711 397.571088 
L 166.34582 399.639129 
L 168.894929 395.503044 
L 171.444038 405.843261 
L 173.993148 391.366956 
L 176.542257 409.979348 
L 179.091366 407.911304 
L 181.640475 397.571088 
L 184.189584 403.775217 
L 186.738693 405.843261 
L 189.287803 405.843261 
L 191.836912 407.911304 
L 194.386021 403.775217 
L 196.93513 397.571088 
L 202.033349 405.843261 
L 204.582458 387.230871 
L 207.131567 403.775217 
L 212.229785 412.047391 
L 214.778894 399.639129 
L 217.328004 401.707173 
L 219.877113 381.026741 
L 222.426222 393.435 
L 224.975331 385.162827 
L 227.52444 399.639129 
L 230.07355 401.707173 
L 232.622659 409.979348 
L 235.171768 397.571088 
L 237.720877 407.911304 
L 240.269986 401.707173 
L 242.819095 391.366956 
L 245.368205 403.775217 
L 247.917314 395.503044 
L 250.466423 405.843261 
L 253.015532 381.026741 
L 255.564641 393.435 
L 258.113751 409.979348 
L 260.66286 403.775217 
L 263.211969 401.707173 
L 265.761078 393.435 
L 268.310187 391.366956 
L 273.408406 395.503044 
L 278.506624 403.775217 
L 281.055733 401.707173 
L 283.604842 403.775217 
L 286.153952 399.639129 
L 288.703061 399.639129 
L 291.25217 383.094783 
L 293.801279 409.979348 
L 296.350388 407.911304 
L 298.899497 414.115435 
L 301.448607 397.571088 
L 303.997716 395.503044 
L 306.546825 409.979348 
L 309.095934 391.366956 
L 311.645043 399.639129 
L 314.194153 395.503044 
L 316.743262 401.707173 
L 319.292371 403.775217 
L 321.84148 399.639129 
L 324.390589 401.707173 
L 326.939698 391.366956 
L 329.488808 397.571088 
L 332.037917 401.707173 
L 334.587026 399.639129 
L 337.136135 393.435 
L 339.685244 403.775217 
L 342.234354 405.843261 
L 344.783463 391.366956 
L 347.332572 409.979348 
L 349.881681 393.435 
L 352.43079 403.775217 
L 354.979899 399.639129 
L 357.529009 405.843261 
L 360.078118 393.435 
L 362.627227 403.775217 
L 365.176336 403.775217 
L 367.725445 395.503044 
L 370.274555 407.911304 
L 372.823664 401.707173 
L 375.372773 409.979348 
L 377.921882 401.707173 
L 380.470991 395.503044 
L 383.020101 409.979348 
L 385.56921 403.775217 
L 388.118319 391.366956 
L 390.667428 397.571088 
L 393.216537 412.047391 
L 395.765646 405.843261 
L 398.314756 389.298912 
L 400.863865 399.639129 
L 403.412974 399.639129 
L 405.962083 407.911304 
L 408.511192 395.503044 
L 411.060302 401.707173 
L 416.15852 409.979348 
L 421.256738 397.571088 
L 423.805847 393.435 
L 426.354957 403.775217 
L 428.904066 401.707173 
L 431.453175 401.707173 
L 434.002284 403.775217 
L 436.551393 403.775217 
L 439.100503 389.298912 
L 441.649612 397.571088 
L 444.198721 403.775217 
L 446.74783 395.503044 
L 449.296939 401.707173 
L 451.846048 401.707173 
L 454.395158 397.571088 
L 456.944267 409.979348 
L 459.493376 393.435 
L 462.042485 395.503044 
L 464.591594 391.366956 
L 467.140704 405.843261 
L 469.689813 395.503044 
L 472.238922 399.639129 
L 474.788031 397.571088 
L 477.33714 399.639129 
L 479.886249 397.571088 
L 482.435359 405.843261 
L 484.984468 397.571088 
L 487.533577 395.503044 
L 492.631795 412.047391 
L 495.180905 403.775217 
L 497.730014 407.911304 
L 500.279123 409.979348 
L 502.828232 397.571088 
L 505.377341 401.707173 
L 507.92645 401.707173 
L 510.47556 397.571088 
L 513.024669 401.707173 
L 515.573778 401.707173 
L 518.122887 407.911304 
L 520.671996 401.707173 
L 523.221106 397.571088 
L 525.770215 397.571088 
L 528.319324 391.366956 
L 530.868433 401.707173 
L 533.417542 409.979348 
L 535.966651 405.843261 
L 538.515761 412.047391 
L 541.06487 395.503044 
L 543.613979 397.571088 
L 546.163088 397.571088 
L 548.712197 405.843261 
L 551.261307 389.298912 
L 553.810416 401.707173 
L 556.359525 397.571088 
L 558.908634 405.843261 
L 561.457743 401.707173 
L 564.006852 403.775217 
L 566.555962 391.366956 
L 569.105071 401.707173 
L 571.65418 401.707173 
L 574.203289 399.639129 
L 576.752398 407.911304 
L 579.301508 391.366956 
L 581.850617 395.503044 
L 584.399726 407.911304 
L 586.948835 416.183478 
L 592.047053 407.911304 
L 594.596163 393.435 
L 597.145272 405.843261 
L 599.694381 399.639129 
L 602.24349 403.775217 
L 604.792599 391.366956 
L 607.341709 412.047391 
L 609.890818 397.571088 
L 612.439927 401.707173 
L 614.989036 401.707173 
L 617.538145 395.503044 
L 620.087254 405.843261 
L 622.636364 393.435 
L 622.636364 393.435 
" style="fill:none;stroke:#ff7f0e;stroke-linecap:square;stroke-width:1.5;"/>
   </g>
   <g id="patch_3">
    <path d="M 90 441 
L 90 60.48 
" style="fill:none;stroke:#000000;stroke-linecap:square;stroke-linejoin:miter;stroke-width:0.8;"/>
   </g>
   <g id="patch_4">
    <path d="M 648 441 
L 648 60.48 
" style="fill:none;stroke:#000000;stroke-linecap:square;stroke-linejoin:miter;stroke-width:0.8;"/>
   </g>
   <g id="patch_5">
    <path d="M 90 441 
L 648 441 
" style="fill:none;stroke:#000000;stroke-linecap:square;stroke-linejoin:miter;stroke-width:0.8;"/>
   </g>
   <g id="patch_6">
    <path d="M 90 60.48 
L 648 60.48 
" style="fill:none;stroke:#000000;stroke-linecap:square;stroke-linejoin:miter;stroke-width:0.8;"/>
   </g>
   <g id="text_18">
    <!-- FetchPush -->
    <defs>
     <path d="M 9.8125 72.90625 
L 51.703125 72.90625 
L 51.703125 64.59375 
L 19.671875 64.59375 
L 19.671875 43.109375 
L 48.578125 43.109375 
L 48.578125 34.8125 
L 19.671875 34.8125 
L 19.671875 0 
L 9.8125 0 
z
" id="DejaVuSans-70"/>
     <path d="M 19.671875 64.796875 
L 19.671875 37.40625 
L 32.078125 37.40625 
Q 38.96875 37.40625 42.71875 40.96875 
Q 46.484375 44.53125 46.484375 51.125 
Q 46.484375 57.671875 42.71875 61.234375 
Q 38.96875 64.796875 32.078125 64.796875 
z
M 9.8125 72.90625 
L 32.078125 72.90625 
Q 44.34375 72.90625 50.609375 67.359375 
Q 56.890625 61.8125 56.890625 51.125 
Q 56.890625 40.328125 50.609375 34.8125 
Q 44.34375 29.296875 32.078125 29.296875 
L 19.671875 29.296875 
L 19.671875 0 
L 9.8125 0 
z
" id="DejaVuSans-80"/>
    </defs>
    <g transform="translate(338.49 54.48)scale(0.12 -0.12)">
     <use xlink:href="#DejaVuSans-70"/>
     <use x="52.019531" xlink:href="#DejaVuSans-101"/>
     <use x="113.542969" xlink:href="#DejaVuSans-116"/>
     <use x="152.751953" xlink:href="#DejaVuSans-99"/>
     <use x="207.732422" xlink:href="#DejaVuSans-104"/>
     <use x="271.111328" xlink:href="#DejaVuSans-80"/>
     <use x="329.664062" xlink:href="#DejaVuSans-117"/>
     <use x="393.042969" xlink:href="#DejaVuSans-115"/>
     <use x="445.142578" xlink:href="#DejaVuSans-104"/>
    </g>
   </g>
   <g id="legend_1">
    <g id="patch_7">
     <path d="M 538.4 136.584 
L 628.745313 136.584 
Q 630.745313 136.584 630.745313 134.584 
L 630.745313 106.22775 
Q 630.745313 104.22775 628.745313 104.22775 
L 538.4 104.22775 
Q 536.4 104.22775 536.4 106.22775 
L 536.4 134.584 
Q 536.4 136.584 538.4 136.584 
z
" style="fill:#ffffff;opacity:0.8;stroke:#cccccc;stroke-linejoin:miter;"/>
    </g>
    <g id="line2d_33">
     <path d="M 540.4 112.326188 
L 560.4 112.326188 
" style="fill:none;stroke:#1f77b4;stroke-linecap:square;stroke-width:1.5;"/>
    </g>
    <g id="line2d_34"/>
    <g id="text_19">
     <!-- DDPG+HER -->
     <defs>
      <path d="M 19.671875 64.796875 
L 19.671875 8.109375 
L 31.59375 8.109375 
Q 46.6875 8.109375 53.6875 14.9375 
Q 60.6875 21.78125 60.6875 36.53125 
Q 60.6875 51.171875 53.6875 57.984375 
Q 46.6875 64.796875 31.59375 64.796875 
z
M 9.8125 72.90625 
L 30.078125 72.90625 
Q 51.265625 72.90625 61.171875 64.09375 
Q 71.09375 55.28125 71.09375 36.53125 
Q 71.09375 17.671875 61.125 8.828125 
Q 51.171875 0 30.078125 0 
L 9.8125 0 
z
" id="DejaVuSans-68"/>
      <path d="M 59.515625 10.40625 
L 59.515625 29.984375 
L 43.40625 29.984375 
L 43.40625 38.09375 
L 69.28125 38.09375 
L 69.28125 6.78125 
Q 63.578125 2.734375 56.6875 0.65625 
Q 49.8125 -1.421875 42 -1.421875 
Q 24.90625 -1.421875 15.25 8.5625 
Q 5.609375 18.5625 5.609375 36.375 
Q 5.609375 54.25 15.25 64.234375 
Q 24.90625 74.21875 42 74.21875 
Q 49.125 74.21875 55.546875 72.453125 
Q 61.96875 70.703125 67.390625 67.28125 
L 67.390625 56.78125 
Q 61.921875 61.421875 55.765625 63.765625 
Q 49.609375 66.109375 42.828125 66.109375 
Q 29.4375 66.109375 22.71875 58.640625 
Q 16.015625 51.171875 16.015625 36.375 
Q 16.015625 21.625 22.71875 14.15625 
Q 29.4375 6.6875 42.828125 6.6875 
Q 48.046875 6.6875 52.140625 7.59375 
Q 56.25 8.5 59.515625 10.40625 
z
" id="DejaVuSans-71"/>
      <path d="M 46 62.703125 
L 46 35.5 
L 73.1875 35.5 
L 73.1875 27.203125 
L 46 27.203125 
L 46 0 
L 37.796875 0 
L 37.796875 27.203125 
L 10.59375 27.203125 
L 10.59375 35.5 
L 37.796875 35.5 
L 37.796875 62.703125 
z
" id="DejaVuSans-43"/>
      <path d="M 9.8125 72.90625 
L 19.671875 72.90625 
L 19.671875 43.015625 
L 55.515625 43.015625 
L 55.515625 72.90625 
L 65.375 72.90625 
L 65.375 0 
L 55.515625 0 
L 55.515625 34.71875 
L 19.671875 34.71875 
L 19.671875 0 
L 9.8125 0 
z
" id="DejaVuSans-72"/>
      <path d="M 9.8125 72.90625 
L 55.90625 72.90625 
L 55.90625 64.59375 
L 19.671875 64.59375 
L 19.671875 43.015625 
L 54.390625 43.015625 
L 54.390625 34.71875 
L 19.671875 34.71875 
L 19.671875 8.296875 
L 56.78125 8.296875 
L 56.78125 0 
L 9.8125 0 
z
" id="DejaVuSans-69"/>
      <path d="M 44.390625 34.1875 
Q 47.5625 33.109375 50.5625 29.59375 
Q 53.5625 26.078125 56.59375 19.921875 
L 66.609375 0 
L 56 0 
L 46.6875 18.703125 
Q 43.0625 26.03125 39.671875 28.421875 
Q 36.28125 30.8125 30.421875 30.8125 
L 19.671875 30.8125 
L 19.671875 0 
L 9.8125 0 
L 9.8125 72.90625 
L 32.078125 72.90625 
Q 44.578125 72.90625 50.734375 67.671875 
Q 56.890625 62.453125 56.890625 51.90625 
Q 56.890625 45.015625 53.6875 40.46875 
Q 50.484375 35.9375 44.390625 34.1875 
z
M 19.671875 64.796875 
L 19.671875 38.921875 
L 32.078125 38.921875 
Q 39.203125 38.921875 42.84375 42.21875 
Q 46.484375 45.515625 46.484375 51.90625 
Q 46.484375 58.296875 42.84375 61.546875 
Q 39.203125 64.796875 32.078125 64.796875 
z
" id="DejaVuSans-82"/>
     </defs>
     <g transform="translate(568.4 115.826188)scale(0.1 -0.1)">
      <use xlink:href="#DejaVuSans-68"/>
      <use x="77.001953" xlink:href="#DejaVuSans-68"/>
      <use x="154.003906" xlink:href="#DejaVuSans-80"/>
      <use x="214.306641" xlink:href="#DejaVuSans-71"/>
      <use x="291.796875" xlink:href="#DejaVuSans-43"/>
      <use x="375.585938" xlink:href="#DejaVuSans-72"/>
      <use x="450.78125" xlink:href="#DejaVuSans-69"/>
      <use x="513.964844" xlink:href="#DejaVuSans-82"/>
     </g>
    </g>
    <g id="line2d_35">
     <path d="M 540.4 127.004313 
L 560.4 127.004313 
" style="fill:none;stroke:#ff7f0e;stroke-linecap:square;stroke-width:1.5;"/>
    </g>
    <g id="line2d_36"/>
    <g id="text_20">
     <!-- DDPG -->
     <g transform="translate(568.4 130.504313)scale(0.1 -0.1)">
      <use xlink:href="#DejaVuSans-68"/>
      <use x="77.001953" xlink:href="#DejaVuSans-68"/>
      <use x="154.003906" xlink:href="#DejaVuSans-80"/>
      <use x="214.306641" xlink:href="#DejaVuSans-71"/>
     </g>
    </g>
   </g>
  </g>
 </g>
 <defs>
  <clipPath id="p52af482409">
   <rect height="380.52" width="558" x="90" y="60.48"/>
  </clipPath>
 </defs>
</svg>
